<?xml version="1.0" standalone="no"?>
<!DOCTYPE svg PUBLIC "-//W3C//DTD SVG 1.1//EN" "http://www.w3.org/Graphics/SVG/1.1/DTD/svg11.dtd" >
<svg xmlns="http://www.w3.org/2000/svg" xmlns:xlink="http://www.w3.org/1999/xlink" version="1.1">
<metadata></metadata>
<defs>
<font id="dosisregular" horiz-adv-x="1015" >
<font-face units-per-em="2048" ascent="1638" descent="-410" />
<missing-glyph horiz-adv-x="409" />
<glyph horiz-adv-x="0" />
<glyph horiz-adv-x="682" />
<glyph unicode="&#xd;" horiz-adv-x="0" />
<glyph unicode=" "  horiz-adv-x="409" />
<glyph unicode="&#x09;" horiz-adv-x="409" />
<glyph unicode="&#xa0;" horiz-adv-x="409" />
<glyph unicode="!" horiz-adv-x="419" d="M117 82q0 40 26.5 68t67.5 28q38 0 65 -28t27 -68q0 -37 -27 -65.5t-65 -28.5q-40 0 -67 28t-27 66zM131 1444q0 37 22.5 58.5t55.5 21.5t55.5 -21.5t22.5 -58.5q0 -168 -11.5 -529.5t-11.5 -529.5q0 -23 -17.5 -35t-37.5 -12q-22 0 -37.5 12t-15.5 35q0 168 -12.5 529.5 t-12.5 529.5z" />
<glyph unicode="&#x22;" horiz-adv-x="552" d="M78 1528q0 19 20 32t43 13q25 0 46.5 -13t21.5 -32l-21 -301q0 -20 -12 -33.5t-35 -13.5q-43 0 -43 47zM344 1528q0 19 20.5 32t43.5 13q25 0 46 -13t21 -32l-20 -301q0 -20 -12 -33.5t-35 -13.5q-43 0 -43 47z" />
<glyph unicode="#" horiz-adv-x="1193" d="M53 569q0 22 11.5 38t29.5 16h225l50 327h-197q-49 0 -49 54q0 22 11.5 36.5t29.5 14.5h225l60 375q3 13 17.5 21.5t33.5 8.5q30 0 47.5 -16t17.5 -43l-55 -346h260l59 375q3 13 18 21.5t34 8.5q30 0 47.5 -16t17.5 -43l-55 -346h201q19 0 35 -14.5t16 -36.5t-13 -38 t-30 -16h-226l-53 -327h201q19 0 35 -15.5t16 -38.5q0 -21 -12.5 -36t-30.5 -15h-227l-64 -407q-4 -18 -21 -29.5t-36 -11.5q-26 0 -45 15.5t-19 43.5l60 389h-256l-64 -405q-3 -20 -20.5 -31.5t-34.5 -11.5q-26 0 -44.5 15.5t-18.5 43.5l57 389h-195q-49 0 -49 51zM440 623 h258l52 327h-258z" />
<glyph unicode="$" horiz-adv-x="1021" d="M80 227q0 26 19 51t42 25q12 0 29.5 -16.5t42 -41t57.5 -48.5t90.5 -42t128.5 -20v596h-1l-1 1h-1h-1l-1 1h-1h-1l-1 1h-1l-1 1q-149 51 -211 92q-143 92 -151 270v21q0 75 22 134.5t57.5 97.5t85 64.5t100 39t107.5 16.5v64q0 15 14 27t34 12q17 0 32 -12t15 -27v-59 q75 -3 145.5 -19.5t118 -44.5t47.5 -61q0 -24 -17 -50t-42 -26q-13 0 -44 17t-86 36.5t-122 22.5v-508q42 -15 73.5 -28t69.5 -34t65.5 -43.5t55.5 -55t45 -70.5t28 -88t11 -109q0 -179 -93.5 -280t-254.5 -122v-80q0 -15 -14.5 -26.5t-32.5 -11.5q-20 0 -34 11.5t-14 26.5 v74q-91 1 -171.5 25t-130.5 59t-78.5 71.5t-28.5 65.5zM246 1130q0 -46 14 -83.5t34 -62.5t56 -47t66.5 -35t77.5 -30v476q-51 -4 -93.5 -17.5t-78.5 -38t-56 -66t-20 -96.5zM578 139q223 36 223 262q0 64 -16.5 113.5t-49.5 83.5t-69 56.5t-88 43.5v-559z" />
<glyph unicode="%" horiz-adv-x="1550" d="M82 952v312q0 121 69 177t185 56t185 -56t69 -177v-312q0 -121 -69 -177t-185 -56t-185 56t-69 177zM186 952q0 -71 39 -106t111 -35t111.5 35t39.5 106v312q0 71 -39.5 106t-111.5 35t-111 -35t-39 -106v-312zM340 -4q0 12 6 24l780 1530q11 25 41 25q22 0 40 -15.5 t18 -39.5q0 -15 -6 -27l-777 -1518q-15 -30 -49 -30q-22 0 -37.5 15.5t-15.5 35.5zM961 227v312q0 120 69 176.5t184 56.5t184.5 -56.5t69.5 -176.5v-312q0 -121 -69 -177t-185 -56q-115 0 -184 56t-69 177zM1065 227q0 -141 149 -141q72 0 112 35.5t40 105.5v312 q0 70 -40 105.5t-112 35.5q-149 0 -149 -141v-312z" />
<glyph unicode="&#x26;" horiz-adv-x="1249" d="M70 416q0 145 80 249.5t198 157.5q-79 92 -122.5 174t-43.5 187q0 162 106 255t265 93q78 0 145 -22.5t106.5 -55t61 -64.5t21.5 -55q0 -26 -18.5 -43.5t-45.5 -17.5q-14 0 -29.5 15t-33.5 36t-42 42.5t-65.5 36.5t-93.5 15q-110 0 -173.5 -66t-63.5 -177q0 -51 14.5 -99 t46 -95t58 -79.5t71.5 -81.5l416 -454q59 135 69 372q2 30 15 43t47 13q31 0 44 -17t13 -55q0 -90 -22.5 -214t-79.5 -235l188 -202q12 -15 12 -29q0 -23 -18.5 -40t-42.5 -17q-21 0 -39 18l-166 178q-148 -202 -409 -202q-108 0 -198 35.5t-148.5 95.5t-90.5 138.5 t-32 166.5zM207 428q0 -137 94 -231.5t256 -94.5q205 0 307 166l-440 469q-34 -20 -58 -36t-56.5 -45.5t-52.5 -59.5t-35 -74t-15 -94z" />
<glyph unicode="'" horiz-adv-x="286" d="M78 1528q0 19 20 32t43 13q25 0 46.5 -13t21.5 -32l-21 -301q0 -20 -12 -33.5t-35 -13.5q-43 0 -43 47z" />
<glyph unicode="(" horiz-adv-x="612" d="M127 309v887q0 155 112 266t269 111q32 0 48.5 -17t16.5 -43q0 -27 -14 -45t-35 -18q-119 0 -190.5 -77t-71.5 -177v-887q0 -66 23.5 -113t64.5 -70.5t83 -33.5t91 -10t49 -62q0 -61 -67 -61q-165 0 -272 92t-107 258z" />
<glyph unicode=")" horiz-adv-x="612" d="M39 20q0 62 49 62t91 10t83 33.5t64.5 70.5t23.5 113v887q0 100 -71.5 177t-190.5 77q-22 0 -35.5 17.5t-13.5 45.5q0 27 16 43.5t49 16.5q157 0 269 -111t112 -266v-887q0 -166 -107 -258t-272 -92q-67 0 -67 61z" />
<glyph unicode="*" horiz-adv-x="882" d="M68 1212q0 23 16 41.5t41 18.5q8 0 14 -2l258 -90l-10 266q1 25 16.5 38t38.5 13t39 -13t17 -38l-11 -268l258 92q6 2 19 2q21 0 36 -19.5t15 -42.5q0 -39 -35 -47l-256 -73l166 -224q8 -11 8 -28q0 -24 -18.5 -41t-42.5 -17q-26 0 -39 21l-156 229l-155 -231 q-13 -19 -35 -19t-44 16t-22 40q0 16 13 32l163 217l-260 78q-34 8 -34 49z" />
<glyph unicode="+" horiz-adv-x="882" d="M63 492q0 26 14 43.5t36 17.5h270v266q0 21 17.5 37t41.5 16q26 0 43 -16t17 -37v-266h266q21 0 37 -17.5t16 -43.5q0 -25 -16 -41.5t-37 -16.5h-266v-270q0 -22 -17 -35.5t-43 -13.5q-25 0 -42 14t-17 35v270h-270q-22 0 -36 16t-14 42z" />
<glyph unicode="," horiz-adv-x="350" d="M82 82q0 40 27 68t65 28q37 0 65.5 -27t28.5 -69q0 -34 -78 -229q-12 -25 -40 -25q-19 0 -34.5 10.5t-15.5 28.5q0 12 2 20l41 107q-28 10 -44.5 34.5t-16.5 53.5z" />
<glyph unicode="-" horiz-adv-x="845" d="M106 492q0 26 14.5 43.5t37.5 17.5h532q21 0 36 -17.5t15 -43.5t-15 -42t-36 -16h-532q-23 0 -37.5 16t-14.5 42z" />
<glyph unicode="." horiz-adv-x="350" d="M82 82q0 40 26.5 68t67.5 28q37 0 64.5 -28.5t27.5 -67.5q0 -37 -27.5 -65.5t-64.5 -28.5q-40 0 -67 28t-27 66z" />
<glyph unicode="/" horiz-adv-x="970" d="M41 -4q0 12 6 24l780 1530q11 25 41 25q22 0 41 -16t19 -39q0 -16 -8 -27l-777 -1518q-12 -30 -49 -30q-22 0 -37.5 15.5t-15.5 35.5z" />
<glyph unicode="0" horiz-adv-x="1089" d="M119 426v635q0 116 32.5 201.5t91 136t134 74.5t168.5 24t168.5 -24t134 -74.5t91 -136t32.5 -201.5v-635q0 -116 -32.5 -202.5t-91 -137t-134 -74.5t-168.5 -24t-168.5 24t-134 74.5t-91 137t-32.5 202.5zM254 426q0 -158 75.5 -235.5t215.5 -77.5t215.5 77.5 t75.5 235.5v635q0 156 -75.5 233.5t-215.5 77.5t-215.5 -77.5t-75.5 -233.5v-635zM471 741q0 32 21 53t55 21q31 0 52.5 -21t21.5 -53q0 -31 -21.5 -53t-52.5 -22q-33 0 -54.5 22t-21.5 53z" />
<glyph unicode="1" horiz-adv-x="477" d="M27 1169q0 13 9.5 33t20.5 29l168 237q23 31 51 31q24 0 42 -14t18 -37v-1395q0 -25 -20.5 -39t-47.5 -14q-28 0 -47.5 14t-19.5 39v1215l-82 -133q-17 -25 -39 -25q-23 0 -38 17.5t-15 41.5z" />
<glyph unicode="2" horiz-adv-x="972" d="M70 53v199q0 54 23.5 106.5t63.5 97t92 88t109.5 84.5t115 82.5t109.5 86.5t92 90.5t63.5 100.5t23.5 112q0 50 -17.5 97t-50 86t-87 63t-122.5 24q-110 0 -178.5 -62.5t-68.5 -179.5q0 -22 -19.5 -38.5t-52.5 -16.5q-32 0 -47 19.5t-15 64.5q0 147 110.5 243.5 t274.5 96.5q176 0 292 -113t116 -280q0 -89 -38 -170.5t-98.5 -144t-134 -119.5t-147 -107.5t-134 -99t-98.5 -102.5t-38 -109v-127h653q20 0 34.5 -18.5t14.5 -43.5t-14.5 -44t-34.5 -19h-729q-22 0 -42.5 15t-20.5 38z" />
<glyph unicode="3" horiz-adv-x="997" d="M57 326q0 41 14.5 56t49.5 15q69 0 69 -57q0 -37 14.5 -73.5t45 -72.5t90 -58.5t139.5 -22.5q295 0 295 307v39q0 137 -77 204.5t-214 67.5q-27 0 -40 16.5t-13 40.5q0 25 12.5 42.5t38.5 17.5q130 0 193 58t63 204q0 134 -60 199t-188 65q-62 0 -109.5 -14.5t-75.5 -37 t-46 -52.5t-24.5 -58t-6.5 -57q0 -65 -65 -65q-40 0 -55 16.5t-15 60.5q0 38 10 78t38 86.5t71 82t116.5 59.5t166.5 24q374 0 374 -360q0 -133 -46.5 -221.5t-121.5 -124.5q209 -85 209 -332v-39q0 -114 -33 -199t-92.5 -135t-135 -74t-167.5 -24q-104 0 -188 31t-134 81.5 t-76 108.5t-26 117z" />
<glyph unicode="4" horiz-adv-x="909" d="M16 408q0 19 9 34l514 1014q20 41 63 41q22 0 44 -16t22 -39q0 -12 -6 -27l-474 -934h402v396q0 25 19.5 38t47.5 13q27 0 47.5 -13t20.5 -38v-396h113q25 0 38 -18.5t13 -44.5t-14.5 -46t-36.5 -20h-113v-299q0 -25 -20.5 -39t-47.5 -14q-28 0 -47.5 14t-19.5 39v299 h-520q-25 0 -39.5 16t-14.5 40z" />
<glyph unicode="5" horiz-adv-x="970" d="M57 336q0 67 66 67q70 0 70 -57q0 -109 81 -171t207 -62q140 0 215.5 77t75.5 232v39q0 151 -75.5 227t-213.5 76h-284q-40 0 -55 13.5t-15 37.5q0 4 1 20.5t1 20.5l41 590q7 51 43 51h573q22 0 34 -18t12 -43q0 -27 -12 -45.5t-34 -18.5h-495l-33 -491h223q93 0 168 -23 t133.5 -71.5t90.5 -131t32 -194.5v-39q0 -115 -32.5 -200.5t-91 -135.5t-133.5 -74t-167 -24q-196 0 -311 101t-115 247z" />
<glyph unicode="6" horiz-adv-x="1058" d="M119 426v635q0 116 32.5 201.5t91.5 136t135.5 74.5t170.5 24q99 0 181 -29.5t133.5 -79t79.5 -111.5t28 -130q0 -62 -64 -62q-31 0 -51 13.5t-20 42.5q0 103 -84 167t-207 64q-140 0 -215.5 -77.5t-75.5 -233.5v-313q101 135 309 135q408 0 408 -408v-49 q0 -116 -32.5 -202.5t-91 -137t-134 -74.5t-168.5 -24t-168.5 24t-134 74.5t-91 137t-32.5 202.5zM254 420q0 -156 75.5 -233.5t215.5 -77.5t215.5 77.5t75.5 233.5v49q0 156 -74.5 226.5t-216.5 70.5q-291 0 -291 -279v-67z" />
<glyph unicode="7" horiz-adv-x="940" d="M55 1137v309q0 19 19.5 35t42.5 16h727q22 0 42.5 -16t20.5 -35v-176q0 -30 -20 -60l-608 -1187q-13 -27 -46 -27q-32 0 -56.5 18.5t-24.5 46.5q0 9 8 29l612 1172v110h-582v-235q0 -21 -20 -36.5t-47 -15.5q-28 0 -48 15t-20 37z" />
<glyph unicode="8" horiz-adv-x="1028" d="M88 410v24q0 294 223 383q-182 75 -182 322q0 358 385 358t385 -358q0 -248 -180 -322q221 -88 221 -383v-24q0 -111 -32.5 -194t-91 -132t-134 -72.5t-168.5 -23.5t-168.5 23.5t-134 72.5t-91 132t-32.5 194zM223 420q0 -156 76.5 -235t216.5 -79q139 0 214 79t75 235 v29q0 155 -75.5 230t-215.5 75q-139 0 -215 -75.5t-76 -229.5v-29zM262 1128q0 -254 252 -254q254 0 254 254q0 250 -254 250q-252 0 -252 -250z" />
<glyph unicode="9" horiz-adv-x="1058" d="M88 338q0 63 64 63q29 0 49 -14t20 -43q0 -103 84 -167t207 -64q141 0 217 77.5t76 235.5v313q-100 -137 -309 -137q-408 0 -408 410v49q0 116 32 201.5t90.5 136t133.5 74.5t168 24t168.5 -24t135 -74.5t92 -136.5t32.5 -201v-635q0 -94 -21.5 -168t-60 -124t-93 -83.5 t-117.5 -48t-138 -14.5q-100 0 -182 29.5t-133.5 79t-79 111.5t-27.5 130zM223 1016q0 -156 74 -226.5t217 -70.5q291 0 291 278v68q0 158 -76.5 235.5t-216.5 77.5t-214.5 -77.5t-74.5 -235.5v-49z" />
<glyph unicode=":" horiz-adv-x="415" d="M115 82q0 40 26.5 68t67.5 28q37 0 64.5 -28.5t27.5 -67.5q0 -37 -27.5 -65.5t-64.5 -28.5q-40 0 -67 28t-27 66zM115 770q0 40 26.5 68t67.5 28q37 0 64.5 -28.5t27.5 -67.5q0 -37 -27.5 -65.5t-64.5 -28.5q-40 0 -67 28t-27 66z" />
<glyph unicode=";" horiz-adv-x="428" d="M119 82q0 40 27 68t65 28q37 0 65.5 -27t28.5 -69q0 -34 -78 -229q-13 -25 -41 -25q-19 0 -34 10.5t-15 28.5q0 12 2 20l41 107q-28 10 -44.5 34.5t-16.5 53.5zM125 770q0 40 26.5 68t67.5 28q37 0 64.5 -28.5t27.5 -67.5q0 -37 -27.5 -65.5t-64.5 -28.5q-40 0 -67 28 t-27 66z" />
<glyph unicode="&#x3c;" horiz-adv-x="819" d="M51 567q0 15 9.5 32t23.5 26l551 364q11 8 24 8q23 0 43.5 -19t20.5 -44q0 -28 -23 -43l-487 -324l487 -321q23 -15 23 -43q0 -25 -20.5 -44.5t-43.5 -19.5q-13 0 -24 8l-551 365q-33 20 -33 55z" />
<glyph unicode="=" horiz-adv-x="888" d="M135 340q0 25 14 42t35 17h518q21 0 36.5 -17.5t15.5 -41.5q0 -26 -15.5 -42.5t-36.5 -16.5h-518q-22 0 -35.5 16.5t-13.5 42.5zM135 756q0 25 14 42t35 17h518q21 0 36.5 -17.5t15.5 -41.5q0 -26 -15.5 -43t-36.5 -17h-518q-22 0 -35.5 17t-13.5 43z" />
<glyph unicode="&#x3e;" horiz-adv-x="817" d="M96 203q0 28 23 43l487 321l-487 324q-23 15 -23 43q0 25 20.5 44t43.5 19q13 0 24 -8l551 -364q14 -9 23.5 -26t9.5 -32q0 -35 -33 -55l-551 -365q-11 -8 -24 -8q-23 0 -43.5 19.5t-20.5 44.5z" />
<glyph unicode="?" horiz-adv-x="815" d="M47 1366q0 54 93.5 106t219.5 52q185 0 286.5 -103t101.5 -262q0 -72 -20 -136t-55 -113t-68 -84.5t-73.5 -73t-56.5 -56.5q-48 -51 -60 -114t-12 -197q0 -47 -55 -47t-55 59q0 157 22.5 232.5t65.5 124.5q18 19 58 54.5t68.5 65t59.5 70.5t47.5 93t16.5 112 q0 124 -72 193t-205 69q-62 0 -109 -15.5t-68 -34.5t-42 -34.5t-37 -15.5q-19 0 -35 15t-16 40zM254 82q0 40 28 68t66 28t66 -28t28 -68q0 -37 -27.5 -65.5t-66.5 -28.5t-66.5 28.5t-27.5 65.5z" />
<glyph unicode="@" horiz-adv-x="1466" d="M109 444q0 118 23 221t73 191.5t124 151.5t182 99t241 36q303 0 466.5 -171t163.5 -489q0 -86 -13 -157.5t-40.5 -131.5t-77 -94t-116.5 -34q-75 0 -131 39t-68 94q-59 -61 -113.5 -88t-138.5 -27q-114 0 -185 53.5t-71 169.5q0 55 18.5 95.5t51.5 66.5t84 42t110 22 t137 6h89v39q0 90 -48.5 132t-152.5 42q-58 0 -99 -13t-62.5 -26t-33.5 -13q-18 0 -30.5 20t-12.5 38q0 41 82 70.5t176 29.5q135 0 213 -68.5t78 -193.5v-340q6 -44 40 -73t75 -29t69.5 29.5t42.5 79.5t19.5 99.5t5.5 106.5q0 276 -133 424.5t-399 148.5 q-119 0 -212.5 -32.5t-154 -87.5t-100 -132.5t-56 -162t-16.5 -181.5q0 -115 25 -211.5t78.5 -177t149 -126.5t224.5 -46q78 0 141 16t99.5 32t48.5 16q18 0 30.5 -15.5t12.5 -29.5q0 -42 -112.5 -78.5t-233.5 -36.5q-90 0 -171.5 24t-153.5 76t-124.5 127.5t-83 185 t-30.5 242.5zM543 307q0 -67 42.5 -100t112.5 -33q97 0 160.5 53t63.5 115v113h-84q-56 0 -96.5 -3t-80 -12t-64 -25t-39.5 -43t-15 -65z" />
<glyph unicode="A" horiz-adv-x="1105" d="M43 57q0 11 2 15l428 1390q14 47 80 47q29 0 52 -12.5t30 -34.5l426 -1390q0 -2 1 -6.5t1 -6.5q0 -24 -26.5 -41.5t-55.5 -17.5q-40 0 -51 35l-94 315h-568l-94 -315q-8 -35 -53 -35q-29 0 -53.5 16t-24.5 41zM303 467h498l-248 825z" />
<glyph unicode="B" horiz-adv-x="1101" d="M156 51v1395q0 25 18 38t43 13h336q74 0 132 -8t113.5 -31.5t92 -61t58.5 -100.5t22 -147q0 -126 -47 -214.5t-127 -123.5q102 -42 156.5 -123t54.5 -229v-37q0 -113 -31 -196.5t-87.5 -131.5t-128 -71t-159.5 -23h-385q-28 0 -44.5 15t-16.5 36zM289 125h297 q138 0 212 74.5t74 228.5v35q0 154 -73 222.5t-213 68.5h-297v-629zM289 870h268q144 0 211.5 61t67.5 204q0 132 -74.5 184.5t-212.5 52.5h-260v-502z" />
<glyph unicode="C" horiz-adv-x="1071" d="M139 426v635q0 115 34 201t94.5 136.5t135.5 74.5t166 24q194 0 308 -99t114 -243q0 -49 -15 -65.5t-52 -16.5q-64 0 -68 51q-1 31 -7.5 60t-25.5 65t-48.5 61.5t-82.5 43.5t-123 18q-295 0 -295 -311v-635q0 -313 304 -313q51 0 92 9.5t68 23t48 36.5t32.5 42t20 48.5 t11.5 47t6 45.5q6 53 68 53q37 0 52 -17.5t15 -66.5q0 -145 -116 -245.5t-312 -100.5q-71 0 -133 14.5t-116 48t-92.5 83.5t-60.5 124.5t-22 167.5z" />
<glyph unicode="D" horiz-adv-x="1146" d="M156 51v1397q0 21 17 35t44 14h363q93 0 168.5 -24t135 -74.5t92 -136.5t32.5 -201v-623q0 -116 -32.5 -202.5t-92 -137t-135 -74.5t-168.5 -24h-363q-27 0 -44 15t-17 36zM291 125h289q140 0 216 78.5t76 234.5v623q0 156 -76 233.5t-216 77.5h-289v-1247z" />
<glyph unicode="E" horiz-adv-x="1040" d="M156 53v1393q0 25 18 38t43 13h729q26 0 38.5 -17.5t12.5 -41.5q0 -28 -13.5 -47t-37.5 -19h-655v-563h321q24 0 38 -17.5t14 -43.5q0 -23 -13 -39.5t-39 -16.5h-321v-567h655q24 0 37.5 -19t13.5 -45q0 -25 -12.5 -43t-38.5 -18h-729q-25 0 -43 14t-18 39z" />
<glyph unicode="F" horiz-adv-x="1011" d="M156 51v1395q0 25 18 38t43 13h725q25 0 38 -17.5t13 -41.5q0 -28 -13.5 -47t-37.5 -19h-651v-563h323q23 0 36.5 -17.5t13.5 -43.5q0 -23 -13 -39.5t-37 -16.5h-323v-641q0 -25 -20.5 -38t-47.5 -13q-28 0 -47.5 13t-19.5 38z" />
<glyph unicode="G" horiz-adv-x="1107" d="M139 426v635q0 115 32.5 201t91 136.5t133.5 74.5t167 24q194 0 311 -99t117 -255q0 -70 -67 -70q-65 0 -68 51q-14 120 -86.5 184t-204.5 64q-140 0 -215.5 -77.5t-75.5 -233.5v-635q0 -157 75.5 -235t215.5 -78t215.5 78t75.5 235v244h-274q-22 0 -36 17.5t-14 41.5 q0 23 14 40t36 17h360q24 0 36.5 -15t12.5 -38v-307q0 -116 -32.5 -202.5t-91 -137t-134 -74.5t-168.5 -24t-168.5 24t-134 74.5t-91 137t-32.5 202.5z" />
<glyph unicode="H" horiz-adv-x="1173" d="M156 53v1395q0 25 19 37t48 12q28 0 48 -12.5t20 -36.5v-612h592v612q0 25 19 37t48 12q28 0 48 -12.5t20 -36.5v-1395q0 -25 -20.5 -39t-47.5 -14q-28 0 -47.5 14t-19.5 39v666h-592v-666q0 -25 -20.5 -39t-47.5 -14q-28 0 -47.5 14t-19.5 39z" />
<glyph unicode="I" horiz-adv-x="446" d="M156 53v1395q0 25 19 37t48 12q28 0 48 -12.5t20 -36.5v-1395q0 -25 -20.5 -39t-47.5 -14q-28 0 -47.5 14t-19.5 39z" />
<glyph unicode="J" horiz-adv-x="1048" d="M47 348q0 38 16.5 54t49.5 16q29 0 49 -13t20 -40q0 -116 79 -184t212 -68q140 0 215.5 78t75.5 235v946h-289q-24 0 -37.5 19t-13.5 47q0 24 13 41.5t38 17.5h361q27 0 45 -13t18 -38v-1020q0 -116 -32 -202.5t-91 -137t-133 -74.5t-166 -24q-194 0 -312 100.5 t-118 259.5z" />
<glyph unicode="K" horiz-adv-x="1069" d="M156 53v1395q0 25 19 37t48 12q28 0 48 -12.5t20 -36.5v-725l592 754q14 20 43 20q25 0 49 -22t24 -48q0 -17 -10 -30l-440 -547l504 -758q8 -16 8 -26q0 -27 -24 -48.5t-54 -21.5q-29 0 -51 31l-473 710l-168 -213v-471q0 -25 -20.5 -39t-47.5 -14q-28 0 -47.5 14 t-19.5 39z" />
<glyph unicode="L" horiz-adv-x="948" d="M156 53v1395q0 25 19 37t48 12q28 0 48 -12.5t20 -36.5v-1323h583q22 0 34 -18.5t12 -43.5q0 -27 -12 -45t-34 -18h-657q-25 0 -43 14t-18 39z" />
<glyph unicode="M" horiz-adv-x="1368" d="M156 53v1379q0 65 67 65q59 0 109 -94l352 -680l352 680q50 94 109 94q67 0 67 -65v-1379q0 -25 -19.5 -39t-47.5 -14q-27 0 -47.5 14t-20.5 39v1151l-340 -643q-22 -43 -55 -43q-31 0 -53 43l-338 649v-1157q0 -25 -20.5 -39t-47.5 -14q-28 0 -47.5 14t-19.5 39z" />
<glyph unicode="N" horiz-adv-x="1173" d="M156 53v1393q0 26 19 38.5t48 12.5q34 0 58.5 -24.5t48.5 -69.5l553 -1090v1135q0 25 19 37t48 12q28 0 48 -12.5t20 -36.5v-1395q0 -25 -20.5 -39t-47.5 -14q-52 0 -90 78l-569 1108v-1133q0 -25 -20.5 -39t-47.5 -14q-28 0 -47.5 14t-19.5 39z" />
<glyph unicode="O" horiz-adv-x="1130" d="M139 426v635q0 116 32.5 201.5t91 136t134 74.5t168.5 24t168.5 -24t134 -74.5t91 -136t32.5 -201.5v-635q0 -116 -32.5 -202.5t-91 -137t-134 -74.5t-168.5 -24t-168.5 24t-134 74.5t-91 137t-32.5 202.5zM274 426q0 -158 75.5 -235.5t215.5 -77.5t215.5 77.5 t75.5 235.5v635q0 156 -75.5 233.5t-215.5 77.5t-215.5 -77.5t-75.5 -233.5v-635z" />
<glyph unicode="P" horiz-adv-x="1079" d="M156 53v1395q0 20 15.5 34t41.5 15h377q92 0 166.5 -24t133 -74t90.5 -135t32 -201v-21q0 -116 -32.5 -201.5t-91 -136t-134 -74.5t-168.5 -24h-295v-553q0 -25 -20.5 -39t-47.5 -14q-28 0 -47.5 14t-19.5 39zM291 723h295q140 0 215.5 78t75.5 235v25q0 156 -75.5 233.5 t-215.5 77.5h-295v-649z" />
<glyph unicode="Q" horiz-adv-x="1130" d="M139 426v635q0 116 32.5 201.5t91 136t134 74.5t168.5 24t168.5 -24t134 -74.5t91 -136t32.5 -201.5v-635q0 -212 -101 -317.5t-272 -118.5v-162q0 -25 -15 -38t-36 -13q-22 0 -37.5 13t-15.5 38v162q-173 13 -274 118t-101 318zM274 426q0 -142 62 -218.5t178 -88.5v151 q0 25 15.5 37t37.5 12q21 0 36 -12.5t15 -36.5v-151q238 29 238 307v635q0 156 -75.5 233.5t-215.5 77.5t-215.5 -77.5t-75.5 -233.5v-635z" />
<glyph unicode="R" horiz-adv-x="1083" d="M156 53v1395q0 20 14 34t37 15h362q95 0 171.5 -20.5t139.5 -65.5t97.5 -125.5t34.5 -191.5q0 -179 -87 -275t-233 -121l316 -606q8 -11 8 -26q0 -26 -24.5 -48t-53.5 -22q-37 0 -72 72l-315 614h-260v-629q0 -25 -20.5 -39t-47.5 -14q-28 0 -47.5 14t-19.5 39zM291 799 h278q144 0 226 69.5t82 218.5q0 147 -82 216t-226 69h-278v-573z" />
<glyph unicode="S" horiz-adv-x="1011" d="M74 207q0 26 19 51t42 25q14 0 31.5 -17.5t41.5 -42.5t57.5 -50t91 -42.5t128.5 -17.5q145 0 225.5 72t80.5 210q0 73 -23.5 128.5t-62.5 90.5t-90 62t-107.5 48l-113 42t-107.5 51t-90 69t-62.5 100.5t-23.5 141.5q0 86 27.5 153t70.5 107.5t102 67t115.5 36t118.5 9.5 q79 0 157 -15.5t132.5 -45.5t54.5 -64q0 -24 -17.5 -50t-42.5 -26q-12 0 -36.5 12t-53 27t-82 27t-114.5 12t-111.5 -12t-93.5 -38t-67.5 -73.5t-24.5 -113.5q0 -61 23.5 -106.5t62.5 -74.5t90 -52t107.5 -43t113 -43t107.5 -57t90 -79.5t62.5 -116t23.5 -161.5 q0 -210 -117 -316t-315 -106q-93 0 -175.5 24t-134 59t-81 72t-29.5 66z" />
<glyph unicode="T" horiz-adv-x="985" d="M31 1434q0 26 13 44.5t38 18.5h821q25 0 38 -18t13 -43q0 -27 -13 -46.5t-38 -19.5h-342v-1317q0 -25 -20 -39t-47 -14q-28 0 -48 14t-20 39v1317h-344q-24 0 -37.5 19t-13.5 45z" />
<glyph unicode="U" horiz-adv-x="1159" d="M150 426v1022q0 24 19.5 36.5t47.5 12.5q29 0 48.5 -12t19.5 -37v-1022q0 -157 77 -235t218 -78t217.5 78t76.5 235v1022q0 25 19.5 37t48.5 12q28 0 48 -12.5t20 -36.5v-1022q0 -116 -33 -202.5t-92.5 -137t-135.5 -74.5t-169 -24q-75 0 -138 14.5t-117.5 48t-93 83.5 t-60 124t-21.5 168z" />
<glyph unicode="V" horiz-adv-x="1101" d="M41 1440q0 25 24.5 41t53.5 16q45 0 53 -35l379 -1257l377 1257q11 35 51 35q29 0 55.5 -17.5t26.5 -41.5q0 -2 -1 -6.5t-1 -6.5l-426 -1388q-7 -24 -30 -36.5t-52 -12.5q-66 0 -80 49l-428 1388q-2 4 -2 15z" />
<glyph unicode="W" horiz-adv-x="1611" d="M45 1442q0 24 24.5 39.5t53.5 15.5q44 0 53 -35l354 -1257l205 764q11 47 72 47q57 0 70 -47l204 -764l355 1257q9 35 53 35q29 0 53.5 -15.5t24.5 -39.5q0 -11 -2 -17l-402 -1388q-7 -24 -30 -36.5t-52 -12.5t-51.5 12t-28.5 37l-194 723l-195 -723q-6 -24 -28.5 -36.5 t-51.5 -12.5q-67 0 -81 49l-404 1388q-2 6 -2 17z" />
<glyph unicode="X" horiz-adv-x="991" d="M49 63q0 17 8 33l353 654l-347 649q-12 21 -12 43q0 25 24 42t56 17q22 0 38 -18.5t32 -50.5l295 -564l295 564q11 21 18 33t21.5 24t29.5 12q32 0 56 -17t24 -42q0 -22 -12 -43l-348 -649l354 -654q8 -16 8 -33q0 -27 -25.5 -47t-54.5 -20q-14 0 -27 11.5t-20 22.5 t-16 31l-303 574l-303 -574q-31 -65 -64 -65q-29 0 -54.5 20t-25.5 47z" />
<glyph unicode="Y" horiz-adv-x="1087" d="M39 1440q0 25 23.5 41t50.5 16q33 0 53 -41l377 -747l379 747q20 41 53 41q27 0 50.5 -16t23.5 -41q0 -16 -9 -37l-426 -813q-4 -12 -4 -17v-520q0 -25 -19.5 -39t-47.5 -14q-27 0 -47.5 14t-20.5 39v520q0 11 -2 17l-424 813q-10 17 -10 37z" />
<glyph unicode="Z" horiz-adv-x="991" d="M49 47q0 23 12 47l682 1278h-618q-24 0 -37.5 19t-13.5 45q0 25 13 43t38 18h743q25 0 38.5 -12t13.5 -31q0 -22 -17 -53l-680 -1276h670q24 0 37.5 -19t13.5 -43q0 -26 -13 -44.5t-38 -18.5h-795q-23 0 -36 13t-13 34z" />
<glyph unicode="[" horiz-adv-x="620" d="M139 8v1514q0 23 18 37t44 14h329q22 0 37 -18.5t15 -41.5q0 -27 -14.5 -45t-37.5 -18h-256v-1370h256q23 0 37.5 -18.5t14.5 -43.5q0 -24 -15 -42.5t-37 -18.5h-329q-25 0 -43.5 13.5t-18.5 37.5z" />
<glyph unicode="\" horiz-adv-x="708" d="M47 1489q0 24 16.5 39.5t40.5 15.5q35 0 46 -28l509 -1448q3 -9 3 -17q0 -21 -17 -36t-39 -15q-38 0 -49 35l-508 1435q-2 6 -2 19z" />
<glyph unicode="]" horiz-adv-x="620" d="M39 18q0 25 14 43.5t35 18.5h258v1370h-258q-21 0 -35 18t-14 45q0 23 13.5 41.5t35.5 18.5h330q26 0 44.5 -14t18.5 -37v-1514q0 -23 -19 -37t-44 -14h-330q-22 0 -35.5 18t-13.5 43z" />
<glyph unicode="^" horiz-adv-x="548" d="M0 1266q0 30 27 45l213 114q18 11 34 11q17 0 35 -11l213 -114q27 -12 27 -47q0 -20 -12 -35t-29 -15l-21 7l-213 112l-213 -114q-1 -1 -8 -4t-10 -3q-17 0 -30 16t-13 38z" />
<glyph unicode="_" horiz-adv-x="688" d="M-35 -61q0 27 14 44t37 17h656q21 0 36 -17.5t15 -43.5t-15 -42t-36 -16h-656q-23 0 -37 16t-14 42z" />
<glyph unicode="`" horiz-adv-x="317" d="M0 1378q0 22 14 40t35 18q10 0 19 -6l227 -125q22 -11 22 -37q0 -22 -16 -40t-37 -18q-10 0 -20 7l-217 116q-27 12 -27 45z" />
<glyph unicode="a" horiz-adv-x="897" d="M61 256q0 66 23 115t63 80.5t101 51t131 27t160 7.5h104v49q0 52 -13.5 99.5t-41 88.5t-76 65.5t-111.5 24.5q-60 0 -107 -15t-74 -29.5t-38 -14.5q-24 0 -38.5 23t-14.5 49q0 39 88.5 71.5t188.5 32.5q99 0 173 -32.5t115.5 -89t61.5 -125t20 -148.5v-533q0 -23 -18 -38 t-47 -15q-26 0 -44 15t-18 38v90q-138 -157 -309 -157q-123 0 -201 69t-78 201zM195 268q0 -85 49 -127.5t129 -42.5q96 0 183 72t87 143v131h-86q-53 0 -93 -2t-84 -8t-75 -18.5t-57.5 -31.5t-39.5 -48.5t-13 -67.5z" />
<glyph unicode="b" horiz-adv-x="991" d="M129 53v1460q0 22 19 36t47 14q29 0 48 -14t19 -36v-688q37 67 107.5 111.5t165.5 44.5q151 0 258.5 -112.5t107.5 -270.5v-223q0 -153 -109 -271t-253 -118q-92 0 -169.5 45.5t-111.5 111.5v-90q0 -21 -18.5 -37t-44.5 -16q-27 0 -46.5 16t-19.5 37zM262 311 q0 -55 77.5 -128.5t174.5 -73.5q101 0 177.5 81.5t76.5 184.5v223q0 100 -76 180t-180 80q-99 0 -174.5 -71.5t-75.5 -188.5v-287z" />
<glyph unicode="c" horiz-adv-x="841" d="M94 375v219q0 172 100 279.5t295 107.5q122 0 205.5 -43.5t83.5 -89.5q0 -23 -17.5 -44.5t-41.5 -21.5q-12 0 -30.5 12t-39 26t-61.5 26t-92 12q-132 0 -200.5 -69.5t-68.5 -194.5v-219q0 -126 69 -196t202 -70q54 0 96.5 12t63 26.5t40 26.5t31.5 12q27 0 44.5 -20 t17.5 -45q0 -46 -86.5 -90.5t-212.5 -44.5q-196 0 -297 107t-101 282z" />
<glyph unicode="d" horiz-adv-x="991" d="M92 375v223q0 158 108 270.5t259 112.5q95 0 164.5 -45t105.5 -111v688q0 22 20 36t50 14q28 0 45.5 -14t17.5 -36v-1460q0 -21 -18 -37t-45 -16q-26 0 -45 16t-19 37v90q-36 -66 -112.5 -111.5t-167.5 -45.5q-145 0 -254 118t-109 271zM225 375q0 -103 76.5 -184.5 t177.5 -81.5q97 0 173.5 73.5t76.5 128.5v287q0 117 -75 188.5t-173 71.5q-104 0 -180 -80t-76 -180v-223z" />
<glyph unicode="e" horiz-adv-x="937" d="M92 375v229q0 154 115 265.5t276 111.5q156 0 269.5 -107t113.5 -266q0 -46 -10.5 -77.5t-25.5 -48.5t-41.5 -26t-47 -10.5t-53.5 -1.5h-463v-75q0 -121 87.5 -194t224.5 -73q55 0 100 13t67 28t43 28t35 13q23 0 40.5 -21t17.5 -42q0 -43 -88.5 -89t-219.5 -46 q-194 0 -317 107.5t-123 281.5zM225 543h410q62 0 82 13.5t20 55.5q0 102 -73 180t-183 78q-106 0 -181 -73t-75 -176v-78z" />
<glyph unicode="f" horiz-adv-x="624" d="M129 51v1135q0 155 108.5 266t256.5 111h51q25 0 41 -18t16 -44q0 -24 -16 -41.5t-41 -17.5h-35q-104 0 -175 -73t-73 -173v-227h293q21 0 34 -16.5t13 -37.5q0 -24 -13 -40.5t-34 -16.5h-293v-807q0 -23 -20 -37t-49 -14q-27 0 -45.5 14t-18.5 37z" />
<glyph unicode="g" horiz-adv-x="925" d="M51 -203q0 82 49 137.5t125 85.5q-54 19 -83 51.5t-29 90.5q0 53 25.5 86.5t76.5 60.5q-113 93 -113 258v78q0 149 97 242.5t256 93.5q143 0 239 -86q30 60 70 94.5t76 34.5q29 0 45 -16t16 -37q0 -18 -10 -30t-25 -15q-70 -13 -114 -88q57 -75 57 -193v-78 q0 -147 -100 -243.5t-256 -96.5q-86 0 -158 35q-64 -33 -64 -80q0 -37 35 -58t91.5 -30t124 -15.5t135.5 -20.5t124.5 -38.5t91.5 -76t35 -127.5q0 -141 -110 -216t-291 -75q-184 0 -300 73.5t-116 198.5zM180 -190q0 -84 77 -135.5t208 -51.5q128 0 201 51t73 138 q0 41 -20 71.5t-47.5 47t-73.5 28.5t-79.5 16t-85 9t-71.5 8q-182 -59 -182 -182zM231 569q0 -105 61 -173t165 -68q101 0 161 67t60 172v78q0 103 -60 169.5t-163 66.5t-163.5 -66.5t-60.5 -169.5v-76z" />
<glyph unicode="h" d="M129 53v1460q0 22 19 36t47 14t47.5 -14t19.5 -36v-688q36 66 105.5 111t164.5 45q148 0 255.5 -112.5t107.5 -270.5v-545q0 -25 -20 -39t-48 -14q-25 0 -45 14t-20 39v545q0 100 -76 180t-178 80q-97 0 -171.5 -71.5t-74.5 -188.5v-545q0 -21 -20 -37t-47 -16t-46.5 16 t-19.5 37z" />
<glyph unicode="i" horiz-adv-x="391" d="M102 1341q0 34 27.5 59t65.5 25q36 0 62 -25t26 -59t-26 -60t-62 -26q-38 0 -65.5 26t-27.5 60zM129 53v867q0 21 19 35t47 14t47.5 -14t19.5 -35v-867q0 -21 -20 -37t-47 -16t-46.5 16t-19.5 37z" />
<glyph unicode="j" horiz-adv-x="391" d="M-76 -416q0 27 16.5 44.5t41.5 17.5q38 0 65.5 13.5t43 35t24.5 58t11.5 72t2.5 87.5v1008q0 22 18.5 35.5t47.5 13.5q28 0 47.5 -14t19.5 -35v-1008q0 -118 -26 -202t-87.5 -134.5t-156.5 -50.5q-34 0 -51 17.5t-17 41.5zM102 1341q0 34 27.5 59t65.5 25q36 0 62 -25 t26 -59t-26 -60t-62 -26q-38 0 -65.5 26t-27.5 60z" />
<glyph unicode="k" horiz-adv-x="933" d="M129 53v1460q0 22 19 36t47 14q29 0 48 -14t19 -36v-997l500 445q20 12 31 12q25 0 46 -19t21 -45q0 -25 -14 -37l-301 -264l354 -518q8 -16 8 -29q0 -24 -22.5 -45.5t-48.5 -21.5t-41 24l-344 506l-189 -166v-305q0 -21 -19.5 -37t-47.5 -16q-27 0 -46.5 16t-19.5 37z " />
<glyph unicode="l" horiz-adv-x="423" d="M145 53v1460q0 22 19 36t47 14q29 0 48.5 -14t19.5 -36v-1460q0 -21 -19.5 -37t-48.5 -16q-27 0 -46.5 16t-19.5 37z" />
<glyph unicode="m" horiz-adv-x="1597" d="M129 53v867q0 21 19 35t47 14q27 0 45 -14t18 -35v-95q38 67 108 111.5t164 44.5q99 0 176 -56t115 -149q52 101 135.5 153t176.5 52q67 0 128.5 -26t109.5 -73.5t77 -121t29 -162.5v-545q0 -21 -19.5 -37t-48.5 -16q-26 0 -46 16.5t-20 36.5v545q0 121 -70.5 190.5 t-162.5 69.5q-94 0 -167 -70.5t-73 -181.5v-555q0 -26 -19.5 -38.5t-47.5 -12.5q-27 0 -46.5 12.5t-19.5 38.5v553q0 109 -68 181.5t-165 72.5q-96 0 -169 -71t-73 -189v-545q0 -21 -20 -37t-47 -16t-46.5 16t-19.5 37z" />
<glyph unicode="n" d="M129 53v867q0 22 18.5 35.5t47.5 13.5q25 0 43 -14t18 -35v-95q36 66 107 111t167 45q148 0 256.5 -112.5t108.5 -270.5v-545q0 -25 -20.5 -39t-47.5 -14q-25 0 -45 14t-20 39v545q0 100 -76 180t-180 80q-97 0 -170.5 -71.5t-73.5 -188.5v-545q0 -21 -20 -37t-47 -16 q-28 0 -47 16t-19 37z" />
<glyph unicode="o" horiz-adv-x="958" d="M90 375v223q0 155 114 269t273 114q158 0 274.5 -113t116.5 -270v-223q0 -153 -117.5 -271t-273.5 -118q-155 0 -271 117.5t-116 271.5zM223 375q0 -105 75 -185.5t179 -80.5q106 0 182 80.5t76 185.5v223q0 101 -76.5 180.5t-181.5 79.5t-179.5 -79.5t-74.5 -180.5v-223 z" />
<glyph unicode="p" horiz-adv-x="991" d="M129 -424v1344q0 21 19 35t47 14q27 0 45 -14t18 -35v-95q37 66 108 111t166 45q152 0 260.5 -112.5t108.5 -270.5v-223q0 -153 -109 -271t-253 -118q-90 0 -165.5 45.5t-111.5 111.5v-567q0 -20 -19.5 -35.5t-47.5 -15.5q-27 0 -46.5 16t-19.5 35zM262 311 q0 -24 19.5 -57.5t51.5 -66t81 -55.5t100 -23q100 0 177 82t77 184v223q0 100 -77 180t-181 80q-98 0 -173 -71.5t-75 -188.5v-287z" />
<glyph unicode="q" horiz-adv-x="991" d="M92 375v223q0 158 108.5 270.5t260.5 112.5q95 0 166 -45t108 -111v95q0 22 18 35.5t46 13.5t45.5 -13.5t17.5 -35.5v-1344q0 -20 -18 -35.5t-45 -15.5q-28 0 -49 16t-21 35v567q-34 -66 -109.5 -111.5t-164.5 -45.5q-145 0 -254 118t-109 271zM225 375 q0 -103 76.5 -184.5t177.5 -81.5q97 0 173.5 73.5t76.5 128.5v287q0 117 -75 188.5t-173 71.5q-104 0 -180 -80t-76 -180v-223z" />
<glyph unicode="r" horiz-adv-x="677" d="M129 53v867q0 21 19 35t47 14q27 0 45 -14t18 -35v-101q37 68 109 115t165 47h72q22 0 37.5 -18t15.5 -43t-15.5 -43.5t-37.5 -18.5h-72q-107 0 -188.5 -83t-81.5 -216v-506q0 -21 -19.5 -37t-47.5 -16q-27 0 -46.5 16t-19.5 37z" />
<glyph unicode="s" horiz-adv-x="788" d="M68 133q0 22 14 42t33 20q14 0 36 -15t46.5 -33.5t74.5 -33.5t113 -15q110 0 160.5 41t50.5 105q0 55 -28 92.5t-72.5 58t-98.5 36.5t-108 34.5t-98.5 44.5t-72.5 74.5t-28 117.5q0 51 18.5 99t55.5 89t101.5 66t148.5 25q101 0 187.5 -31.5t86.5 -68.5q0 -21 -16 -45.5 t-39 -24.5q-11 0 -41 14.5t-76.5 28.5t-99.5 14q-104 0 -154.5 -49t-50.5 -110q0 -41 22 -71t57.5 -46.5t81 -32t93.5 -27.5t93.5 -34.5t81 -51t57.5 -79t22 -117.5q0 -122 -87 -193t-243 -71q-135 0 -228 48t-93 99z" />
<glyph unicode="t" horiz-adv-x="608" d="M125 301v1079q0 21 20.5 35.5t44.5 14.5q26 0 47 -14.5t21 -35.5v-411h264q20 0 33.5 -17t13.5 -39t-13.5 -38.5t-33.5 -16.5h-264v-557q0 -100 42.5 -140t148.5 -40h57q27 0 44 -18t17 -42q0 -25 -17 -43t-44 -18h-57q-161 0 -242.5 73t-81.5 228z" />
<glyph unicode="u" d="M119 371v547q0 20 19.5 35.5t47.5 15.5q26 0 46 -16t20 -35v-547q0 -102 75.5 -182t180.5 -80q104 0 180 79.5t76 182.5v549q0 20 19.5 34.5t47.5 14.5t47 -14.5t19 -34.5v-549q0 -154 -115.5 -269.5t-273.5 -115.5q-105 0 -195 53.5t-142 142.5t-52 189z" />
<glyph unicode="v" horiz-adv-x="860" d="M31 911q0 25 26 43.5t54 18.5q37 0 49 -31l270 -737l270 729q5 13 9 20t14 13t25 6q26 0 53.5 -18.5t27.5 -41.5q0 -16 -8 -32l-329 -865q-13 -32 -62 -32q-50 0 -61 32l-330 865q-8 12 -8 30z" />
<glyph unicode="w" horiz-adv-x="1366" d="M31 913q0 24 25.5 42t54.5 18q16 0 29.5 -8.5t17.5 -22.5l262 -729l211 666q10 34 53 34t53 -34l203 -674l268 737q3 13 16.5 22t28.5 9q29 0 54.5 -17t25.5 -43q0 -18 -8 -30l-319 -867q-10 -32 -54 -32q-40 0 -55 30l-213 666l-211 -655q-11 -41 -59 -41q-44 0 -56 41 l-319 858q-8 16 -8 30z" />
<glyph unicode="x" horiz-adv-x="839" d="M51 51q0 13 8 29l273 409l-266 398q-11 22 -11 26q0 24 27.5 46t54.5 22q29 0 41 -20l242 -375l244 375q11 20 38 20q26 0 54 -21.5t28 -46.5q0 -9 -10 -26l-268 -398l274 -409q8 -12 8 -29q0 -23 -25.5 -44t-53.5 -21t-39 20l-250 383l-248 -383q-14 -20 -43 -20 q-25 0 -51.5 20.5t-26.5 44.5z" />
<glyph unicode="y" horiz-adv-x="860" d="M29 918q0 25 27 44t55 19q38 0 47 -29l280 -753l264 753q12 29 46 29q27 0 54 -19.5t27 -46.5q0 -12 -4 -16l-317 -860q-76 -205 -123 -291q-122 -223 -293 -223q-61 0 -61 59q0 62 41 62q93 0 175 114t122 281l-334 858q-6 9 -6 19z" />
<glyph unicode="z" horiz-adv-x="821" d="M49 53q0 22 21 51l501 748h-452q-20 0 -34.5 17t-14.5 40q0 25 14 42.5t35 17.5h579q21 0 36.5 -15t15.5 -39q0 -25 -17 -49l-504 -747h496q20 0 34.5 -18t14.5 -44q0 -24 -14 -40.5t-35 -16.5h-621q-25 0 -40 16t-15 37z" />
<glyph unicode="{" horiz-adv-x="634" d="M61 788q0 28 19 41.5t42.5 14.5t42.5 11.5t19 33.5q0 17 -19.5 165t-19.5 183q0 134 114 235t267 101q34 0 52 -18t18 -44q0 -23 -14 -41t-35 -18q-107 0 -186.5 -68.5t-79.5 -162.5q0 -32 19 -178t19 -164q0 -33 -25 -60.5t-48 -32.5q24 -4 48.5 -29.5t24.5 -60.5 q0 -21 -19 -200t-19 -217q0 -55 28.5 -96.5t72.5 -62.5t85.5 -30.5t79.5 -9.5q26 0 37.5 -18.5t11.5 -41.5q0 -30 -19.5 -45.5t-52.5 -15.5q-157 0 -268 88t-111 225q0 37 19.5 218t19.5 198q0 23 -19 33t-42.5 10.5t-42.5 13.5t-19 43z" />
<glyph unicode="|" horiz-adv-x="413" d="M139 8v1516q0 20 19.5 34.5t48.5 14.5q27 0 47 -14.5t20 -34.5v-1516q0 -20 -20.5 -35.5t-46.5 -15.5q-29 0 -48.5 15t-19.5 36z" />
<glyph unicode="}" horiz-adv-x="634" d="M39 20q0 23 11.5 41.5t37.5 18.5q38 0 79.5 9.5t85.5 30.5t72.5 62.5t28.5 96.5q0 38 -19.5 217t-19.5 200q0 35 25 60.5t49 29.5q-23 6 -48.5 33t-25.5 60q0 18 19.5 164t19.5 178q0 94 -79.5 162.5t-186.5 68.5q-21 0 -35 18t-14 41q0 26 18 44t52 18q153 0 266.5 -101 t113.5 -235q0 -35 -19 -183t-19 -165q0 -23 19 -33.5t42 -11.5t42 -14.5t19 -41.5q0 -30 -19 -43t-42 -13.5t-42 -10.5t-19 -33q0 -17 19 -198t19 -218q0 -137 -110.5 -225t-267.5 -88q-33 0 -52.5 15.5t-19.5 45.5z" />
<glyph unicode="~" horiz-adv-x="821" d="M94 498q0 52 60.5 84t119.5 32q53 0 135.5 -34.5t135.5 -34.5q31 0 55.5 9t36.5 20.5t25.5 20.5t25.5 9q19 0 30 -15.5t11 -31.5q0 -56 -57.5 -86.5t-114.5 -30.5q-55 0 -135.5 36t-136.5 36q-38 0 -68.5 -16.5t-50.5 -33t-33 -16.5q-19 0 -29 16t-10 36z" />
<glyph unicode="&#xa2;" horiz-adv-x="845" d="M72 733v39q0 154 79.5 257.5t237.5 125.5v221q0 19 14.5 32t34.5 13t35.5 -13t15.5 -32v-219q112 -3 193.5 -42t81.5 -87q0 -24 -17.5 -43.5t-41.5 -19.5q-12 0 -36.5 17.5t-70.5 35.5t-109 20v-571q50 1 90 13.5t59 26t37 25t30 11.5q26 0 44.5 -20t18.5 -44 q0 -50 -85.5 -89t-193.5 -44v-217q0 -19 -15.5 -33t-35.5 -14t-34.5 14t-14.5 33v221q-156 21 -236.5 124.5t-80.5 258.5zM195 733q0 -223 194 -262v563q-194 -42 -194 -262v-39z" />
<glyph unicode="&#xa3;" horiz-adv-x="997" d="M49 63q0 25 13 43.5t38 18.5h121l88 627h-155q-21 0 -34.5 15.5t-13.5 37.5q0 24 13.5 40.5t34.5 16.5h172l45 324q23 162 154 274.5t296 112.5h39q26 0 42 -18.5t16 -43.5q0 -24 -16 -42.5t-42 -18.5h-49q-118 0 -205.5 -78.5t-101.5 -185.5l-45 -324h305q21 0 32 -16.5 t11 -40.5q0 -22 -11 -37.5t-32 -15.5h-322l-90 -627h518q22 0 35 -18.5t13 -43.5q0 -26 -13 -44.5t-35 -18.5h-770q-25 0 -38 18t-13 45z" />
<glyph unicode="&#xa5;" horiz-adv-x="1034" d="M49 1442q0 22 24 40.5t52 18.5q31 0 49 -35l338 -659l352 659q18 35 47 35q27 0 50.5 -18t23.5 -41q0 -9 -4 -21l-373 -678h213q21 0 36 -16t15 -39t-15 -38t-36 -15h-243v-150h243q21 0 36 -16t15 -39q0 -24 -15 -38.5t-36 -14.5h-243v-326q0 -23 -19.5 -37t-46.5 -14 q-29 0 -48.5 14t-19.5 37v326h-233q-22 0 -35.5 14t-13.5 37q0 25 13.5 41t35.5 16h233v150h-233q-22 0 -35.5 15t-13.5 38q0 24 13.5 39.5t35.5 15.5h201l-357 678q-6 9 -6 21z" />
<glyph unicode="&#xa8;" horiz-adv-x="401" d="M0 1290q0 32 22 53t54 21q31 0 52.5 -21t21.5 -53q0 -31 -21.5 -53.5t-52.5 -22.5q-32 0 -54 22.5t-22 53.5zM252 1290q0 32 22 53t54 21t52.5 -21t20.5 -53q0 -31 -20.5 -53.5t-52.5 -22.5t-54 22.5t-22 53.5z" />
<glyph unicode="&#xa9;" horiz-adv-x="1470" d="M106 733q0 132 38.5 244.5t102.5 189.5t147.5 131.5t171 79.5t175.5 25t175.5 -25.5t168.5 -80t143 -131t99 -186.5t37 -239q0 -132 -38.5 -244.5t-102.5 -189t-147.5 -131t-171 -79.5t-175.5 -25t-175.5 25.5t-168.5 80t-143 130.5t-99 186t-37 239zM197 733 q0 -251 146.5 -411t385.5 -160t392 161t153 418q0 251 -147 411.5t-386 160.5t-391.5 -161.5t-152.5 -418.5zM522 590v323q0 126 59.5 185t155.5 59q98 0 157.5 -54.5t59.5 -139.5q0 -33 -10.5 -44.5t-36.5 -11.5q-49 0 -49 35q-6 127 -117 127q-120 0 -120 -156v-323 q0 -156 120 -156q29 0 50.5 9.5t33 21t19 33t9.5 33.5t5 34q3 35 47 35q27 0 38 -11.5t11 -41.5q0 -88 -60.5 -144.5t-158.5 -56.5q-94 0 -153.5 59t-59.5 185z" />
<glyph unicode="&#xab;" horiz-adv-x="833" d="M72 567q0 20 20 58l182 336q12 24 48 24q30 0 52.5 -21t22.5 -44q0 -11 -6 -23l-178 -330l178 -327q6 -12 6 -23q0 -24 -24 -44.5t-54 -20.5q-32 0 -45 24l-182 336q-20 36 -20 55zM424 567q0 19 20 58l183 336q12 24 47 24q30 0 53 -21t23 -44q0 -9 -7 -23l-178 -330 l178 -327q7 -14 7 -23q0 -24 -24 -44.5t-54 -20.5q-32 0 -45 24l-183 336q-20 36 -20 55z" />
<glyph unicode="&#xad;" horiz-adv-x="845" d="M106 492q0 26 14.5 43.5t37.5 17.5h532q21 0 36 -17.5t15 -43.5t-15 -42t-36 -16h-532q-23 0 -37.5 16t-14.5 42z" />
<glyph unicode="&#xae;" horiz-adv-x="1470" d="M106 733q0 132 38.5 244.5t102.5 189.5t147.5 131.5t171 79.5t175.5 25t175.5 -25.5t168.5 -80t143 -131t99 -186.5t37 -239q0 -132 -38.5 -244.5t-102.5 -189t-147.5 -131t-171 -79.5t-175.5 -25t-175.5 25.5t-168.5 80t-143 130.5t-99 186t-37 239zM197 733 q0 -251 146.5 -411t385.5 -160t392 161t153 418q0 251 -147 411.5t-386 160.5t-391.5 -161.5t-152.5 -418.5zM541 387v725q0 13 9 23t23 12h183q97 0 157 -51.5t60 -167.5q0 -178 -139 -213l135 -299q4 -12 4 -15q0 -20 -17 -35.5t-36 -15.5q-20 0 -39 39l-144 313h-102 v-315q0 -15 -13 -25t-32 -10q-20 0 -34.5 9.5t-14.5 25.5zM635 782h121q123 0 123 138q0 141 -123 141h-121v-279z" />
<glyph unicode="&#xb4;" horiz-adv-x="317" d="M0 1268q0 26 23 37l229 125q6 6 16 6q22 0 35.5 -18t13.5 -40q0 -33 -24 -45l-219 -116q-11 -7 -21 -7q-21 0 -37 18t-16 40z" />
<glyph unicode="&#xb8;" horiz-adv-x="342" d="M0 -377q0 12 10 30.5t23 18.5q1 0 37.5 -14t76.5 -14q55 0 82 22.5t27 57.5q0 76 -129 86l-78 6l53 202h82l-39 -143q98 -3 147.5 -45t49.5 -102q0 -62 -47.5 -110t-134.5 -48q-52 0 -106 14t-54 39z" />
<glyph unicode="&#xbb;" horiz-adv-x="835" d="M84 217q0 11 6 23l178 327l-178 330q-6 12 -6 23q0 23 23 44t53 21q35 0 47 -24l182 -336q3 -6 8.5 -16.5t8 -15.5t4.5 -12.5t2 -13.5t-2 -13t-4.5 -12t-8 -15t-8.5 -15l-182 -336q-11 -24 -45 -24q-29 0 -53.5 21t-24.5 44zM436 217q0 11 6 23l179 327l-179 330 q-6 12 -6 23q0 23 23 44t53 21q35 0 47 -24l182 -336q3 -6 8.5 -16.5t8 -15.5t4.5 -12.5t2 -13.5t-2 -13t-4.5 -12t-8 -15t-8.5 -15l-182 -336q-11 -24 -45 -24q-29 0 -53.5 21t-24.5 44z" />
<glyph unicode="&#xc1;" horiz-adv-x="1105" d="M43 57q0 11 2 15l428 1390q14 47 80 47q29 0 52 -12.5t30 -34.5l426 -1390q0 -2 1 -6.5t1 -6.5q0 -24 -26.5 -41.5t-55.5 -17.5q-40 0 -51 35l-94 315h-568l-94 -315q-8 -35 -53 -35q-29 0 -53.5 16t-24.5 41zM303 467h498l-248 825zM414 1788q0 26 22 37l230 125 q6 6 16 6q22 0 35.5 -18t13.5 -40q0 -33 -24 -45l-220 -116q-9 -6 -20 -6q-21 0 -37 17.5t-16 39.5z" />
<glyph unicode="&#xc9;" horiz-adv-x="1040" d="M156 53v1393q0 25 18 38t43 13h729q26 0 38.5 -17.5t12.5 -41.5q0 -28 -13.5 -47t-37.5 -19h-655v-563h321q24 0 38 -17.5t14 -43.5q0 -23 -13 -39.5t-39 -16.5h-321v-567h655q24 0 37.5 -19t13.5 -45q0 -25 -12.5 -43t-38.5 -18h-729q-25 0 -43 14t-18 39zM430 1788 q0 26 23 37l229 125q6 6 16 6q22 0 36 -18t14 -40q0 -32 -25 -45l-219 -116q-9 -6 -21 -6q-21 0 -37 17.5t-16 39.5z" />
<glyph unicode="&#xcd;" horiz-adv-x="446" d="M68 1788q0 26 22 37l229 125q6 6 17 6q22 0 35.5 -18t13.5 -40q0 -32 -25 -45l-219 -116q-9 -6 -20 -6q-21 0 -37 17.5t-16 39.5zM156 53v1395q0 25 19 37t48 12q28 0 48 -12.5t20 -36.5v-1395q0 -25 -20.5 -39t-47.5 -14q-28 0 -47.5 14t-19.5 39z" />
<glyph unicode="&#xd3;" horiz-adv-x="1130" d="M139 426v635q0 116 32.5 201.5t91 136t134 74.5t168.5 24t168.5 -24t134 -74.5t91 -136t32.5 -201.5v-635q0 -116 -32.5 -202.5t-91 -137t-134 -74.5t-168.5 -24t-168.5 24t-134 74.5t-91 137t-32.5 202.5zM274 426q0 -158 75.5 -235.5t215.5 -77.5t215.5 77.5 t75.5 235.5v635q0 156 -75.5 233.5t-215.5 77.5t-215.5 -77.5t-75.5 -233.5v-635zM430 1788q0 26 23 37l229 125q6 6 16 6q22 0 36 -18t14 -40q0 -32 -25 -45l-219 -116q-9 -6 -21 -6q-21 0 -37 17.5t-16 39.5z" />
<glyph unicode="&#xd6;" horiz-adv-x="1130" d="M139 426v635q0 116 32.5 201.5t91 136t134 74.5t168.5 24t168.5 -24t134 -74.5t91 -136t32.5 -201.5v-635q0 -116 -32.5 -202.5t-91 -137t-134 -74.5t-168.5 -24t-168.5 24t-134 74.5t-91 137t-32.5 202.5zM274 426q0 -158 75.5 -235.5t215.5 -77.5t215.5 77.5 t75.5 235.5v635q0 156 -75.5 233.5t-215.5 77.5t-215.5 -77.5t-75.5 -233.5v-635zM365 1810q0 32 21.5 53t53.5 21q31 0 52.5 -21t21.5 -53q0 -31 -21.5 -53t-52.5 -22q-32 0 -53.5 22t-21.5 53zM616 1810q0 32 22 53t54 21t53 -21t21 -53q0 -31 -21 -53t-53 -22t-54 22 t-22 53z" />
<glyph unicode="&#xda;" horiz-adv-x="1159" d="M150 426v1022q0 24 19.5 36.5t47.5 12.5q29 0 48.5 -12t19.5 -37v-1022q0 -157 77 -235t218 -78t217.5 78t76.5 235v1022q0 25 19.5 37t48.5 12q28 0 48 -12.5t20 -36.5v-1022q0 -116 -33 -202.5t-92.5 -137t-135.5 -74.5t-169 -24q-75 0 -138 14.5t-117.5 48t-93 83.5 t-60 124t-21.5 168zM434 1788q0 26 23 37l229 125q6 6 16 6q22 0 36 -18t14 -40q0 -32 -25 -45l-219 -116q-9 -6 -21 -6q-21 0 -37 17.5t-16 39.5z" />
<glyph unicode="&#xdc;" horiz-adv-x="1159" d="M150 426v1022q0 24 19.5 36.5t47.5 12.5q29 0 48.5 -12t19.5 -37v-1022q0 -157 77 -235t218 -78t217.5 78t76.5 235v1022q0 25 19.5 37t48.5 12q28 0 48 -12.5t20 -36.5v-1022q0 -116 -33 -202.5t-92.5 -137t-135.5 -74.5t-169 -24q-75 0 -138 14.5t-117.5 48t-93 83.5 t-60 124t-21.5 168zM379 1810q0 32 22 53t54 21q31 0 52 -21t21 -53q0 -31 -21 -53t-52 -22q-32 0 -54 22t-22 53zM631 1810q0 32 22 53t54 21t52.5 -21t20.5 -53q0 -31 -20.5 -53t-52.5 -22t-54 22t-22 53z" />
<glyph unicode="&#xe1;" horiz-adv-x="897" d="M61 256q0 66 23 115t63 80.5t101 51t131 27t160 7.5h104v49q0 52 -13.5 99.5t-41 88.5t-76 65.5t-111.5 24.5q-60 0 -107 -15t-74 -29.5t-38 -14.5q-24 0 -38.5 23t-14.5 49q0 39 88.5 71.5t188.5 32.5q99 0 173 -32.5t115.5 -89t61.5 -125t20 -148.5v-533q0 -23 -18 -38 t-47 -15q-26 0 -44 15t-18 38v90q-138 -157 -309 -157q-123 0 -201 69t-78 201zM195 268q0 -85 49 -127.5t129 -42.5q96 0 183 72t87 143v131h-86q-53 0 -93 -2t-84 -8t-75 -18.5t-57.5 -31.5t-39.5 -48.5t-13 -67.5zM272 1268q0 26 23 37l229 125q6 6 17 6q22 0 35.5 -18 t13.5 -40q0 -32 -25 -45l-219 -116q-11 -7 -20 -7q-21 0 -37.5 18t-16.5 40z" />
<glyph unicode="&#xe9;" horiz-adv-x="937" d="M92 375v229q0 154 115 265.5t276 111.5q156 0 269.5 -107t113.5 -266q0 -46 -10.5 -77.5t-25.5 -48.5t-41.5 -26t-47 -10.5t-53.5 -1.5h-463v-75q0 -121 87.5 -194t224.5 -73q55 0 100 13t67 28t43 28t35 13q23 0 40.5 -21t17.5 -42q0 -43 -88.5 -89t-219.5 -46 q-194 0 -317 107.5t-123 281.5zM225 543h410q62 0 82 13.5t20 55.5q0 102 -73 180t-183 78q-106 0 -181 -73t-75 -176v-78zM326 1268q0 26 22 37l230 125q6 6 16 6q22 0 35.5 -18t13.5 -40q0 -32 -25 -45l-219 -116q-11 -7 -20 -7q-21 0 -37 18t-16 40z" />
<glyph unicode="&#xed;" horiz-adv-x="391" d="M45 1268q0 26 23 37l229 125q6 6 16 6q22 0 35.5 -18t13.5 -40q0 -33 -24 -45l-219 -116q-11 -7 -21 -7q-21 0 -37 18t-16 40zM129 53v867q0 21 19 35t47 14t47.5 -14t19.5 -35v-867q0 -21 -20 -37t-47 -16t-46.5 16t-19.5 37z" />
<glyph unicode="&#xf3;" horiz-adv-x="958" d="M90 375v223q0 155 114 269t273 114q158 0 274.5 -113t116.5 -270v-223q0 -153 -117.5 -271t-273.5 -118q-155 0 -271 117.5t-116 271.5zM223 375q0 -105 75 -185.5t179 -80.5q106 0 182 80.5t76 185.5v223q0 101 -76.5 180.5t-181.5 79.5t-179.5 -79.5t-74.5 -180.5v-223 zM322 1268q0 26 22 37l229 125q6 6 17 6q22 0 35.5 -18t13.5 -40q0 -32 -25 -45l-219 -116q-11 -7 -20 -7q-21 0 -37 18t-16 40z" />
<glyph unicode="&#xf6;" horiz-adv-x="958" d="M90 375v223q0 155 114 269t273 114q158 0 274.5 -113t116.5 -270v-223q0 -153 -117.5 -271t-273.5 -118q-155 0 -271 117.5t-116 271.5zM223 375q0 -105 75 -185.5t179 -80.5q106 0 182 80.5t76 185.5v223q0 101 -76.5 180.5t-181.5 79.5t-179.5 -79.5t-74.5 -180.5v-223 zM279 1290q0 32 21.5 53t53.5 21q31 0 52.5 -21t21.5 -53q0 -31 -21.5 -53.5t-52.5 -22.5q-32 0 -53.5 22.5t-21.5 53.5zM530 1290q0 32 22 53t54 21t53 -21t21 -53q0 -31 -21 -53.5t-53 -22.5t-54 22.5t-22 53.5z" />
<glyph unicode="&#xfa;" d="M119 371v547q0 20 19.5 35.5t47.5 15.5q26 0 46 -16t20 -35v-547q0 -102 75.5 -182t180.5 -80q104 0 180 79.5t76 182.5v549q0 20 19.5 34.5t47.5 14.5t47 -14.5t19 -34.5v-549q0 -154 -115.5 -269.5t-273.5 -115.5q-105 0 -195 53.5t-142 142.5t-52 189zM356 1268 q0 26 23 37l229 125q6 6 17 6q22 0 35.5 -18t13.5 -40q0 -32 -25 -45l-219 -116q-11 -7 -20 -7q-21 0 -37.5 18t-16.5 40z" />
<glyph unicode="&#xfc;" d="M119 371v547q0 20 19.5 35.5t47.5 15.5q26 0 46 -16t20 -35v-547q0 -102 75.5 -182t180.5 -80q104 0 180 79.5t76 182.5v549q0 20 19.5 34.5t47.5 14.5t47 -14.5t19 -34.5v-549q0 -154 -115.5 -269.5t-273.5 -115.5q-105 0 -195 53.5t-142 142.5t-52 189zM307 1290 q0 32 22 53t54 21q31 0 52.5 -21t21.5 -53q0 -31 -21.5 -53.5t-52.5 -22.5q-32 0 -54 22.5t-22 53.5zM559 1290q0 32 22 53t54 21t53 -21t21 -53q0 -31 -21 -53.5t-53 -22.5t-54 22.5t-22 53.5z" />
<glyph unicode="&#x100;" horiz-adv-x="1105" d="M43 57q0 11 2 15l428 1390q14 47 80 47q29 0 52 -12.5t30 -34.5l426 -1390q0 -2 1 -6.5t1 -6.5q0 -24 -26.5 -41.5t-55.5 -17.5q-40 0 -51 35l-94 315h-568l-94 -315q-8 -35 -53 -35q-29 0 -53.5 16t-24.5 41zM281 1872q0 23 14 38t37 15h440q20 0 35.5 -15.5t15.5 -37.5 q0 -21 -16 -36t-35 -15h-440q-23 0 -37 14.5t-14 36.5zM303 467h498l-248 825z" />
<glyph unicode="&#x101;" horiz-adv-x="897" d="M61 256q0 66 23 115t63 80.5t101 51t131 27t160 7.5h104v49q0 52 -13.5 99.5t-41 88.5t-76 65.5t-111.5 24.5q-60 0 -107 -15t-74 -29.5t-38 -14.5q-24 0 -38.5 23t-14.5 49q0 39 88.5 71.5t188.5 32.5q99 0 173 -32.5t115.5 -89t61.5 -125t20 -148.5v-533q0 -23 -18 -38 t-47 -15q-26 0 -44 15t-18 38v90q-138 -157 -309 -157q-123 0 -201 69t-78 201zM166 1352q0 23 14 38t37 15h440q20 0 36 -15.5t16 -37.5q0 -21 -16.5 -36.5t-35.5 -15.5h-440q-23 0 -37 15t-14 37zM195 268q0 -85 49 -127.5t129 -42.5q96 0 183 72t87 143v131h-86 q-53 0 -93 -2t-84 -8t-75 -18.5t-57.5 -31.5t-39.5 -48.5t-13 -67.5z" />
<glyph unicode="&#x102;" horiz-adv-x="1105" d="M43 57q0 11 2 15l428 1390q14 47 80 47q29 0 52 -12.5t30 -34.5l426 -1390q0 -2 1 -6.5t1 -6.5q0 -24 -26.5 -41.5t-55.5 -17.5q-40 0 -51 35l-94 315h-568l-94 -315q-8 -35 -53 -35q-29 0 -53.5 16t-24.5 41zM303 467h498l-248 825zM313 1982h90q0 -69 44.5 -117 t105.5 -48q60 0 103.5 48t43.5 117h91q0 -96 -72.5 -167.5t-165.5 -71.5q-96 0 -168 71.5t-72 167.5z" />
<glyph unicode="&#x103;" horiz-adv-x="897" d="M61 256q0 66 23 115t63 80.5t101 51t131 27t160 7.5h104v49q0 52 -13.5 99.5t-41 88.5t-76 65.5t-111.5 24.5q-60 0 -107 -15t-74 -29.5t-38 -14.5q-24 0 -38.5 23t-14.5 49q0 39 88.5 71.5t188.5 32.5q99 0 173 -32.5t115.5 -89t61.5 -125t20 -148.5v-533q0 -23 -18 -38 t-47 -15q-26 0 -44 15t-18 38v90q-138 -157 -309 -157q-123 0 -201 69t-78 201zM195 268q0 -85 49 -127.5t129 -42.5q96 0 183 72t87 143v131h-86q-53 0 -93 -2t-84 -8t-75 -18.5t-57.5 -31.5t-39.5 -48.5t-13 -67.5zM197 1462h90q0 -70 44 -118t105 -48q60 0 104 48.5 t44 117.5h90q0 -96 -72.5 -167.5t-165.5 -71.5q-96 0 -167.5 71.5t-71.5 167.5z" />
<glyph unicode="&#x104;" horiz-adv-x="1105" d="M43 57q0 11 2 15l428 1390q14 47 80 47q29 0 52 -12.5t30 -34.5l426 -1390q0 -2 1 -6.5t1 -6.5q0 -34 -47 -53q-150 -129 -150 -254q0 -92 127 -92q19 0 30 -10t11 -27q0 -18 -11.5 -26.5t-39.5 -8.5q-83 0 -141 38t-58 116q0 150 148 285q0 1 -1 4t-1 4l-94 315h-568 l-94 -315q-8 -35 -53 -35q-29 0 -53.5 16t-24.5 41zM303 467h498l-248 825z" />
<glyph unicode="&#x105;" horiz-adv-x="897" d="M61 256q0 66 23 115t63 80.5t101 51t131 27t160 7.5h104v49q0 52 -13.5 99.5t-41 88.5t-76 65.5t-111.5 24.5q-60 0 -107 -15t-74 -29.5t-38 -14.5q-24 0 -38.5 23t-14.5 49q0 39 88.5 71.5t188.5 32.5q99 0 173 -32.5t115.5 -89t61.5 -125t20 -148.5v-533q0 -30 -31 -47 q-149 -128 -149 -254q0 -92 127 -92q19 0 30 -10t11 -27q0 -18 -11.5 -26.5t-39.5 -8.5q-83 0 -141 38t-58 116q0 150 143 283q-8 11 -8 28v90q-138 -157 -309 -157q-123 0 -201 69t-78 201zM195 268q0 -85 49 -127.5t129 -42.5q96 0 183 72t87 143v131h-86q-53 0 -93 -2 t-84 -8t-75 -18.5t-57.5 -31.5t-39.5 -48.5t-13 -67.5z" />
<glyph unicode="&#x106;" horiz-adv-x="1071" d="M139 426v635q0 115 34 201t94.5 136.5t135.5 74.5t166 24q194 0 308 -99t114 -243q0 -49 -15 -65.5t-52 -16.5q-64 0 -68 51q-1 31 -7.5 60t-25.5 65t-48.5 61.5t-82.5 43.5t-123 18q-295 0 -295 -311v-635q0 -313 304 -313q51 0 92 9.5t68 23t48 36.5t32.5 42t20 48.5 t11.5 47t6 45.5q6 53 68 53q37 0 52 -17.5t15 -66.5q0 -145 -116 -245.5t-312 -100.5q-71 0 -133 14.5t-116 48t-92.5 83.5t-60.5 124.5t-22 167.5zM420 1788q0 26 22 37l230 125q6 6 16 6q22 0 35.5 -18t13.5 -40q0 -33 -24 -45l-219 -116q-9 -6 -21 -6q-21 0 -37 17.5 t-16 39.5z" />
<glyph unicode="&#x107;" horiz-adv-x="841" d="M94 375v219q0 172 100 279.5t295 107.5q122 0 205.5 -43.5t83.5 -89.5q0 -23 -17.5 -44.5t-41.5 -21.5q-12 0 -30.5 12t-39 26t-61.5 26t-92 12q-132 0 -200.5 -69.5t-68.5 -194.5v-219q0 -126 69 -196t202 -70q54 0 96.5 12t63 26.5t40 26.5t31.5 12q27 0 44.5 -20 t17.5 -45q0 -46 -86.5 -90.5t-212.5 -44.5q-196 0 -297 107t-101 282zM295 1268q0 26 22 37l230 125q6 6 16 6q22 0 35.5 -18t13.5 -40q0 -33 -24 -45l-219 -116q-11 -7 -21 -7q-21 0 -37 18t-16 40z" />
<glyph unicode="&#x108;" horiz-adv-x="1071" d="M139 426v635q0 115 34 201t94.5 136.5t135.5 74.5t166 24q194 0 308 -99t114 -243q0 -49 -15 -65.5t-52 -16.5q-64 0 -68 51q-1 31 -7.5 60t-25.5 65t-48.5 61.5t-82.5 43.5t-123 18q-295 0 -295 -311v-635q0 -313 304 -313q51 0 92 9.5t68 23t48 36.5t32.5 42t20 48.5 t11.5 47t6 45.5q6 53 68 53q37 0 52 -17.5t15 -66.5q0 -145 -116 -245.5t-312 -100.5q-71 0 -133 14.5t-116 48t-92.5 83.5t-60.5 124.5t-22 167.5zM291 1786q0 31 26 45l213 115q17 10 35 10t35 -10l213 -115q27 -12 27 -47q0 -20 -12 -34.5t-29 -14.5q-3 0 -21 6l-213 112 l-213 -114q-2 -1 -5.5 -2.5t-6.5 -2.5t-6 -1q-17 0 -30 15.5t-13 37.5z" />
<glyph unicode="&#x109;" horiz-adv-x="841" d="M94 375v219q0 172 100 279.5t295 107.5q122 0 205.5 -43.5t83.5 -89.5q0 -23 -17.5 -44.5t-41.5 -21.5q-12 0 -30.5 12t-39 26t-61.5 26t-92 12q-132 0 -200.5 -69.5t-68.5 -194.5v-219q0 -126 69 -196t202 -70q54 0 96.5 12t63 26.5t40 26.5t31.5 12q27 0 44.5 -20 t17.5 -45q0 -46 -86.5 -90.5t-212.5 -44.5q-196 0 -297 107t-101 282zM174 1266q0 30 27 45l213 114q18 11 35 11q16 0 34 -11l213 -114q27 -12 27 -47q0 -20 -12 -35t-29 -15q-3 0 -6.5 1.5t-7.5 3t-6 2.5l-213 112l-213 -114q-1 0 -8 -3.5t-11 -3.5q-17 0 -30 16t-13 38z " />
<glyph unicode="&#x10a;" horiz-adv-x="1071" d="M139 426v635q0 115 34 201t94.5 136.5t135.5 74.5t166 24q194 0 308 -99t114 -243q0 -49 -15 -65.5t-52 -16.5q-64 0 -68 51q-1 31 -7.5 60t-25.5 65t-48.5 61.5t-82.5 43.5t-123 18q-295 0 -295 -311v-635q0 -313 304 -313q51 0 92 9.5t68 23t48 36.5t32.5 42t20 48.5 t11.5 47t6 45.5q6 53 68 53q37 0 52 -17.5t15 -66.5q0 -145 -116 -245.5t-312 -100.5q-71 0 -133 14.5t-116 48t-92.5 83.5t-60.5 124.5t-22 167.5zM492 1810q0 32 21.5 53t53.5 21q31 0 52.5 -21t21.5 -53q0 -31 -21.5 -53t-52.5 -22q-32 0 -53.5 22t-21.5 53z" />
<glyph unicode="&#x10b;" horiz-adv-x="841" d="M94 375v219q0 172 100 279.5t295 107.5q122 0 205.5 -43.5t83.5 -89.5q0 -23 -17.5 -44.5t-41.5 -21.5q-12 0 -30.5 12t-39 26t-61.5 26t-92 12q-132 0 -200.5 -69.5t-68.5 -194.5v-219q0 -126 69 -196t202 -70q54 0 96.5 12t63 26.5t40 26.5t31.5 12q27 0 44.5 -20 t17.5 -45q0 -46 -86.5 -90.5t-212.5 -44.5q-196 0 -297 107t-101 282zM371 1290q0 32 21.5 53t53.5 21q31 0 52.5 -21t21.5 -53q0 -31 -21.5 -53.5t-52.5 -22.5q-32 0 -53.5 22.5t-21.5 53.5z" />
<glyph unicode="&#x10c;" horiz-adv-x="1071" d="M139 426v635q0 115 34 201t94.5 136.5t135.5 74.5t166 24q194 0 308 -99t114 -243q0 -49 -15 -65.5t-52 -16.5q-64 0 -68 51q-1 31 -7.5 60t-25.5 65t-48.5 61.5t-82.5 43.5t-123 18q-295 0 -295 -311v-635q0 -313 304 -313q51 0 92 9.5t68 23t48 36.5t32.5 42t20 48.5 t11.5 47t6 45.5q6 53 68 53q37 0 52 -17.5t15 -66.5q0 -145 -116 -245.5t-312 -100.5q-71 0 -133 14.5t-116 48t-92.5 83.5t-60.5 124.5t-22 167.5zM289 1972q0 18 11 31.5t28 13.5q18 0 30 -12l205 -188l203 188q12 12 31 12q17 0 28 -13.5t11 -31.5q0 -25 -25 -47 l-207 -184q-24 -21 -41 -21q-20 0 -41 21l-207 184q-26 20 -26 47z" />
<glyph unicode="&#x10d;" horiz-adv-x="841" d="M94 375v219q0 172 100 279.5t295 107.5q122 0 205.5 -43.5t83.5 -89.5q0 -23 -17.5 -44.5t-41.5 -21.5q-12 0 -30.5 12t-39 26t-61.5 26t-92 12q-132 0 -200.5 -69.5t-68.5 -194.5v-219q0 -126 69 -196t202 -70q54 0 96.5 12t63 26.5t40 26.5t31.5 12q27 0 44.5 -20 t17.5 -45q0 -46 -86.5 -90.5t-212.5 -44.5q-196 0 -297 107t-101 282zM170 1452q0 18 11 31.5t28 13.5q19 0 31 -12l204 -189l203 189q12 12 31 12q17 0 28 -13.5t11 -31.5q0 -25 -25 -47l-207 -184q-25 -21 -41 -21q-20 0 -41 21l-206 184q-27 21 -27 47z" />
<glyph unicode="&#x10e;" horiz-adv-x="1146" d="M156 51v1397q0 21 17 35t44 14h363q93 0 168.5 -24t135 -74.5t92 -136.5t32.5 -201v-623q0 -116 -32.5 -202.5t-92 -137t-135 -74.5t-168.5 -24h-363q-27 0 -44 15t-17 36zM291 125h289q140 0 216 78.5t76 234.5v623q0 156 -76 233.5t-216 77.5h-289v-1247zM293 1972 q0 18 11 31.5t28 13.5q18 0 30 -12l205 -188l203 188q12 12 31 12q17 0 28 -13.5t11 -31.5q0 -25 -25 -47l-207 -184q-24 -21 -41 -21q-20 0 -41 21l-207 184q-26 20 -26 47z" />
<glyph unicode="&#x10f;" horiz-adv-x="991" d="M92 375v223q0 158 108 270.5t259 112.5q95 0 164.5 -45t105.5 -111v688q0 22 20 36t50 14q28 0 45.5 -14t17.5 -36v-1460q0 -21 -18 -37t-45 -16q-26 0 -45 16t-19 37v90q-36 -66 -112.5 -111.5t-167.5 -45.5q-145 0 -254 118t-109 271zM225 375q0 -103 76.5 -184.5 t177.5 -81.5q97 0 173.5 73.5t76.5 128.5v287q0 117 -75 188.5t-173 71.5q-104 0 -180 -80t-76 -180v-223zM983 1423q0 39 27.5 67t66.5 28q38 0 66 -28.5t28 -66.5q0 -46 -84 -231q-9 -25 -36 -25q-19 0 -34.5 12t-15.5 31q0 12 5 19l38 106q-27 9 -44 33.5t-17 54.5z" />
<glyph unicode="&#x110;" horiz-adv-x="1165" d="M-2 786q0 23 13 39.5t34 16.5h129v606q0 21 17.5 35t44.5 14h362q93 0 168.5 -24t135 -74.5t92 -136.5t32.5 -201v-623q0 -116 -32.5 -202.5t-92 -137t-135 -74.5t-168.5 -24h-362q-27 0 -44.5 15t-17.5 36v680h-129q-21 0 -34 15.5t-13 39.5zM309 125h289 q140 0 216.5 78.5t76.5 234.5v623q0 156 -76.5 233.5t-216.5 77.5h-289v-530h232q20 0 33.5 -17t13.5 -39q0 -23 -13.5 -39t-33.5 -16h-232v-606z" />
<glyph unicode="&#x111;" horiz-adv-x="991" d="M92 375v223q0 158 108 270.5t259 112.5q95 0 164.5 -45t105.5 -111v351h-242q-21 0 -34 15.5t-13 37.5q0 23 13 39t34 16h242v229q0 22 20 36t50 14q28 0 45.5 -14t17.5 -36v-229h101q20 0 33.5 -16.5t13.5 -38.5q0 -23 -13.5 -38t-33.5 -15h-101v-1123q0 -21 -18 -37 t-45 -16q-26 0 -45 16t-19 37v90q-36 -66 -112.5 -111.5t-167.5 -45.5q-145 0 -254 118t-109 271zM225 375q0 -103 76.5 -184.5t177.5 -81.5q97 0 173.5 73.5t76.5 128.5v287q0 117 -75 188.5t-173 71.5q-104 0 -180 -80t-76 -180v-223z" />
<glyph unicode="&#x112;" horiz-adv-x="1040" d="M156 53v1393q0 25 18 38t43 13h729q26 0 38.5 -17.5t12.5 -41.5q0 -28 -13.5 -47t-37.5 -19h-655v-563h321q24 0 38 -17.5t14 -43.5q0 -23 -13 -39.5t-39 -16.5h-321v-567h655q24 0 37.5 -19t13.5 -45q0 -25 -12.5 -43t-38.5 -18h-729q-25 0 -43 14t-18 39zM307 1872 q0 23 14 38t37 15h441q20 0 35.5 -15.5t15.5 -37.5q0 -21 -16 -36t-35 -15h-441q-23 0 -37 14.5t-14 36.5z" />
<glyph unicode="&#x113;" horiz-adv-x="937" d="M92 375v229q0 154 115 265.5t276 111.5q156 0 269.5 -107t113.5 -266q0 -46 -10.5 -77.5t-25.5 -48.5t-41.5 -26t-47 -10.5t-53.5 -1.5h-463v-75q0 -121 87.5 -194t224.5 -73q55 0 100 13t67 28t43 28t35 13q23 0 40.5 -21t17.5 -42q0 -43 -88.5 -89t-219.5 -46 q-194 0 -317 107.5t-123 281.5zM211 1352q0 23 14 38t37 15h440q20 0 36 -15.5t16 -37.5q0 -21 -16.5 -36.5t-35.5 -15.5h-440q-23 0 -37 15t-14 37zM225 543h410q62 0 82 13.5t20 55.5q0 102 -73 180t-183 78q-106 0 -181 -73t-75 -176v-78z" />
<glyph unicode="&#x114;" horiz-adv-x="1040" d="M156 53v1393q0 25 18 38t43 13h729q26 0 38.5 -17.5t12.5 -41.5q0 -28 -13.5 -47t-37.5 -19h-655v-563h321q24 0 38 -17.5t14 -43.5q0 -23 -13 -39.5t-39 -16.5h-321v-567h655q24 0 37.5 -19t13.5 -45q0 -25 -12.5 -43t-38.5 -18h-729q-25 0 -43 14t-18 39zM336 1982h90 q0 -70 44 -117.5t105 -47.5q60 0 104 48t44 117h90q0 -96 -72.5 -167.5t-165.5 -71.5q-96 0 -167.5 71.5t-71.5 167.5z" />
<glyph unicode="&#x115;" horiz-adv-x="937" d="M92 375v229q0 154 115 265.5t276 111.5q156 0 269.5 -107t113.5 -266q0 -46 -10.5 -77.5t-25.5 -48.5t-41.5 -26t-47 -10.5t-53.5 -1.5h-463v-75q0 -121 87.5 -194t224.5 -73q55 0 100 13t67 28t43 28t35 13q23 0 40.5 -21t17.5 -42q0 -43 -88.5 -89t-219.5 -46 q-194 0 -317 107.5t-123 281.5zM225 543h410q62 0 82 13.5t20 55.5q0 102 -73 180t-183 78q-106 0 -181 -73t-75 -176v-78zM242 1462h90q0 -70 44 -118t105 -48q60 0 104 48.5t44 117.5h90q0 -96 -72.5 -167.5t-165.5 -71.5q-96 0 -167.5 71.5t-71.5 167.5z" />
<glyph unicode="&#x116;" horiz-adv-x="1040" d="M156 53v1393q0 25 18 38t43 13h729q26 0 38.5 -17.5t12.5 -41.5q0 -28 -13.5 -47t-37.5 -19h-655v-563h321q24 0 38 -17.5t14 -43.5q0 -23 -13 -39.5t-39 -16.5h-321v-567h655q24 0 37.5 -19t13.5 -45q0 -25 -12.5 -43t-38.5 -18h-729q-25 0 -43 14t-18 39zM508 1810 q0 32 22 53t54 21q31 0 52 -21t21 -53q0 -31 -21 -53t-52 -22q-32 0 -54 22t-22 53z" />
<glyph unicode="&#x117;" horiz-adv-x="937" d="M92 375v229q0 154 115 265.5t276 111.5q156 0 269.5 -107t113.5 -266q0 -46 -10.5 -77.5t-25.5 -48.5t-41.5 -26t-47 -10.5t-53.5 -1.5h-463v-75q0 -121 87.5 -194t224.5 -73q55 0 100 13t67 28t43 28t35 13q23 0 40.5 -21t17.5 -42q0 -43 -88.5 -89t-219.5 -46 q-194 0 -317 107.5t-123 281.5zM225 543h410q62 0 82 13.5t20 55.5q0 102 -73 180t-183 78q-106 0 -181 -73t-75 -176v-78zM408 1290q0 32 21.5 53t53.5 21q31 0 52.5 -21t21.5 -53q0 -31 -21.5 -53.5t-52.5 -22.5q-32 0 -53.5 22.5t-21.5 53.5z" />
<glyph unicode="&#x118;" horiz-adv-x="1040" d="M156 53v1393q0 25 18 38t43 13h729q26 0 38.5 -17.5t12.5 -41.5q0 -28 -13.5 -47t-37.5 -19h-655v-563h321q24 0 38 -17.5t14 -43.5q0 -23 -13 -39.5t-39 -16.5h-321v-567h655q24 0 37.5 -19t13.5 -45q0 -44 -30 -57q-146 -128 -146 -252q0 -92 127 -92q19 0 30 -10 t11 -27q0 -18 -11.5 -26.5t-39.5 -8.5q-83 0 -141 38t-58 116q0 136 119 258h-641q-25 0 -43 14t-18 39z" />
<glyph unicode="&#x119;" horiz-adv-x="937" d="M92 375v229q0 154 115 265.5t276 111.5q156 0 269.5 -107t113.5 -266q0 -46 -10.5 -77.5t-25.5 -48.5t-41.5 -26t-47 -10.5t-53.5 -1.5h-463v-75q0 -121 87.5 -194t224.5 -73q55 0 100 13t67 28t43 28t35 13q23 0 40.5 -21t17.5 -42q0 -44 -90 -90q-134 -123 -134 -240 q0 -92 127 -92q19 0 30 -10t11 -27q0 -18 -11.5 -26.5t-39.5 -8.5q-83 0 -140.5 38t-57.5 116q0 112 77 211q-38 -6 -80 -6q-194 0 -317 107.5t-123 281.5zM225 543h410q62 0 82 13.5t20 55.5q0 102 -73 180t-183 78q-106 0 -181 -73t-75 -176v-78z" />
<glyph unicode="&#x11a;" horiz-adv-x="1040" d="M156 53v1393q0 25 18 38t43 13h729q26 0 38.5 -17.5t12.5 -41.5q0 -28 -13.5 -47t-37.5 -19h-655v-563h321q24 0 38 -17.5t14 -43.5q0 -23 -13 -39.5t-39 -16.5h-321v-567h655q24 0 37.5 -19t13.5 -45q0 -25 -12.5 -43t-38.5 -18h-729q-25 0 -43 14t-18 39zM299 1972 q0 18 11 31.5t28 13.5q19 0 31 -12l204 -188l203 188q12 12 31 12q17 0 28 -13.5t11 -31.5q0 -25 -25 -47l-207 -184q-24 -21 -41 -21q-20 0 -41 21l-206 184q-27 21 -27 47z" />
<glyph unicode="&#x11b;" horiz-adv-x="937" d="M92 375v229q0 154 115 265.5t276 111.5q156 0 269.5 -107t113.5 -266q0 -46 -10.5 -77.5t-25.5 -48.5t-41.5 -26t-47 -10.5t-53.5 -1.5h-463v-75q0 -121 87.5 -194t224.5 -73q55 0 100 13t67 28t43 28t35 13q23 0 40.5 -21t17.5 -42q0 -43 -88.5 -89t-219.5 -46 q-194 0 -317 107.5t-123 281.5zM207 1452q0 18 11 31.5t28 13.5q18 0 30 -12l205 -189l203 189q12 12 31 12q17 0 28 -13.5t11 -31.5q0 -25 -25 -47l-207 -184q-25 -21 -41 -21q-20 0 -41 21l-207 184q-26 20 -26 47zM225 543h410q62 0 82 13.5t20 55.5q0 102 -73 180 t-183 78q-106 0 -181 -73t-75 -176v-78z" />
<glyph unicode="&#x11c;" horiz-adv-x="1107" d="M139 426v635q0 115 32.5 201t91 136.5t133.5 74.5t167 24q194 0 311 -99t117 -255q0 -70 -67 -70q-65 0 -68 51q-14 120 -86.5 184t-204.5 64q-140 0 -215.5 -77.5t-75.5 -233.5v-635q0 -157 75.5 -235t215.5 -78t215.5 78t75.5 235v244h-274q-22 0 -36 17.5t-14 41.5 q0 23 14 40t36 17h360q24 0 36.5 -15t12.5 -38v-307q0 -116 -32.5 -202.5t-91 -137t-134 -74.5t-168.5 -24t-168.5 24t-134 74.5t-91 137t-32.5 202.5zM283 1786q0 31 26 45l213 115q17 10 35 10t35 -10l213 -115q26 -12 26 -47q0 -20 -11.5 -34.5t-28.5 -14.5q-3 0 -21 6 l-213 112l-213 -114l-18 -6q-17 0 -30 15.5t-13 37.5z" />
<glyph unicode="&#x11d;" horiz-adv-x="925" d="M51 -203q0 82 49 137.5t125 85.5q-54 19 -83 51.5t-29 90.5q0 53 25.5 86.5t76.5 60.5q-113 93 -113 258v78q0 149 97 242.5t256 93.5q143 0 239 -86q30 60 70 94.5t76 34.5q29 0 45 -16t16 -37q0 -18 -10 -30t-25 -15q-70 -13 -114 -88q57 -75 57 -193v-78 q0 -147 -100 -243.5t-256 -96.5q-86 0 -158 35q-64 -33 -64 -80q0 -37 35 -58t91.5 -30t124 -15.5t135.5 -20.5t124.5 -38.5t91.5 -76t35 -127.5q0 -141 -110 -216t-291 -75q-184 0 -300 73.5t-116 198.5zM180 -190q0 -84 77 -135.5t208 -51.5q128 0 201 51t73 138 q0 41 -20 71.5t-47.5 47t-73.5 28.5t-79.5 16t-85 9t-71.5 8q-182 -59 -182 -182zM203 1266q0 31 26 45l213 114q18 11 35 11t35 -11l213 -114q27 -12 27 -47q0 -20 -12 -35t-29 -15l-21 7l-213 112l-213 -114l-8 -4t-10 -3q-17 0 -30 16t-13 38zM231 569q0 -105 61 -173 t165 -68q101 0 161 67t60 172v78q0 103 -60 169.5t-163 66.5t-163.5 -66.5t-60.5 -169.5v-76z" />
<glyph unicode="&#x11e;" horiz-adv-x="1107" d="M139 426v635q0 115 32.5 201t91 136.5t133.5 74.5t167 24q194 0 311 -99t117 -255q0 -70 -67 -70q-65 0 -68 51q-14 120 -86.5 184t-204.5 64q-140 0 -215.5 -77.5t-75.5 -233.5v-635q0 -157 75.5 -235t215.5 -78t215.5 78t75.5 235v244h-274q-22 0 -36 17.5t-14 41.5 q0 23 14 40t36 17h360q24 0 36.5 -15t12.5 -38v-307q0 -116 -32.5 -202.5t-91 -137t-134 -74.5t-168.5 -24t-168.5 24t-134 74.5t-91 137t-32.5 202.5zM326 1982h90q0 -70 44 -117.5t105 -47.5q60 0 104 48t44 117h90q0 -96 -72.5 -167.5t-165.5 -71.5q-96 0 -167.5 71.5 t-71.5 167.5z" />
<glyph unicode="&#x11f;" horiz-adv-x="925" d="M51 -203q0 82 49 137.5t125 85.5q-54 19 -83 51.5t-29 90.5q0 53 25.5 86.5t76.5 60.5q-113 93 -113 258v78q0 149 97 242.5t256 93.5q143 0 239 -86q30 60 70 94.5t76 34.5q29 0 45 -16t16 -37q0 -18 -10 -30t-25 -15q-70 -13 -114 -88q57 -75 57 -193v-78 q0 -147 -100 -243.5t-256 -96.5q-86 0 -158 35q-64 -33 -64 -80q0 -37 35 -58t91.5 -30t124 -15.5t135.5 -20.5t124.5 -38.5t91.5 -76t35 -127.5q0 -141 -110 -216t-291 -75q-184 0 -300 73.5t-116 198.5zM180 -190q0 -84 77 -135.5t208 -51.5q128 0 201 51t73 138 q0 41 -20 71.5t-47.5 47t-73.5 28.5t-79.5 16t-85 9t-71.5 8q-182 -59 -182 -182zM231 569q0 -105 61 -173t165 -68q101 0 161 67t60 172v78q0 103 -60 169.5t-163 66.5t-163.5 -66.5t-60.5 -169.5v-76zM238 1462h90q0 -70 44 -118t105 -48q60 0 104 48.5t44 117.5h90 q0 -96 -72.5 -167.5t-165.5 -71.5q-96 0 -167.5 71.5t-71.5 167.5z" />
<glyph unicode="&#x120;" horiz-adv-x="1107" d="M139 426v635q0 115 32.5 201t91 136.5t133.5 74.5t167 24q194 0 311 -99t117 -255q0 -70 -67 -70q-65 0 -68 51q-14 120 -86.5 184t-204.5 64q-140 0 -215.5 -77.5t-75.5 -233.5v-635q0 -157 75.5 -235t215.5 -78t215.5 78t75.5 235v244h-274q-22 0 -36 17.5t-14 41.5 q0 23 14 40t36 17h360q24 0 36.5 -15t12.5 -38v-307q0 -116 -32.5 -202.5t-91 -137t-134 -74.5t-168.5 -24t-168.5 24t-134 74.5t-91 137t-32.5 202.5zM489 1810q0 32 22 53t54 21q31 0 52.5 -21t21.5 -53q0 -31 -21.5 -53t-52.5 -22q-32 0 -54 22t-22 53z" />
<glyph unicode="&#x121;" horiz-adv-x="925" d="M51 -203q0 82 49 137.5t125 85.5q-54 19 -83 51.5t-29 90.5q0 53 25.5 86.5t76.5 60.5q-113 93 -113 258v78q0 149 97 242.5t256 93.5q143 0 239 -86q30 60 70 94.5t76 34.5q29 0 45 -16t16 -37q0 -18 -10 -30t-25 -15q-70 -13 -114 -88q57 -75 57 -193v-78 q0 -147 -100 -243.5t-256 -96.5q-86 0 -158 35q-64 -33 -64 -80q0 -37 35 -58t91.5 -30t124 -15.5t135.5 -20.5t124.5 -38.5t91.5 -76t35 -127.5q0 -141 -110 -216t-291 -75q-184 0 -300 73.5t-116 198.5zM180 -190q0 -84 77 -135.5t208 -51.5q128 0 201 51t73 138 q0 41 -20 71.5t-47.5 47t-73.5 28.5t-79.5 16t-85 9t-71.5 8q-182 -59 -182 -182zM231 569q0 -105 61 -173t165 -68q101 0 161 67t60 172v78q0 103 -60 169.5t-163 66.5t-163.5 -66.5t-60.5 -169.5v-76zM401 1290q0 32 22 53t54 21q31 0 52.5 -21t21.5 -53 q0 -31 -21.5 -53.5t-52.5 -22.5q-32 0 -54 22.5t-22 53.5z" />
<glyph unicode="&#x122;" horiz-adv-x="1107" d="M139 426v635q0 115 32.5 201t91 136.5t133.5 74.5t167 24q194 0 311 -99t117 -255q0 -70 -67 -70q-65 0 -68 51q-14 120 -86.5 184t-204.5 64q-140 0 -215.5 -77.5t-75.5 -233.5v-635q0 -157 75.5 -235t215.5 -78t215.5 78t75.5 235v244h-274q-22 0 -36 17.5t-14 41.5 q0 23 14 40t36 17h360q24 0 36.5 -15t12.5 -38v-307q0 -116 -32.5 -202.5t-91 -137t-134 -74.5t-168.5 -24t-168.5 24t-134 74.5t-91 137t-32.5 202.5zM403 -266q0 26 23 37l227 127q12 4 19 4q21 0 35 -18t14 -40q0 -30 -27 -45l-217 -116q-14 -7 -22 -7q-21 0 -36.5 18 t-15.5 40z" />
<glyph unicode="&#x123;" horiz-adv-x="925" d="M51 -203q0 82 49 137.5t125 85.5q-54 19 -83 51.5t-29 90.5q0 53 25.5 86.5t76.5 60.5q-113 93 -113 258v78q0 149 97 242.5t256 93.5q143 0 239 -86q30 60 70 94.5t76 34.5q29 0 45 -16t16 -37q0 -18 -10 -30t-25 -15q-70 -13 -114 -88q57 -75 57 -193v-78 q0 -147 -100 -243.5t-256 -96.5q-86 0 -158 35q-64 -33 -64 -80q0 -37 35 -58t91.5 -30t124 -15.5t135.5 -20.5t124.5 -38.5t91.5 -76t35 -127.5q0 -141 -110 -216t-291 -75q-184 0 -300 73.5t-116 198.5zM180 -190q0 -84 77 -135.5t208 -51.5q128 0 201 51t73 138 q0 41 -20 71.5t-47.5 47t-73.5 28.5t-79.5 16t-85 9t-71.5 8q-182 -59 -182 -182zM231 569q0 -105 61 -173t165 -68q101 0 161 67t60 172v78q0 103 -60 169.5t-163 66.5t-163.5 -66.5t-60.5 -169.5v-76zM313 1268q0 26 23 37l229 125q6 6 17 6q22 0 35.5 -18t13.5 -40 q0 -32 -25 -45l-219 -116q-11 -7 -20 -7q-21 0 -37.5 18t-16.5 40zM373 1792q0 54 82 231q13 25 37 25q19 0 34 -12t15 -31q0 -10 -2 -16l-41 -107q28 -10 44.5 -34.5t16.5 -53.5q0 -40 -27 -68t-67 -28q-38 0 -65 28t-27 66z" />
<glyph unicode="&#x124;" horiz-adv-x="1173" d="M156 53v1395q0 25 19 37t48 12q28 0 48 -12.5t20 -36.5v-612h592v612q0 25 19 37t48 12q28 0 48 -12.5t20 -36.5v-1395q0 -25 -20.5 -39t-47.5 -14q-28 0 -47.5 14t-19.5 39v666h-592v-666q0 -25 -20.5 -39t-47.5 -14q-28 0 -47.5 14t-19.5 39zM313 1786q0 30 27 45 l213 115q17 10 35 10t35 -10l213 -115q26 -12 26 -47q0 -20 -12 -34.5t-29 -14.5q-2 0 -20 6l-213 112l-213 -114q-18 -6 -19 -6q-17 0 -30 15.5t-13 37.5z" />
<glyph unicode="&#x125;" d="M-78 1788q0 30 27 45l213 115q17 10 35 10q17 0 34 -10l213 -115q27 -12 27 -47q0 -20 -12 -34.5t-29 -14.5q-2 0 -20 6l-213 112l-213 -114q-18 -6 -19 -6q-17 0 -30 15.5t-13 37.5zM129 53v1460q0 22 19 36t47 14t47.5 -14t19.5 -36v-688q36 66 105.5 111t164.5 45 q148 0 255.5 -112.5t107.5 -270.5v-545q0 -25 -20 -39t-48 -14q-25 0 -45 14t-20 39v545q0 100 -76 180t-178 80q-97 0 -171.5 -71.5t-74.5 -188.5v-545q0 -21 -20 -37t-47 -16t-46.5 16t-19.5 37z" />
<glyph unicode="&#x126;" horiz-adv-x="1173" d="M39 1157q0 23 12 38t33 15h72v238q0 25 19 37t48 12q28 0 48 -12.5t20 -36.5v-238h592v238q0 25 19 37t48 12q28 0 48 -12.5t20 -36.5v-238h67q20 0 34 -15.5t14 -37.5t-14 -36.5t-34 -14.5h-67v-1053q0 -25 -20.5 -39t-47.5 -14q-28 0 -47.5 14t-19.5 39v666h-592v-666 q0 -25 -20.5 -39t-47.5 -14q-28 0 -47.5 14t-19.5 39v1053h-72q-21 0 -33 15t-12 36zM291 836h592v270h-592v-270z" />
<glyph unicode="&#x127;" d="M18 1239q0 23 14.5 38t37.5 15h59v221q0 22 19 36t47 14t47.5 -14t19.5 -36v-221h248q20 0 35.5 -15.5t15.5 -37.5q0 -21 -16 -36t-35 -15h-248v-363q36 66 105.5 111t164.5 45q148 0 255.5 -112.5t107.5 -270.5v-545q0 -25 -20 -39t-48 -14q-25 0 -45 14t-20 39v545 q0 100 -76 180t-178 80q-97 0 -171.5 -71.5t-74.5 -188.5v-545q0 -21 -20 -37t-47 -16t-46.5 16t-19.5 37v1135h-59q-23 0 -37.5 14.5t-14.5 36.5z" />
<glyph unicode="&#x128;" horiz-adv-x="446" d="M-94 1825q0 52 60.5 84.5t119.5 32.5q53 0 135 -35t135 -35q40 0 68 15t45 29.5t31 14.5q19 0 30 -15.5t11 -31.5q0 -56 -57.5 -86.5t-114.5 -30.5q-55 0 -136 36t-137 36q-38 0 -68 -16.5t-50 -32.5t-33 -16q-19 0 -29 15.5t-10 35.5zM156 53v1395q0 25 19 37t48 12 q28 0 48 -12.5t20 -36.5v-1395q0 -25 -20.5 -39t-47.5 -14q-28 0 -47.5 14t-19.5 39z" />
<glyph unicode="&#x129;" horiz-adv-x="391" d="M-123 1305q0 52 60.5 84t119.5 32q53 0 135.5 -34.5t135.5 -34.5q40 0 67.5 15t44.5 29.5t31 14.5q19 0 30 -15.5t11 -31.5q0 -56 -57.5 -86.5t-114.5 -30.5q-56 0 -136 36t-136 36q-38 0 -68.5 -16.5t-50.5 -33t-33 -16.5q-19 0 -29 16t-10 36zM129 53v867q0 21 19 35 t47 14t47.5 -14t19.5 -35v-867q0 -21 -20 -37t-47 -16t-46.5 16t-19.5 37z" />
<glyph unicode="&#x12a;" horiz-adv-x="446" d="M-49 1872q0 23 14 38t37 15h440q20 0 36 -15.5t16 -37.5q0 -21 -16 -36t-36 -15h-440q-23 0 -37 14.5t-14 36.5zM156 53v1395q0 25 19 37t48 12q28 0 48 -12.5t20 -36.5v-1395q0 -25 -20.5 -39t-47.5 -14q-28 0 -47.5 14t-19.5 39z" />
<glyph unicode="&#x12b;" horiz-adv-x="391" d="M-78 1352q0 23 14 38t37 15h441q20 0 35.5 -15.5t15.5 -37.5q0 -21 -16 -36.5t-35 -15.5h-441q-23 0 -37 15t-14 37zM129 53v867q0 21 19 35t47 14t47.5 -14t19.5 -35v-867q0 -21 -20 -37t-47 -16t-46.5 16t-19.5 37z" />
<glyph unicode="&#x12c;" horiz-adv-x="446" d="M-16 1982h90q0 -70 44 -117.5t105 -47.5q60 0 104 48t44 117h90q0 -96 -72.5 -167.5t-165.5 -71.5q-96 0 -167.5 71.5t-71.5 167.5zM156 53v1395q0 25 19 37t48 12q28 0 48 -12.5t20 -36.5v-1395q0 -25 -20.5 -39t-47.5 -14q-28 0 -47.5 14t-19.5 39z" />
<glyph unicode="&#x12d;" horiz-adv-x="391" d="M-43 1462h90q0 -70 44.5 -118t105.5 -48q59 0 103 48.5t44 117.5h90q0 -96 -72 -167.5t-165 -71.5q-96 0 -168 71.5t-72 167.5zM129 53v867q0 21 19 35t47 14t47.5 -14t19.5 -35v-867q0 -21 -20 -37t-47 -16t-46.5 16t-19.5 37z" />
<glyph unicode="&#x12e;" horiz-adv-x="446" d="M35 -250q0 146 131 270q-10 13 -10 33v1395q0 25 19 37t48 12q28 0 48 -12.5t20 -36.5v-1395q0 -33 -35 -47q-139 -125 -139 -246q0 -92 127 -92q19 0 30 -10t11 -27q0 -34 -52 -34q-84 0 -141 37.5t-57 115.5z" />
<glyph unicode="&#x12f;" horiz-adv-x="391" d="M-2 -254q0 151 141 279q-10 13 -10 28v867q0 21 19 35t47 14t47.5 -14t19.5 -35v-867q0 -33 -41 -49q-141 -123 -141 -248q0 -92 127 -92q19 0 30 -10t11 -27q0 -18 -11.5 -26.5t-39.5 -8.5q-83 0 -141 38t-58 116zM102 1341q0 34 27.5 59t65.5 25q36 0 62 -25t26 -59 t-26 -60t-62 -26q-38 0 -65.5 26t-27.5 60z" />
<glyph unicode="&#x130;" horiz-adv-x="446" d="M147 1810q0 32 22 53t54 21q31 0 52.5 -21t21.5 -53q0 -31 -21.5 -53t-52.5 -22q-32 0 -54 22t-22 53zM156 53v1395q0 25 19 37t48 12q28 0 48 -12.5t20 -36.5v-1395q0 -25 -20.5 -39t-47.5 -14q-28 0 -47.5 14t-19.5 39z" />
<glyph unicode="&#x131;" horiz-adv-x="391" d="M129 53v867q0 21 19 35t47 14t47.5 -14t19.5 -35v-867q0 -21 -20 -37t-47 -16t-46.5 16t-19.5 37z" />
<glyph unicode="&#x132;" horiz-adv-x="1484" d="M156 53v1395q0 25 19 37t48 12q28 0 48 -12.5t20 -36.5v-1395q0 -25 -20.5 -39t-47.5 -14q-28 0 -47.5 14t-19.5 39zM483 348q0 38 16.5 54t49.5 16q29 0 49 -13t20 -40q0 -116 79 -184t212 -68q140 0 215.5 78t75.5 235v946h-289q-24 0 -37.5 19t-13.5 47q0 24 13 41.5 t38 17.5h361q27 0 45 -13t18 -38v-1020q0 -116 -32 -202.5t-91 -137t-133 -74.5t-166 -24q-194 0 -312 100.5t-118 259.5z" />
<glyph unicode="&#x133;" horiz-adv-x="768" d="M102 1341q0 34 27.5 59t65.5 25q36 0 62 -25t26 -59t-26 -60t-62 -26q-38 0 -65.5 26t-27.5 60zM129 53v867q0 21 19 35t47 14t47.5 -14t19.5 -35v-867q0 -21 -20 -37t-47 -16t-46.5 16t-19.5 37zM301 -416q0 28 16 45t41 17q38 0 65.5 13.5t43.5 35t25 58t11.5 72.5 t2.5 87v1008q0 22 18 35.5t47 13.5q28 0 48 -14t20 -35v-1008q0 -118 -26 -202t-87.5 -134.5t-156.5 -50.5q-34 0 -51 17.5t-17 41.5zM479 1341q0 34 27 59t65 25q36 0 62 -25t26 -59t-26 -60t-62 -26q-38 0 -65 26t-27 60z" />
<glyph unicode="&#x134;" horiz-adv-x="1048" d="M47 348q0 38 16.5 54t49.5 16q29 0 49 -13t20 -40q0 -116 79 -184t212 -68q140 0 215.5 78t75.5 235v946h-289q-24 0 -37.5 19t-13.5 47q0 24 13 41.5t38 17.5h361q27 0 45 -13t18 -38v-1020q0 -116 -32 -202.5t-91 -137t-133 -74.5t-166 -24q-194 0 -312 100.5 t-118 259.5zM250 1786q0 31 26 45l213 115q17 10 35 10t35 -10l213 -115q27 -12 27 -47q0 -20 -12 -34.5t-29 -14.5q-3 0 -21 6l-213 112l-213 -114l-18 -6q-17 0 -30 15.5t-13 37.5z" />
<glyph unicode="&#x135;" horiz-adv-x="391" d="M-78 1266q0 30 27 45l213 114q18 11 35 11q16 0 34 -11l213 -114q27 -12 27 -47q0 -20 -12 -35t-29 -15q-3 0 -6.5 1.5t-7.5 3t-6 2.5l-213 112l-213 -114q-1 0 -8 -3.5t-11 -3.5q-17 0 -30 16t-13 38zM-76 -416q0 27 16.5 44.5t41.5 17.5q38 0 65.5 13.5t43 35t24.5 58 t11.5 72t2.5 87.5v1008q0 22 18.5 35.5t47.5 13.5q28 0 47.5 -14t19.5 -35v-1008q0 -118 -26 -202t-87.5 -134.5t-156.5 -50.5q-34 0 -51 17.5t-17 41.5z" />
<glyph unicode="&#x136;" horiz-adv-x="1069" d="M156 53v1395q0 25 19 37t48 12q28 0 48 -12.5t20 -36.5v-725l592 754q14 20 43 20q25 0 49 -22t24 -48q0 -17 -10 -30l-440 -547l504 -758q8 -16 8 -26q0 -27 -24 -48.5t-54 -21.5q-29 0 -51 31l-473 710l-168 -213v-471q0 -25 -20.5 -39t-47.5 -14q-28 0 -47.5 14 t-19.5 39zM379 -266q0 26 22 37l228 127q12 4 18 4q21 0 35 -18t14 -40q0 -31 -26 -45l-217 -116q-14 -7 -23 -7q-21 0 -36 18t-15 40z" />
<glyph unicode="&#x137;" horiz-adv-x="933" d="M129 53v1460q0 22 19 36t47 14q29 0 48 -14t19 -36v-997l500 445q20 12 31 12q25 0 46 -19t21 -45q0 -25 -14 -37l-301 -264l354 -518q8 -16 8 -29q0 -24 -22.5 -45.5t-48.5 -21.5t-41 24l-344 506l-189 -166v-305q0 -21 -19.5 -37t-47.5 -16q-27 0 -46.5 16t-19.5 37z M309 -266q0 26 23 37l227 127q12 4 19 4q21 0 35 -18t14 -40q0 -30 -27 -45l-217 -116q-14 -7 -23 -7q-21 0 -36 18t-15 40z" />
<glyph unicode="&#x138;" horiz-adv-x="933" d="M129 53v867q0 21 19 35t47 14q29 0 48 -13.5t19 -35.5v-404l500 445q20 12 31 12q25 0 46 -19t21 -45q0 -25 -14 -37l-301 -264l354 -518q8 -16 8 -29q0 -24 -22.5 -45.5t-48.5 -21.5t-41 24l-344 506l-189 -166v-305q0 -21 -19.5 -37t-47.5 -16q-27 0 -46.5 16t-19.5 37 z" />
<glyph unicode="&#x139;" horiz-adv-x="948" d="M156 53v1395q0 25 19 37t48 12q28 0 48 -12.5t20 -36.5v-1323h583q22 0 34 -18.5t12 -43.5q0 -27 -12 -45t-34 -18h-657q-25 0 -43 14t-18 39zM373 1788q0 26 22 37l230 125q6 6 16 6q22 0 35.5 -18t13.5 -40q0 -33 -24 -45l-220 -116q-9 -6 -20 -6q-21 0 -37 17.5 t-16 39.5z" />
<glyph unicode="&#x13a;" horiz-adv-x="423" d="M70 1708q0 26 22 37l230 125q6 6 16 6q22 0 35.5 -17.5t13.5 -39.5q0 -33 -25 -45l-219 -117q-9 -6 -20 -6q-21 0 -37 17.5t-16 39.5zM145 53v1460q0 22 19 36t47 14q29 0 48.5 -14t19.5 -36v-1460q0 -21 -19.5 -37t-48.5 -16q-27 0 -46.5 16t-19.5 37z" />
<glyph unicode="&#x13b;" horiz-adv-x="948" d="M156 53v1395q0 25 19 37t48 12q28 0 48 -12.5t20 -36.5v-1323h583q22 0 34 -18.5t12 -43.5q0 -27 -12 -45t-34 -18h-657q-25 0 -43 14t-18 39zM365 -266q0 26 22 37l227 127q12 4 19 4q21 0 35 -18t14 -40q0 -30 -27 -45l-217 -116q-14 -7 -22 -7q-21 0 -36 18t-15 40z " />
<glyph unicode="&#x13c;" horiz-adv-x="423" d="M59 -266q0 26 23 37l227 127q12 4 19 4q21 0 35 -18t14 -40q0 -30 -27 -45l-217 -116q-14 -7 -22 -7q-21 0 -36.5 18t-15.5 40zM145 53v1460q0 22 19 36t47 14q29 0 48.5 -14t19.5 -36v-1460q0 -21 -19.5 -37t-48.5 -16q-27 0 -46.5 16t-19.5 37z" />
<glyph unicode="&#x13d;" horiz-adv-x="948" d="M156 53v1395q0 25 19 37t48 12q28 0 48 -12.5t20 -36.5v-1323h583q22 0 34 -18.5t12 -43.5q0 -27 -12 -45t-34 -18h-657q-25 0 -43 14t-18 39zM602 1423q0 39 27.5 67t66.5 28q38 0 66.5 -28.5t28.5 -66.5q0 -46 -84 -231q-9 -25 -37 -25q-19 0 -34 12t-15 31q0 13 4 19 l39 106q-28 9 -45 33.5t-17 54.5z" />
<glyph unicode="&#x13e;" horiz-adv-x="423" d="M145 53v1460q0 22 19 36t47 14q29 0 48.5 -14t19.5 -36v-1460q0 -21 -19.5 -37t-48.5 -16q-27 0 -46.5 16t-19.5 37zM410 1423q0 39 27.5 67t66.5 28q38 0 66 -28.5t28 -66.5q0 -46 -84 -231q-9 -25 -37 -25q-19 0 -34 12t-15 31q0 13 4 19l39 106q-27 9 -44 33.5 t-17 54.5z" />
<glyph unicode="&#x13f;" horiz-adv-x="948" d="M156 53v1395q0 25 19 37t48 12q28 0 48 -12.5t20 -36.5v-1323h583q22 0 34 -18.5t12 -43.5q0 -27 -12 -45t-34 -18h-657q-25 0 -43 14t-18 39zM594 862q0 39 27.5 65.5t68.5 26.5q40 0 68 -27t28 -65q0 -37 -28.5 -64.5t-67.5 -27.5q-41 0 -68.5 27.5t-27.5 64.5z" />
<glyph unicode="&#x140;" horiz-adv-x="643" d="M145 53v1460q0 22 19 36t47 14q29 0 48.5 -14t19.5 -36v-1460q0 -21 -19.5 -37t-48.5 -16q-27 0 -46.5 16t-19.5 37zM432 614q0 39 27.5 66t68.5 27q40 0 68.5 -27.5t28.5 -65.5q0 -37 -28.5 -64.5t-68.5 -27.5q-41 0 -68.5 27.5t-27.5 64.5z" />
<glyph unicode="&#x141;" horiz-adv-x="960" d="M4 602q0 28 23 39l141 78v729q0 25 19.5 37t48.5 12q28 0 47.5 -12.5t19.5 -36.5v-655l199 108q6 4 20 4q21 0 37 -18.5t16 -40.5q0 -29 -24 -43l-248 -137v-541h584q22 0 33.5 -18.5t11.5 -43.5q0 -27 -11.5 -45t-33.5 -18h-658q-25 0 -43 14t-18 39v539l-92 -49 q-9 -6 -21 -6q-20 0 -35.5 20t-15.5 45z" />
<glyph unicode="&#x142;" horiz-adv-x="622" d="M35 602q0 28 22 39l176 96v776q0 22 19 36t47 14q29 0 48.5 -14t19.5 -36v-702l151 84q8 4 21 4q21 0 37 -18.5t16 -40.5q0 -30 -23 -43l-202 -113v-631q0 -21 -19.5 -37t-48.5 -16q-27 0 -46.5 16t-19.5 37v559l-127 -69q-9 -6 -20 -6q-20 0 -35.5 20t-15.5 45z" />
<glyph unicode="&#x143;" horiz-adv-x="1173" d="M156 53v1393q0 26 19 38.5t48 12.5q34 0 58.5 -24.5t48.5 -69.5l553 -1090v1135q0 25 19 37t48 12q28 0 48 -12.5t20 -36.5v-1395q0 -25 -20.5 -39t-47.5 -14q-52 0 -90 78l-569 1108v-1133q0 -25 -20.5 -39t-47.5 -14q-28 0 -47.5 14t-19.5 39zM420 1788q0 26 22 37 l230 125q6 6 16 6q22 0 35.5 -18t13.5 -40q0 -33 -24 -45l-219 -116q-9 -6 -21 -6q-21 0 -37 17.5t-16 39.5z" />
<glyph unicode="&#x144;" d="M129 53v867q0 22 18.5 35.5t47.5 13.5q25 0 43 -14t18 -35v-95q36 66 107 111t167 45q148 0 256.5 -112.5t108.5 -270.5v-545q0 -25 -20.5 -39t-47.5 -14q-25 0 -45 14t-20 39v545q0 100 -76 180t-180 80q-97 0 -170.5 -71.5t-73.5 -188.5v-545q0 -21 -20 -37t-47 -16 q-28 0 -47 16t-19 37zM348 1268q0 26 23 37l229 125q6 6 16 6q22 0 36 -18t14 -40q0 -32 -25 -45l-219 -116q-11 -7 -21 -7q-21 0 -37 18t-16 40z" />
<glyph unicode="&#x145;" horiz-adv-x="1173" d="M156 53v1393q0 26 19 38.5t48 12.5q34 0 58.5 -24.5t48.5 -69.5l553 -1090v1135q0 25 19 37t48 12q28 0 48 -12.5t20 -36.5v-1395q0 -25 -20.5 -39t-47.5 -14q-52 0 -90 78l-569 1108v-1133q0 -25 -20.5 -39t-47.5 -14q-28 0 -47.5 14t-19.5 39zM424 -266q0 26 22 37 l228 127q12 4 18 4q21 0 35 -18t14 -40q0 -31 -26 -45l-217 -116q-14 -7 -23 -7q-21 0 -36 18t-15 40z" />
<glyph unicode="&#x146;" d="M129 53v867q0 22 18.5 35.5t47.5 13.5q25 0 43 -14t18 -35v-95q36 66 107 111t167 45q148 0 256.5 -112.5t108.5 -270.5v-545q0 -25 -20.5 -39t-47.5 -14q-25 0 -45 14t-20 39v545q0 100 -76 180t-180 80q-97 0 -170.5 -71.5t-73.5 -188.5v-545q0 -21 -20 -37t-47 -16 q-28 0 -47 16t-19 37zM332 -266q0 26 22 37l228 127q12 4 18 4q21 0 35 -18t14 -40q0 -31 -26 -45l-217 -116q-14 -7 -23 -7q-21 0 -36 18t-15 40z" />
<glyph unicode="&#x147;" horiz-adv-x="1173" d="M156 53v1393q0 26 19 38.5t48 12.5q34 0 58.5 -24.5t48.5 -69.5l553 -1090v1135q0 25 19 37t48 12q28 0 48 -12.5t20 -36.5v-1395q0 -25 -20.5 -39t-47.5 -14q-52 0 -90 78l-569 1108v-1133q0 -25 -20.5 -39t-47.5 -14q-28 0 -47.5 14t-19.5 39zM311 1972q0 18 11 31.5 t28 13.5q19 0 31 -12l205 -188l202 188q12 12 31 12q17 0 28 -13.5t11 -31.5q0 -26 -24 -47l-207 -184q-24 -21 -41 -21q-20 0 -41 21l-207 184q-27 21 -27 47z" />
<glyph unicode="&#x148;" d="M129 53v867q0 22 18.5 35.5t47.5 13.5q25 0 43 -14t18 -35v-95q36 66 107 111t167 45q148 0 256.5 -112.5t108.5 -270.5v-545q0 -25 -20.5 -39t-47.5 -14q-25 0 -45 14t-20 39v545q0 100 -76 180t-180 80q-97 0 -170.5 -71.5t-73.5 -188.5v-545q0 -21 -20 -37t-47 -16 q-28 0 -47 16t-19 37zM225 1452q0 18 11 31.5t28 13.5q19 0 31 -12l205 -189l202 189q12 12 31 12q17 0 28 -13.5t11 -31.5q0 -26 -24 -47l-207 -184q-25 -21 -41 -21q-20 0 -41 21l-207 184q-27 21 -27 47z" />
<glyph unicode="&#x14a;" horiz-adv-x="1173" d="M156 53v1393q0 26 19 38.5t48 12.5q34 0 58.5 -24.5t48.5 -69.5l553 -1090v1135q0 25 19 37t48 12q28 0 48 -12.5t20 -36.5v-1536q0 -180 -65 -283.5t-203 -103.5q-34 0 -52 17.5t-18 41.5q0 28 16 45t41 17q47 0 77.5 19t45.5 57.5t20 82t5 107.5v92q0 25 -25 74 l-569 1108v-1133q0 -25 -20.5 -39t-47.5 -14q-28 0 -47.5 14t-19.5 39z" />
<glyph unicode="&#x14b;" d="M129 53v867q0 22 18.5 35.5t47.5 13.5q25 0 43 -14t18 -35v-95q36 66 107 111t167 45q148 0 256.5 -112.5t108.5 -270.5v-686q0 -118 -26 -202t-87.5 -134.5t-156.5 -50.5q-34 0 -51 17.5t-17 41.5q0 28 16 45t41 17q47 0 77.5 19t45.5 57.5t20 82t5 107.5v686 q0 100 -76 180t-180 80q-97 0 -170.5 -71.5t-73.5 -188.5v-545q0 -21 -20 -37t-47 -16q-28 0 -47 16t-19 37z" />
<glyph unicode="&#x14c;" horiz-adv-x="1130" d="M139 426v635q0 116 32.5 201.5t91 136t134 74.5t168.5 24t168.5 -24t134 -74.5t91 -136t32.5 -201.5v-635q0 -116 -32.5 -202.5t-91 -137t-134 -74.5t-168.5 -24t-168.5 24t-134 74.5t-91 137t-32.5 202.5zM274 426q0 -158 75.5 -235.5t215.5 -77.5t215.5 77.5 t75.5 235.5v635q0 156 -75.5 233.5t-215.5 77.5t-215.5 -77.5t-75.5 -233.5v-635zM295 1872q0 23 14 38t37 15h440q20 0 36 -15.5t16 -37.5q0 -21 -16 -36t-36 -15h-440q-23 0 -37 14.5t-14 36.5z" />
<glyph unicode="&#x14d;" horiz-adv-x="958" d="M90 375v223q0 155 114 269t273 114q158 0 274.5 -113t116.5 -270v-223q0 -153 -117.5 -271t-273.5 -118q-155 0 -271 117.5t-116 271.5zM207 1352q0 23 14 38t37 15h440q20 0 36 -15.5t16 -37.5q0 -21 -16.5 -36.5t-35.5 -15.5h-440q-23 0 -37 15t-14 37zM223 375 q0 -105 75 -185.5t179 -80.5q106 0 182 80.5t76 185.5v223q0 101 -76.5 180.5t-181.5 79.5t-179.5 -79.5t-74.5 -180.5v-223z" />
<glyph unicode="&#x14e;" horiz-adv-x="1130" d="M139 426v635q0 116 32.5 201.5t91 136t134 74.5t168.5 24t168.5 -24t134 -74.5t91 -136t32.5 -201.5v-635q0 -116 -32.5 -202.5t-91 -137t-134 -74.5t-168.5 -24t-168.5 24t-134 74.5t-91 137t-32.5 202.5zM274 426q0 -158 75.5 -235.5t215.5 -77.5t215.5 77.5 t75.5 235.5v635q0 156 -75.5 233.5t-215.5 77.5t-215.5 -77.5t-75.5 -233.5v-635zM326 1982h90q0 -70 44 -117.5t105 -47.5q60 0 104 48t44 117h90q0 -96 -72.5 -167.5t-165.5 -71.5q-96 0 -167.5 71.5t-71.5 167.5z" />
<glyph unicode="&#x14f;" horiz-adv-x="958" d="M90 375v223q0 155 114 269t273 114q158 0 274.5 -113t116.5 -270v-223q0 -153 -117.5 -271t-273.5 -118q-155 0 -271 117.5t-116 271.5zM223 375q0 -105 75 -185.5t179 -80.5q106 0 182 80.5t76 185.5v223q0 101 -76.5 180.5t-181.5 79.5t-179.5 -79.5t-74.5 -180.5v-223 zM240 1462h90q0 -70 44 -118t105 -48q60 0 104 48.5t44 117.5h90q0 -96 -72.5 -167.5t-165.5 -71.5q-96 0 -167.5 71.5t-71.5 167.5z" />
<glyph unicode="&#x150;" horiz-adv-x="1130" d="M139 426v635q0 116 32.5 201.5t91 136t134 74.5t168.5 24t168.5 -24t134 -74.5t91 -136t32.5 -201.5v-635q0 -116 -32.5 -202.5t-91 -137t-134 -74.5t-168.5 -24t-168.5 24t-134 74.5t-91 137t-32.5 202.5zM274 426q0 -158 75.5 -235.5t215.5 -77.5t215.5 77.5 t75.5 235.5v635q0 156 -75.5 233.5t-215.5 77.5t-215.5 -77.5t-75.5 -233.5v-635zM346 1778q0 20 16 28l197 142q8 8 23 8q19 0 33 -15.5t14 -33.5q0 -24 -19 -37l-186 -131q-10 -10 -25 -10q-20 0 -36.5 15t-16.5 34zM653 1778q0 20 17 28l196 142q8 8 23 8q19 0 33 -15.5 t14 -33.5q0 -25 -18 -37l-187 -131q-10 -10 -24 -10q-20 0 -37 15t-17 34z" />
<glyph unicode="&#x151;" horiz-adv-x="958" d="M90 375v223q0 155 114 269t273 114q158 0 274.5 -113t116.5 -270v-223q0 -153 -117.5 -271t-273.5 -118q-155 0 -271 117.5t-116 271.5zM223 375q0 -105 75 -185.5t179 -80.5q106 0 182 80.5t76 185.5v223q0 101 -76.5 180.5t-181.5 79.5t-179.5 -79.5t-74.5 -180.5v-223 zM240 1260q0 20 16 28l197 142q8 8 22 8q19 0 33 -15.5t14 -33.5q0 -25 -18 -37l-187 -131q-11 -11 -24 -11q-20 0 -36.5 15.5t-16.5 34.5zM547 1260q0 20 16 28l197 142q8 8 22 8q19 0 33 -15.5t14 -33.5q0 -25 -18 -37l-186 -131q-11 -11 -25 -11q-20 0 -36.5 15.5 t-16.5 34.5z" />
<glyph unicode="&#x152;" horiz-adv-x="1720" d="M139 426v635q0 116 31 201.5t87.5 136t129 74.5t162.5 24q103 0 187 -36.5t132 -110.5v96q0 25 19 38t45 13h694q24 0 36.5 -17.5t12.5 -41.5q0 -28 -12.5 -47t-36.5 -19h-635v-563h301q24 0 36.5 -17.5t12.5 -43.5q0 -23 -12.5 -39.5t-36.5 -16.5h-301v-567h635 q23 0 36 -18.5t13 -45.5q0 -25 -12.5 -43t-36.5 -18h-694q-25 0 -44.5 14t-19.5 39v84q-48 -75 -132 -112t-187 -37q-90 0 -162.5 24t-129 74.5t-87.5 137t-31 202.5zM274 426q0 -158 75.5 -235.5t215.5 -77.5t215.5 77.5t75.5 235.5v635q0 156 -75.5 233.5t-215.5 77.5 t-215.5 -77.5t-75.5 -233.5v-635z" />
<glyph unicode="&#x153;" horiz-adv-x="1579" d="M90 375v223q0 155 114 269t273 114q102 0 190 -53t138 -142q48 88 134 141.5t187 53.5q155 0 268 -107t113 -264q0 -39 -6 -68t-19.5 -46.5t-27.5 -28.5t-37 -15.5t-40.5 -6t-45.5 -1.5h-463v-75q0 -122 87.5 -194.5t228.5 -72.5q54 0 97 13t64 28t42 28t36 13 q24 0 42 -20t18 -45t-38 -55t-112 -54t-159 -24q-125 0 -222 52t-149 144q-51 -88 -138 -142t-188 -54q-155 0 -271 117.5t-116 271.5zM223 375q0 -105 75 -185.5t179 -80.5q106 0 182 80.5t76 185.5v223q0 101 -76.5 180.5t-181.5 79.5t-179.5 -79.5t-74.5 -180.5v-223z M868 543h410q62 0 82 13.5t20 55.5q0 102 -73 180t-183 78q-106 0 -181 -71.5t-75 -171.5v-84z" />
<glyph unicode="&#x154;" horiz-adv-x="1083" d="M156 53v1395q0 20 14 34t37 15h362q95 0 171.5 -20.5t139.5 -65.5t97.5 -125.5t34.5 -191.5q0 -179 -87 -275t-233 -121l316 -606q8 -11 8 -26q0 -26 -24.5 -48t-53.5 -22q-37 0 -72 72l-315 614h-260v-629q0 -25 -20.5 -39t-47.5 -14q-28 0 -47.5 14t-19.5 39zM291 799 h278q144 0 226 69.5t82 218.5q0 147 -82 216t-226 69h-278v-573zM436 1788q0 26 23 37l229 125q6 6 17 6q22 0 35.5 -18t13.5 -40q0 -32 -25 -45l-219 -116q-9 -6 -21 -6q-21 0 -37 17.5t-16 39.5z" />
<glyph unicode="&#x155;" horiz-adv-x="677" d="M129 53v867q0 21 19 35t47 14q27 0 45 -14t18 -35v-101q37 68 109 115t165 47h72q22 0 37.5 -18t15.5 -43t-15.5 -43.5t-37.5 -18.5h-72q-107 0 -188.5 -83t-81.5 -216v-506q0 -21 -19.5 -37t-47.5 -16q-27 0 -46.5 16t-19.5 37zM180 1268q0 26 23 37l229 125q6 6 17 6 q22 0 35.5 -18t13.5 -40q0 -32 -25 -45l-219 -116q-11 -7 -21 -7q-21 0 -37 18t-16 40z" />
<glyph unicode="&#x156;" horiz-adv-x="1083" d="M156 53v1395q0 20 14 34t37 15h362q95 0 171.5 -20.5t139.5 -65.5t97.5 -125.5t34.5 -191.5q0 -179 -87 -275t-233 -121l316 -606q8 -11 8 -26q0 -26 -24.5 -48t-53.5 -22q-37 0 -72 72l-315 614h-260v-629q0 -25 -20.5 -39t-47.5 -14q-28 0 -47.5 14t-19.5 39zM291 799 h278q144 0 226 69.5t82 218.5q0 147 -82 216t-226 69h-278v-573zM362 -266q0 26 23 37l227 127q12 4 19 4q21 0 35 -18t14 -40q0 -30 -27 -45l-217 -116q-14 -7 -22 -7q-21 0 -36.5 18t-15.5 40z" />
<glyph unicode="&#x157;" horiz-adv-x="677" d="M-2 -266q0 26 22 37l228 127q12 4 18 4q21 0 35 -18t14 -40q0 -31 -26 -45l-217 -116q-14 -7 -23 -7q-21 0 -36 18t-15 40zM129 53v867q0 21 19 35t47 14q27 0 45 -14t18 -35v-101q37 68 109 115t165 47h72q22 0 37.5 -18t15.5 -43t-15.5 -43.5t-37.5 -18.5h-72 q-107 0 -188.5 -83t-81.5 -216v-506q0 -21 -19.5 -37t-47.5 -16q-27 0 -46.5 16t-19.5 37z" />
<glyph unicode="&#x158;" horiz-adv-x="1083" d="M156 53v1395q0 20 14 34t37 15h362q95 0 171.5 -20.5t139.5 -65.5t97.5 -125.5t34.5 -191.5q0 -179 -87 -275t-233 -121l316 -606q8 -11 8 -26q0 -26 -24.5 -48t-53.5 -22q-37 0 -72 72l-315 614h-260v-629q0 -25 -20.5 -39t-47.5 -14q-28 0 -47.5 14t-19.5 39zM291 799 h278q144 0 226 69.5t82 218.5q0 147 -82 216t-226 69h-278v-573zM293 1972q0 18 11 31.5t28 13.5q18 0 30 -12l205 -188l203 188q12 12 31 12q17 0 28 -13.5t11 -31.5q0 -25 -25 -47l-207 -184q-24 -21 -41 -21q-20 0 -41 21l-207 184q-26 20 -26 47z" />
<glyph unicode="&#x159;" horiz-adv-x="677" d="M55 1452q0 18 11 31.5t28 13.5q19 0 31 -12l205 -189l202 189q12 12 31 12q17 0 28 -13.5t11 -31.5q0 -26 -24 -47l-207 -184q-25 -21 -41 -21q-20 0 -41 21l-207 184q-27 21 -27 47zM129 53v867q0 21 19 35t47 14q27 0 45 -14t18 -35v-101q37 68 109 115t165 47h72 q22 0 37.5 -18t15.5 -43t-15.5 -43.5t-37.5 -18.5h-72q-107 0 -188.5 -83t-81.5 -216v-506q0 -21 -19.5 -37t-47.5 -16q-27 0 -46.5 16t-19.5 37z" />
<glyph unicode="&#x15a;" horiz-adv-x="1011" d="M74 207q0 26 19 51t42 25q14 0 31.5 -17.5t41.5 -42.5t57.5 -50t91 -42.5t128.5 -17.5q145 0 225.5 72t80.5 210q0 73 -23.5 128.5t-62.5 90.5t-90 62t-107.5 48l-113 42t-107.5 51t-90 69t-62.5 100.5t-23.5 141.5q0 86 27.5 153t70.5 107.5t102 67t115.5 36t118.5 9.5 q79 0 157 -15.5t132.5 -45t54.5 -64.5q0 -24 -17.5 -50t-42.5 -26q-12 0 -36.5 12t-53 27t-82 27t-114.5 12t-111.5 -12t-93.5 -38t-67.5 -73.5t-24.5 -113.5q0 -61 23.5 -106.5t62.5 -74.5t90 -52t107.5 -43t113 -43t107.5 -57t90 -79.5t62.5 -116t23.5 -161.5 q0 -210 -117 -316t-315 -106q-93 0 -175.5 24t-134 59t-81 72t-29.5 66zM354 1788q0 26 23 37l229 125q6 6 17 6q22 0 35.5 -18t13.5 -40q0 -32 -25 -45l-219 -116q-9 -6 -20 -6q-21 0 -37.5 17.5t-16.5 39.5z" />
<glyph unicode="&#x15b;" horiz-adv-x="788" d="M68 133q0 22 14 42t33 20q14 0 36 -15t46.5 -33.5t74.5 -33.5t113 -15q110 0 160.5 41t50.5 105q0 55 -28 92.5t-72.5 58t-98.5 36.5t-108 34.5t-98.5 44.5t-72.5 74.5t-28 117.5q0 51 18.5 99t55.5 89t101.5 66t148.5 25q101 0 187.5 -31.5t86.5 -68.5q0 -21 -16 -45.5 t-39 -24.5q-11 0 -41 14.5t-76.5 28.5t-99.5 14q-104 0 -154.5 -49t-50.5 -110q0 -41 22 -71t57.5 -46.5t81 -32t93.5 -27.5t93.5 -34.5t81 -51t57.5 -79t22 -117.5q0 -122 -87 -193t-243 -71q-135 0 -228 48t-93 99zM233 1268q0 26 23 37l229 125q6 6 17 6q22 0 35.5 -18 t13.5 -40q0 -32 -25 -45l-219 -116q-11 -7 -20 -7q-21 0 -37.5 18t-16.5 40z" />
<glyph unicode="&#x15c;" horiz-adv-x="1011" d="M74 207q0 26 19 51t42 25q14 0 31.5 -17.5t41.5 -42.5t57.5 -50t91 -42.5t128.5 -17.5q145 0 225.5 72t80.5 210q0 73 -23.5 128.5t-62.5 90.5t-90 62t-107.5 48l-113 42t-107.5 51t-90 69t-62.5 100.5t-23.5 141.5q0 86 27.5 153t70.5 107.5t102 67t115.5 36t118.5 9.5 q79 0 157 -15.5t132.5 -45t54.5 -64.5q0 -24 -17.5 -50t-42.5 -26q-12 0 -36.5 12t-53 27t-82 27t-114.5 12t-111.5 -12t-93.5 -38t-67.5 -73.5t-24.5 -113.5q0 -61 23.5 -106.5t62.5 -74.5t90 -52t107.5 -43t113 -43t107.5 -57t90 -79.5t62.5 -116t23.5 -161.5 q0 -210 -117 -316t-315 -106q-93 0 -175.5 24t-134 59t-81 72t-29.5 66zM225 1786q0 30 27 45l213 115q17 10 35 10t35 -10l213 -115q26 -12 26 -47q0 -20 -12 -34.5t-29 -14.5q-2 0 -20 6l-213 112l-213 -114q-18 -6 -19 -6q-17 0 -30 15.5t-13 37.5z" />
<glyph unicode="&#x15d;" horiz-adv-x="788" d="M68 133q0 22 14 42t33 20q14 0 36 -15t46.5 -33.5t74.5 -33.5t113 -15q110 0 160.5 41t50.5 105q0 55 -28 92.5t-72.5 58t-98.5 36.5t-108 34.5t-98.5 44.5t-72.5 74.5t-28 117.5q0 51 18.5 99t55.5 89t101.5 66t148.5 25q101 0 187.5 -31.5t86.5 -68.5q0 -21 -16 -45.5 t-39 -24.5q-11 0 -41 14.5t-76.5 28.5t-99.5 14q-104 0 -154.5 -49t-50.5 -110q0 -41 22 -71t57.5 -46.5t81 -32t93.5 -27.5t93.5 -34.5t81 -51t57.5 -79t22 -117.5q0 -122 -87 -193t-243 -71q-135 0 -228 48t-93 99zM111 1266q0 31 26 45l213 114q18 11 35 11t35 -11 l213 -114q26 -12 26 -47q0 -20 -12 -35t-29 -15q-3 0 -6.5 1.5t-7.5 3t-6 2.5l-213 112l-213 -114q-1 -1 -7.5 -4t-10.5 -3q-17 0 -30 16t-13 38z" />
<glyph unicode="&#x15e;" horiz-adv-x="1011" d="M74 207q0 26 19 51t42 25q14 0 31.5 -17.5t41.5 -42.5t57.5 -50t91 -42.5t128.5 -17.5q145 0 225.5 72t80.5 210q0 73 -23.5 128.5t-62.5 90.5t-90 62t-107.5 48l-113 42t-107.5 51t-90 69t-62.5 100.5t-23.5 141.5q0 86 27.5 153t70.5 107.5t102 67t115.5 36t118.5 9.5 q79 0 157 -15.5t132.5 -45t54.5 -64.5q0 -24 -17.5 -50t-42.5 -26q-12 0 -36.5 12t-53 27t-82 27t-114.5 12t-111.5 -12t-93.5 -38t-67.5 -73.5t-24.5 -113.5q0 -61 23.5 -106.5t62.5 -74.5t90 -52t107.5 -43t113 -43t107.5 -57t90 -79.5t62.5 -116t23.5 -161.5 q0 -184 -91 -288.5t-249 -127.5l-31 -117q98 -3 147.5 -45t49.5 -102q0 -62 -48 -110t-135 -48q-52 0 -105.5 14t-53.5 39q0 12 9.5 30.5t22.5 18.5q2 0 38 -14t77 -14q55 0 82 22.5t27 57.5q0 76 -129 86l-78 6l45 170h-10q-93 0 -175.5 24t-134 59t-81 72t-29.5 66z" />
<glyph unicode="&#x15f;" horiz-adv-x="788" d="M68 133q0 22 14 42t33 20q14 0 36 -15t46.5 -33.5t74.5 -33.5t113 -15q110 0 160.5 41t50.5 105q0 55 -28 92.5t-72.5 58t-98.5 36.5t-108 34.5t-98.5 44.5t-72.5 74.5t-28 117.5q0 51 18.5 99t55.5 89t101.5 66t148.5 25q101 0 187.5 -31.5t86.5 -68.5q0 -21 -16 -45.5 t-39 -24.5q-11 0 -41 14.5t-76.5 28.5t-99.5 14q-104 0 -154.5 -49t-50.5 -110q0 -41 22 -71t57.5 -46.5t81 -32t93.5 -27.5t93.5 -34.5t81 -51t57.5 -79t22 -117.5q0 -109 -69.5 -178t-194.5 -82l-31 -115q98 -3 147.5 -45t49.5 -102q0 -62 -48 -110t-135 -48 q-52 0 -105.5 14t-53.5 39q0 12 9.5 30.5t22.5 18.5q1 0 38 -14t77 -14q55 0 82 22.5t27 57.5q0 76 -129 86l-78 6l45 170q-130 4 -217.5 51.5t-87.5 95.5z" />
<glyph unicode="&#x160;" horiz-adv-x="1011" d="M74 207q0 26 19 51t42 25q14 0 31.5 -17.5t41.5 -42.5t57.5 -50t91 -42.5t128.5 -17.5q145 0 225.5 72t80.5 210q0 73 -23.5 128.5t-62.5 90.5t-90 62t-107.5 48l-113 42t-107.5 51t-90 69t-62.5 100.5t-23.5 141.5q0 86 27.5 153t70.5 107.5t102 67t115.5 36t118.5 9.5 q79 0 157 -15.5t132.5 -45t54.5 -64.5q0 -24 -17.5 -50t-42.5 -26q-12 0 -36.5 12t-53 27t-82 27t-114.5 12t-111.5 -12t-93.5 -38t-67.5 -73.5t-24.5 -113.5q0 -61 23.5 -106.5t62.5 -74.5t90 -52t107.5 -43t113 -43t107.5 -57t90 -79.5t62.5 -116t23.5 -161.5 q0 -210 -117 -316t-315 -106q-93 0 -175.5 24t-134 59t-81 72t-29.5 66zM225 1972q0 18 11 31.5t28 13.5q19 0 31 -12l205 -188l202 188q12 12 31 12q17 0 28 -13.5t11 -31.5q0 -26 -24 -47l-207 -184q-24 -21 -41 -21q-20 0 -41 21l-207 184q-27 21 -27 47z" />
<glyph unicode="&#x161;" horiz-adv-x="788" d="M68 133q0 22 14 42t33 20q14 0 36 -15t46.5 -33.5t74.5 -33.5t113 -15q110 0 160.5 41t50.5 105q0 55 -28 92.5t-72.5 58t-98.5 36.5t-108 34.5t-98.5 44.5t-72.5 74.5t-28 117.5q0 51 18.5 99t55.5 89t101.5 66t148.5 25q101 0 187.5 -31.5t86.5 -68.5q0 -21 -16 -45.5 t-39 -24.5q-11 0 -41 14.5t-76.5 28.5t-99.5 14q-104 0 -154.5 -49t-50.5 -110q0 -41 22 -71t57.5 -46.5t81 -32t93.5 -27.5t93.5 -34.5t81 -51t57.5 -79t22 -117.5q0 -122 -87 -193t-243 -71q-135 0 -228 48t-93 99zM113 1452q0 18 11 31.5t28 13.5q18 0 30 -12l205 -189 l203 189q12 12 31 12q17 0 27.5 -13.5t10.5 -31.5q0 -26 -24 -47l-207 -184q-24 -21 -41 -21q-20 0 -41 21l-207 184q-26 20 -26 47z" />
<glyph unicode="&#x162;" horiz-adv-x="985" d="M31 1434q0 26 13 44.5t38 18.5h821q25 0 38 -18t13 -43q0 -27 -13 -46.5t-38 -19.5h-342v-1317q0 -25 -20 -39t-47 -14q-28 0 -48 14t-20 39v1317h-344q-24 0 -37.5 19t-13.5 45zM334 -266q0 26 22 37l228 127q12 4 18 4q21 0 35 -18t14 -40q0 -31 -26 -45l-217 -116 q-14 -7 -23 -7q-21 0 -36 18t-15 40z" />
<glyph unicode="&#x163;" horiz-adv-x="608" d="M125 301v1079q0 21 20.5 35.5t44.5 14.5q26 0 47 -14.5t21 -35.5v-411h264q20 0 33.5 -17t13.5 -39t-13.5 -38.5t-33.5 -16.5h-264v-557q0 -100 42.5 -140t148.5 -40h57q27 0 44 -18t17 -42q0 -25 -17 -43t-44 -18h-57q-161 0 -242.5 73t-81.5 228zM131 -266q0 26 23 37 l227 127q12 4 18 4q21 0 35.5 -18.5t14.5 -39.5q0 -30 -27 -45l-217 -116q-14 -7 -23 -7q-21 0 -36 18t-15 40z" />
<glyph unicode="&#x164;" horiz-adv-x="985" d="M31 1434q0 26 13 44.5t38 18.5h821q25 0 38 -18t13 -43q0 -27 -13 -46.5t-38 -19.5h-342v-1317q0 -25 -20 -39t-47 -14q-28 0 -48 14t-20 39v1317h-344q-24 0 -37.5 19t-13.5 45zM217 1972q0 18 11 31.5t28 13.5q19 0 31 -12l205 -188l202 188q12 12 31 12q17 0 28 -13.5 t11 -31.5q0 -25 -25 -47l-207 -184q-24 -21 -40 -21q-20 0 -41 21l-207 184q-27 21 -27 47z" />
<glyph unicode="&#x165;" horiz-adv-x="608" d="M125 301v1079q0 21 20.5 35.5t44.5 14.5q26 0 47 -14.5t21 -35.5v-411h264q20 0 33.5 -17t13.5 -39t-13.5 -38.5t-33.5 -16.5h-264v-557q0 -100 42.5 -140t148.5 -40h57q27 0 44 -18t17 -42q0 -25 -17 -43t-44 -18h-57q-161 0 -242.5 73t-81.5 228zM389 1438 q0 39 27.5 66.5t66.5 27.5q38 0 66.5 -28t28.5 -66q0 -47 -84 -232q-9 -24 -37 -24q-19 0 -34 12t-15 31q0 12 4 18l39 107q-28 9 -45 33.5t-17 54.5z" />
<glyph unicode="&#x166;" horiz-adv-x="985" d="M31 1434q0 26 13 44.5t38 18.5h821q25 0 38 -18t13 -43q0 -27 -13 -46.5t-38 -19.5h-342v-567h260q22 0 34.5 -15.5t12.5 -37.5q0 -24 -12 -41t-35 -17h-260v-639q0 -25 -20 -39t-47 -14q-28 0 -48 14t-20 39v639h-262q-22 0 -34.5 16.5t-12.5 39.5t12.5 39t34.5 16h262 v567h-344q-24 0 -37.5 19t-13.5 45z" />
<glyph unicode="&#x167;" horiz-adv-x="614" d="M125 301v1079q0 21 20.5 35.5t44.5 14.5q26 0 47 -14.5t21 -35.5v-411h264q20 0 33.5 -17t13.5 -39t-13.5 -38.5t-33.5 -16.5h-264v-207h264q20 0 33.5 -16.5t13.5 -40.5q0 -22 -13.5 -37.5t-33.5 -15.5h-264v-240q0 -100 42.5 -140t148.5 -40h57q27 0 44 -18t17 -42 q0 -25 -17 -43t-44 -18h-57q-161 0 -242.5 73t-81.5 228z" />
<glyph unicode="&#x168;" horiz-adv-x="1159" d="M150 426v1022q0 24 19.5 36.5t47.5 12.5q29 0 48.5 -12t19.5 -37v-1022q0 -157 77 -235t218 -78t217.5 78t76.5 235v1022q0 25 19.5 37t48.5 12q28 0 48 -12.5t20 -36.5v-1022q0 -116 -33 -202.5t-92.5 -137t-135.5 -74.5t-169 -24q-75 0 -138 14.5t-117.5 48t-93 83.5 t-60 124t-21.5 168zM258 1825q0 52 60.5 84.5t119.5 32.5q53 0 135.5 -35t135.5 -35q40 0 67.5 15t44.5 29.5t31 14.5q19 0 30 -15.5t11 -31.5q0 -56 -57.5 -86.5t-114.5 -30.5q-56 0 -136.5 36t-135.5 36q-38 0 -68.5 -16.5t-50.5 -32.5t-33 -16q-19 0 -29 15.5t-10 35.5z " />
<glyph unicode="&#x169;" d="M119 371v547q0 20 19.5 35.5t47.5 15.5q26 0 46 -16t20 -35v-547q0 -102 75.5 -182t180.5 -80q104 0 180 79.5t76 182.5v549q0 20 19.5 34.5t47.5 14.5t47 -14.5t19 -34.5v-549q0 -154 -115.5 -269.5t-273.5 -115.5q-105 0 -195 53.5t-142 142.5t-52 189zM190 1305 q0 52 61 84t120 32q53 0 135 -34.5t135 -34.5q40 0 67.5 15t44.5 29.5t31 14.5q19 0 30 -15.5t11 -31.5q0 -56 -57.5 -86.5t-114.5 -30.5q-55 0 -136 36t-136 36q-38 0 -68.5 -16.5t-50.5 -33t-33 -16.5q-19 0 -29 16t-10 36z" />
<glyph unicode="&#x16a;" horiz-adv-x="1159" d="M150 426v1022q0 24 19.5 36.5t47.5 12.5q29 0 48.5 -12t19.5 -37v-1022q0 -157 77 -235t218 -78t217.5 78t76.5 235v1022q0 25 19.5 37t48.5 12q28 0 48 -12.5t20 -36.5v-1022q0 -116 -33 -202.5t-92.5 -137t-135.5 -74.5t-169 -24q-75 0 -138 14.5t-117.5 48t-93 83.5 t-60 124t-21.5 168zM307 1872q0 23 14 38t37 15h441q20 0 35.5 -15.5t15.5 -37.5q0 -21 -16 -36t-35 -15h-441q-23 0 -37 14.5t-14 36.5z" />
<glyph unicode="&#x16b;" d="M119 371v547q0 20 19.5 35.5t47.5 15.5q26 0 46 -16t20 -35v-547q0 -102 75.5 -182t180.5 -80q104 0 180 79.5t76 182.5v549q0 20 19.5 34.5t47.5 14.5t47 -14.5t19 -34.5v-549q0 -154 -115.5 -269.5t-273.5 -115.5q-105 0 -195 53.5t-142 142.5t-52 189zM238 1352 q0 23 14 38t37 15h440q20 0 35.5 -15.5t15.5 -37.5q0 -21 -16 -36.5t-35 -15.5h-440q-23 0 -37 15t-14 37z" />
<glyph unicode="&#x16c;" horiz-adv-x="1159" d="M150 426v1022q0 24 19.5 36.5t47.5 12.5q29 0 48.5 -12t19.5 -37v-1022q0 -157 77 -235t218 -78t217.5 78t76.5 235v1022q0 25 19.5 37t48.5 12q28 0 48 -12.5t20 -36.5v-1022q0 -116 -33 -202.5t-92.5 -137t-135.5 -74.5t-169 -24q-75 0 -138 14.5t-117.5 48t-93 83.5 t-60 124t-21.5 168zM338 1982h90q0 -69 44.5 -117t105.5 -48q60 0 103.5 48t43.5 117h90q0 -96 -72 -167.5t-165 -71.5q-96 0 -168 71.5t-72 167.5z" />
<glyph unicode="&#x16d;" d="M119 371v547q0 20 19.5 35.5t47.5 15.5q26 0 46 -16t20 -35v-547q0 -102 75.5 -182t180.5 -80q104 0 180 79.5t76 182.5v549q0 20 19.5 34.5t47.5 14.5t47 -14.5t19 -34.5v-549q0 -154 -115.5 -269.5t-273.5 -115.5q-105 0 -195 53.5t-142 142.5t-52 189zM268 1462h90 q0 -70 44.5 -118t105.5 -48q59 0 103 48.5t44 117.5h90q0 -96 -72 -167.5t-165 -71.5q-96 0 -168 71.5t-72 167.5z" />
<glyph unicode="&#x16e;" horiz-adv-x="1159" d="M150 426v1022q0 24 19.5 36.5t47.5 12.5q29 0 48.5 -12t19.5 -37v-1022q0 -157 77 -235t218 -78t217.5 78t76.5 235v1022q0 25 19.5 37t48.5 12q28 0 48 -12.5t20 -36.5v-1022q0 -116 -33 -202.5t-92.5 -137t-135.5 -74.5t-169 -24q-75 0 -138 14.5t-117.5 48t-93 83.5 t-60 124t-21.5 168zM389 1903q0 75 55.5 132.5t133.5 57.5q75 0 132.5 -57.5t57.5 -132.5q0 -77 -57.5 -137t-132.5 -60q-76 0 -132.5 60t-56.5 137zM457 1903q0 -50 36.5 -89.5t86.5 -39.5q47 0 82.5 39.5t35.5 89.5q0 44 -36 81t-82 37q-51 0 -87 -36.5t-36 -81.5z" />
<glyph unicode="&#x16f;" d="M119 371v547q0 20 19.5 35.5t47.5 15.5q26 0 46 -16t20 -35v-547q0 -102 75.5 -182t180.5 -80q104 0 180 79.5t76 182.5v549q0 20 19.5 34.5t47.5 14.5t47 -14.5t19 -34.5v-549q0 -154 -115.5 -269.5t-273.5 -115.5q-105 0 -195 53.5t-142 142.5t-52 189zM317 1382 q0 75 55.5 133t133.5 58q75 0 132.5 -58t57.5 -133q0 -77 -57.5 -136.5t-132.5 -59.5q-76 0 -132.5 59.5t-56.5 136.5zM385 1382q0 -50 36.5 -89.5t86.5 -39.5q47 0 83 39.5t36 89.5q0 44 -36.5 81.5t-82.5 37.5q-51 0 -87 -37t-36 -82z" />
<glyph unicode="&#x170;" horiz-adv-x="1159" d="M150 426v1022q0 24 19.5 36.5t47.5 12.5q29 0 48.5 -12t19.5 -37v-1022q0 -157 77 -235t218 -78t217.5 78t76.5 235v1022q0 25 19.5 37t48.5 12q28 0 48 -12.5t20 -36.5v-1022q0 -116 -33 -202.5t-92.5 -137t-135.5 -74.5t-169 -24q-75 0 -138 14.5t-117.5 48t-93 83.5 t-60 124t-21.5 168zM373 1778q0 20 16 28l197 142q8 8 22 8q19 0 33 -15.5t14 -33.5q0 -25 -18 -37l-186 -131q-10 -10 -25 -10q-20 0 -36.5 15t-16.5 34zM680 1778q0 20 16 28l197 142q8 8 22 8q20 0 34 -15.5t14 -33.5q0 -24 -19 -37l-186 -131q-10 -10 -25 -10 q-20 0 -36.5 15t-16.5 34z" />
<glyph unicode="&#x171;" d="M119 371v547q0 20 19.5 35.5t47.5 15.5q26 0 46 -16t20 -35v-547q0 -102 75.5 -182t180.5 -80q104 0 180 79.5t76 182.5v549q0 20 19.5 34.5t47.5 14.5t47 -14.5t19 -34.5v-549q0 -154 -115.5 -269.5t-273.5 -115.5q-105 0 -195 53.5t-142 142.5t-52 189zM285 1257 q0 21 16 29l197 141q9 9 22 9q19 0 33 -16t14 -34q0 -24 -18 -36l-187 -131q-11 -11 -24 -11q-20 0 -36.5 15t-16.5 34zM592 1257q0 21 16 29l197 141q9 9 22 9q19 0 33 -16t14 -34q0 -24 -18 -36l-186 -131q-11 -11 -25 -11q-20 0 -36.5 15t-16.5 34z" />
<glyph unicode="&#x172;" horiz-adv-x="1159" d="M150 426v1022q0 24 19.5 36.5t47.5 12.5q29 0 48.5 -12t19.5 -37v-1022q0 -157 77 -235t218 -78t217.5 78t76.5 235v1022q0 25 19.5 37t48.5 12q28 0 48 -12.5t20 -36.5v-1022q0 -177 -73 -279.5t-202 -138.5q-151 -133 -151 -256q0 -92 127 -92q19 0 30 -10t11 -27 q0 -35 -52 -35q-83 0 -140.5 38t-57.5 116q0 130 108 248q-5 0 -15 -1t-15 -1q-75 0 -138 14.5t-117.5 48t-93 83.5t-60 124t-21.5 168z" />
<glyph unicode="&#x173;" d="M119 371v547q0 20 19.5 35.5t47.5 15.5q26 0 46 -16t20 -35v-547q0 -102 75.5 -182t180.5 -80q104 0 180 79.5t76 182.5v549q0 20 19.5 34.5t47.5 14.5t47 -14.5t19 -34.5v-549q0 -122 -75 -223.5t-191 -141.5q-150 -132 -150 -254q0 -92 127 -92q19 0 30 -10t11 -27 q0 -18 -11.5 -26.5t-39.5 -8.5q-83 0 -141 38t-58 116q0 127 107 244q-105 1 -194.5 54.5t-141 142t-51.5 188.5z" />
<glyph unicode="&#x174;" horiz-adv-x="1611" d="M45 1442q0 24 24.5 39.5t53.5 15.5q44 0 53 -35l354 -1257l205 764q11 47 72 47q57 0 70 -47l204 -764l355 1257q9 35 53 35q29 0 53.5 -15.5t24.5 -39.5q0 -11 -2 -17l-402 -1388q-7 -24 -30 -36.5t-52 -12.5t-51.5 12t-28.5 37l-194 723l-195 -723q-6 -24 -28.5 -36.5 t-51.5 -12.5q-67 0 -81 49l-404 1388q-2 6 -2 17zM530 1786q0 30 27 45l213 115q17 10 35 10t35 -10l213 -115q26 -12 26 -47q0 -20 -12 -34.5t-29 -14.5q-2 0 -20 6l-213 112l-213 -114q-18 -6 -19 -6q-17 0 -30 15.5t-13 37.5z" />
<glyph unicode="&#x175;" horiz-adv-x="1366" d="M31 913q0 24 25.5 42t54.5 18q16 0 29.5 -8.5t17.5 -22.5l262 -729l211 666q10 34 53 34t53 -34l203 -674l268 737q3 13 16.5 22t28.5 9q29 0 54.5 -17t25.5 -43q0 -18 -8 -30l-319 -867q-10 -32 -54 -32q-40 0 -55 30l-213 666l-211 -655q-11 -41 -59 -41q-44 0 -56 41 l-319 858q-8 16 -8 30zM408 1266q0 31 26 45l213 114q18 11 35 11t35 -11l213 -114q26 -12 26 -47q0 -20 -12 -35t-29 -15q-3 0 -6.5 1.5t-7.5 3t-6 2.5l-213 112l-213 -114q-1 -1 -8 -4t-10 -3q-17 0 -30 16t-13 38z" />
<glyph unicode="&#x176;" horiz-adv-x="1087" d="M39 1440q0 25 23.5 41t50.5 16q33 0 53 -41l377 -747l379 747q20 41 53 41q27 0 50.5 -16t23.5 -41q0 -16 -9 -37l-426 -813q-4 -12 -4 -17v-520q0 -25 -19.5 -39t-47.5 -14q-27 0 -47.5 14t-20.5 39v520q0 11 -2 17l-424 813q-10 17 -10 37zM268 1786q0 30 27 45 l213 115q17 10 35 10t35 -10l213 -115q26 -12 26 -47q0 -20 -12 -34.5t-29 -14.5q-2 0 -20 6l-213 112l-213 -114q-18 -6 -19 -6q-17 0 -30 15.5t-13 37.5z" />
<glyph unicode="&#x177;" horiz-adv-x="860" d="M29 918q0 25 27 44t55 19q38 0 47 -29l280 -753l264 753q12 29 46 29q27 0 54 -19.5t27 -46.5q0 -12 -4 -16l-317 -860q-76 -205 -123 -291q-122 -223 -293 -223q-61 0 -61 59q0 62 41 62q93 0 175 114t122 281l-334 858q-6 9 -6 19zM162 1266q0 31 26 45l213 114 q18 11 35 11t35 -11l213 -114q27 -12 27 -47q0 -20 -12 -35t-29 -15l-21 7l-213 112l-213 -114q-1 -1 -8 -4t-10 -3q-17 0 -30 16t-13 38z" />
<glyph unicode="&#x178;" horiz-adv-x="1087" d="M39 1440q0 25 23.5 41t50.5 16q33 0 53 -41l377 -747l379 747q20 41 53 41q27 0 50.5 -16t23.5 -41q0 -16 -9 -37l-426 -813q-4 -12 -4 -17v-520q0 -25 -19.5 -39t-47.5 -14q-27 0 -47.5 14t-20.5 39v520q0 11 -2 17l-424 813q-10 17 -10 37zM344 1810q0 32 22 53t54 21 q31 0 52.5 -21t21.5 -53q0 -31 -21.5 -53t-52.5 -22q-32 0 -54 22t-22 53zM596 1810q0 32 22 53t54 21t52.5 -21t20.5 -53q0 -31 -20.5 -53t-52.5 -22t-54 22t-22 53z" />
<glyph unicode="&#x179;" horiz-adv-x="991" d="M49 47q0 23 12 47l682 1278h-618q-24 0 -37.5 19t-13.5 45q0 25 13 43t38 18h743q25 0 38.5 -12t13.5 -31q0 -22 -17 -53l-680 -1276h670q24 0 37.5 -19t13.5 -43q0 -26 -13 -44.5t-38 -18.5h-795q-23 0 -36 13t-13 34zM340 1788q0 26 22 37l230 125q6 6 16 6 q22 0 35.5 -18t13.5 -40q0 -33 -24 -45l-219 -116q-9 -6 -21 -6q-21 0 -37 17.5t-16 39.5z" />
<glyph unicode="&#x17a;" horiz-adv-x="821" d="M49 53q0 22 21 51l501 748h-452q-20 0 -34.5 17t-14.5 40q0 25 14 42.5t35 17.5h579q21 0 36.5 -15t15.5 -39q0 -25 -17 -49l-504 -747h496q20 0 34.5 -18t14.5 -44q0 -24 -14 -40.5t-35 -16.5h-621q-25 0 -40 16t-15 37zM268 1268q0 26 23 37l229 125q6 6 17 6 q22 0 35.5 -18t13.5 -40q0 -32 -25 -45l-219 -116q-10 -7 -20 -7q-21 0 -37.5 18t-16.5 40z" />
<glyph unicode="&#x17b;" horiz-adv-x="991" d="M49 47q0 23 12 47l682 1278h-618q-24 0 -37.5 19t-13.5 45q0 25 13 43t38 18h743q25 0 38.5 -12t13.5 -31q0 -22 -17 -53l-680 -1276h670q24 0 37.5 -19t13.5 -43q0 -26 -13 -44.5t-38 -18.5h-795q-23 0 -36 13t-13 34zM414 1810q0 32 21.5 53t53.5 21q31 0 52.5 -21 t21.5 -53q0 -31 -21.5 -53t-52.5 -22q-32 0 -53.5 22t-21.5 53z" />
<glyph unicode="&#x17c;" horiz-adv-x="821" d="M49 53q0 22 21 51l501 748h-452q-20 0 -34.5 17t-14.5 40q0 25 14 42.5t35 17.5h579q21 0 36.5 -15t15.5 -39q0 -25 -17 -49l-504 -747h496q20 0 34.5 -18t14.5 -44q0 -24 -14 -40.5t-35 -16.5h-621q-25 0 -40 16t-15 37zM332 1290q0 32 22 53t54 21q31 0 52 -21t21 -53 q0 -31 -21.5 -53.5t-51.5 -22.5q-32 0 -54 22.5t-22 53.5z" />
<glyph unicode="&#x17d;" horiz-adv-x="991" d="M49 47q0 23 12 47l682 1278h-618q-24 0 -37.5 19t-13.5 45q0 25 13 43t38 18h743q25 0 38.5 -12t13.5 -31q0 -22 -17 -53l-680 -1276h670q24 0 37.5 -19t13.5 -43q0 -26 -13 -44.5t-38 -18.5h-795q-23 0 -36 13t-13 34zM209 1972q0 18 11 31.5t28 13.5q19 0 31 -12 l204 -188l203 188q12 12 31 12q17 0 28 -13.5t11 -31.5q0 -25 -25 -47l-207 -184q-24 -21 -41 -21q-20 0 -41 21l-206 184q-27 21 -27 47z" />
<glyph unicode="&#x17e;" horiz-adv-x="821" d="M49 53q0 22 21 51l501 748h-452q-20 0 -34.5 17t-14.5 40q0 25 14 42.5t35 17.5h579q21 0 36.5 -15t15.5 -39q0 -25 -17 -49l-504 -747h496q20 0 34.5 -18t14.5 -44q0 -24 -14 -40.5t-35 -16.5h-621q-25 0 -40 16t-15 37zM131 1452q0 18 11 31.5t28 13.5q19 0 31 -12 l205 -189l202 189q12 12 31 12q17 0 28 -13.5t11 -31.5q0 -25 -25 -47l-207 -184q-25 -21 -40 -21q-20 0 -41 21l-207 184q-27 21 -27 47z" />
<glyph unicode="&#x2c6;" horiz-adv-x="548" d="M0 1266q0 30 27 45l213 114q18 11 34 11q17 0 35 -11l213 -114q27 -12 27 -47q0 -20 -12 -35t-29 -15l-21 7l-213 112l-213 -114q-1 -1 -8 -4t-10 -3q-17 0 -30 16t-13 38z" />
<glyph unicode="&#x2da;" horiz-adv-x="378" d="M0 1382q0 75 55 133t133 58q75 0 133 -58t58 -133q0 -77 -58 -136.5t-133 -59.5q-76 0 -132 59.5t-56 136.5zM68 1382q0 -51 36 -90t86 -39q47 0 83 39.5t36 89.5q0 44 -36.5 81.5t-82.5 37.5q-51 0 -86.5 -37t-35.5 -82z" />
<glyph unicode="&#x2dc;" horiz-adv-x="634" d="M0 1305q0 52 60.5 84t119.5 32q53 0 135.5 -34.5t135.5 -34.5q40 0 67.5 15t44.5 29.5t31 14.5q19 0 30 -15.5t11 -31.5q0 -56 -57.5 -86.5t-114.5 -30.5q-55 0 -136 36t-137 36q-38 0 -68 -16.5t-50 -33t-33 -16.5q-19 0 -29 16t-10 36z" />
<glyph unicode="&#x1e80;" horiz-adv-x="1611" d="M45 1442q0 24 24.5 39.5t53.5 15.5q44 0 53 -35l354 -1257l205 764q11 47 72 47q57 0 70 -47l204 -764l355 1257q9 35 53 35q29 0 53.5 -15.5t24.5 -39.5q0 -11 -2 -17l-402 -1388q-7 -24 -30 -36.5t-52 -12.5t-51.5 12t-28.5 37l-194 723l-195 -723q-6 -24 -28.5 -36.5 t-51.5 -12.5q-67 0 -81 49l-404 1388q-2 6 -2 17zM637 1898q0 22 14 40t35 18q10 0 19 -6l227 -125q22 -11 22 -37q0 -22 -16 -39.5t-37 -17.5q-11 0 -20 6l-217 116q-27 12 -27 45z" />
<glyph unicode="&#x1e81;" horiz-adv-x="1366" d="M31 913q0 24 25.5 42t54.5 18q16 0 29.5 -8.5t17.5 -22.5l262 -729l211 666q10 34 53 34t53 -34l203 -674l268 737q3 13 16.5 22t28.5 9q29 0 54.5 -17t25.5 -43q0 -18 -8 -30l-319 -867q-10 -32 -54 -32q-40 0 -55 30l-213 666l-211 -655q-11 -41 -59 -41q-44 0 -56 41 l-319 858q-8 16 -8 30zM508 1378q0 22 14 40t35 18q9 0 18 -6l228 -125q22 -11 22 -37q0 -22 -16 -40t-37 -18q-10 0 -20 7l-217 116q-27 12 -27 45z" />
<glyph unicode="&#x1e82;" horiz-adv-x="1611" d="M45 1442q0 24 24.5 39.5t53.5 15.5q44 0 53 -35l354 -1257l205 764q11 47 72 47q57 0 70 -47l204 -764l355 1257q9 35 53 35q29 0 53.5 -15.5t24.5 -39.5q0 -11 -2 -17l-402 -1388q-7 -24 -30 -36.5t-52 -12.5t-51.5 12t-28.5 37l-194 723l-195 -723q-6 -24 -28.5 -36.5 t-51.5 -12.5q-67 0 -81 49l-404 1388q-2 6 -2 17zM657 1788q0 26 23 37l229 125q6 6 17 6q22 0 35.5 -18t13.5 -40q0 -32 -25 -45l-219 -116q-9 -6 -20 -6q-21 0 -37.5 17.5t-16.5 39.5z" />
<glyph unicode="&#x1e83;" horiz-adv-x="1366" d="M31 913q0 24 25.5 42t54.5 18q16 0 29.5 -8.5t17.5 -22.5l262 -729l211 666q10 34 53 34t53 -34l203 -674l268 737q3 13 16.5 22t28.5 9q29 0 54.5 -17t25.5 -43q0 -18 -8 -30l-319 -867q-10 -32 -54 -32q-40 0 -55 30l-213 666l-211 -655q-11 -41 -59 -41q-44 0 -56 41 l-319 858q-8 16 -8 30zM539 1268q0 26 22 37l230 125q6 6 16 6q22 0 35.5 -18t13.5 -40q0 -32 -25 -45l-219 -116q-10 -7 -20 -7q-21 0 -37 18t-16 40z" />
<glyph unicode="&#x1e84;" horiz-adv-x="1611" d="M45 1442q0 24 24.5 39.5t53.5 15.5q44 0 53 -35l354 -1257l205 764q11 47 72 47q57 0 70 -47l204 -764l355 1257q9 35 53 35q29 0 53.5 -15.5t24.5 -39.5q0 -11 -2 -17l-402 -1388q-7 -24 -30 -36.5t-52 -12.5t-51.5 12t-28.5 37l-194 723l-195 -723q-6 -24 -28.5 -36.5 t-51.5 -12.5q-67 0 -81 49l-404 1388q-2 6 -2 17zM604 1810q0 32 22 53t54 21q31 0 52.5 -21t21.5 -53q0 -31 -21.5 -53t-52.5 -22q-32 0 -54 22t-22 53zM856 1810q0 32 22 53t54 21t53 -21t21 -53q0 -31 -21 -53t-53 -22t-54 22t-22 53z" />
<glyph unicode="&#x1e85;" horiz-adv-x="1366" d="M31 913q0 24 25.5 42t54.5 18q16 0 29.5 -8.5t17.5 -22.5l262 -729l211 666q10 34 53 34t53 -34l203 -674l268 737q3 13 16.5 22t28.5 9q29 0 54.5 -17t25.5 -43q0 -18 -8 -30l-319 -867q-10 -32 -54 -32q-40 0 -55 30l-213 666l-211 -655q-11 -41 -59 -41q-44 0 -56 41 l-319 858q-8 16 -8 30zM481 1290q0 32 22 53t54 21q31 0 52.5 -21t21.5 -53q0 -31 -21.5 -53.5t-52.5 -22.5q-32 0 -54 22.5t-22 53.5zM733 1290q0 32 22 53t54 21t53 -21t21 -53q0 -31 -21 -53.5t-53 -22.5t-54 22.5t-22 53.5z" />
<glyph unicode="&#x1ef2;" horiz-adv-x="1087" d="M39 1440q0 25 23.5 41t50.5 16q33 0 53 -41l377 -747l379 747q20 41 53 41q27 0 50.5 -16t23.5 -41q0 -16 -9 -37l-426 -813q-4 -12 -4 -17v-520q0 -25 -19.5 -39t-47.5 -14q-27 0 -47.5 14t-20.5 39v520q0 11 -2 17l-424 813q-10 17 -10 37zM375 1898q0 22 14 40t35 18 q9 0 18 -6l228 -125q22 -11 22 -37q0 -22 -16 -39.5t-37 -17.5q-12 0 -21 6l-217 116q-26 12 -26 45z" />
<glyph unicode="&#x1ef3;" horiz-adv-x="860" d="M29 918q0 25 27 44t55 19q38 0 47 -29l280 -753l264 753q12 29 46 29q27 0 54 -19.5t27 -46.5q0 -12 -4 -16l-317 -860q-76 -205 -123 -291q-122 -223 -293 -223q-61 0 -61 59q0 62 41 62q93 0 175 114t122 281l-334 858q-6 9 -6 19zM254 1378q0 22 14 40t35 18 q10 0 19 -6l227 -125q22 -11 22 -37q0 -22 -16 -40t-37 -18q-10 0 -20 7l-217 116q-27 12 -27 45z" />
<glyph unicode="&#x2000;" horiz-adv-x="1046" />
<glyph unicode="&#x2001;" horiz-adv-x="2093" />
<glyph unicode="&#x2002;" horiz-adv-x="1046" />
<glyph unicode="&#x2003;" horiz-adv-x="2093" />
<glyph unicode="&#x2004;" horiz-adv-x="697" />
<glyph unicode="&#x2005;" horiz-adv-x="523" />
<glyph unicode="&#x2006;" horiz-adv-x="348" />
<glyph unicode="&#x2007;" horiz-adv-x="348" />
<glyph unicode="&#x2008;" horiz-adv-x="261" />
<glyph unicode="&#x2009;" horiz-adv-x="418" />
<glyph unicode="&#x200a;" horiz-adv-x="116" />
<glyph unicode="&#x2010;" horiz-adv-x="845" d="M106 492q0 26 14.5 43.5t37.5 17.5h532q21 0 36 -17.5t15 -43.5t-15 -42t-36 -16h-532q-23 0 -37.5 16t-14.5 42z" />
<glyph unicode="&#x2011;" horiz-adv-x="845" d="M106 492q0 26 14.5 43.5t37.5 17.5h532q21 0 36 -17.5t15 -43.5t-15 -42t-36 -16h-532q-23 0 -37.5 16t-14.5 42z" />
<glyph unicode="&#x2012;" horiz-adv-x="845" d="M106 492q0 26 14.5 43.5t37.5 17.5h532q21 0 36 -17.5t15 -43.5t-15 -42t-36 -16h-532q-23 0 -37.5 16t-14.5 42z" />
<glyph unicode="&#x2013;" horiz-adv-x="968" d="M106 492q0 26 14.5 43.5t37.5 17.5h655q21 0 36 -17.5t15 -43.5t-15 -42t-36 -16h-655q-23 0 -37.5 16t-14.5 42z" />
<glyph unicode="&#x2014;" horiz-adv-x="1544" d="M106 492q0 26 14.5 43.5t37.5 17.5h1228q21 0 37.5 -17.5t16.5 -43.5q0 -25 -16.5 -41.5t-37.5 -16.5h-1228q-23 0 -37.5 16t-14.5 42z" />
<glyph unicode="&#x2018;" horiz-adv-x="327" d="M68 1262q0 54 82 231q12 25 36 25q19 0 34.5 -12t15.5 -31q0 -8 -3 -17l-40 -106q28 -10 44.5 -34.5t16.5 -53.5q0 -40 -27.5 -68.5t-66.5 -28.5q-38 0 -65 28t-27 67z" />
<glyph unicode="&#x2019;" horiz-adv-x="323" d="M74 1423q0 39 27.5 67t66.5 28q38 0 66 -28.5t28 -66.5q0 -44 -82 -231q-12 -25 -37 -25q-20 0 -35.5 12t-15.5 31q0 13 4 19l41 106q-28 9 -45.5 34t-17.5 54z" />
<glyph unicode="&#x201a;" horiz-adv-x="350" d="M82 82q0 40 26.5 68t67.5 28q37 0 64.5 -28t27.5 -66q0 -54 -82 -231q-12 -25 -36 -25q-19 0 -35.5 12t-16.5 31q0 4 4 16l41 107q-28 10 -44.5 34.5t-16.5 53.5z" />
<glyph unicode="&#x201c;" horiz-adv-x="636" d="M68 1262q0 49 84 231q9 25 36 25q19 0 34.5 -12t15.5 -31q0 -9 -5 -17l-38 -106q28 -10 44.5 -34.5t16.5 -53.5q0 -40 -27.5 -68.5t-66.5 -28.5q-38 0 -66 28.5t-28 66.5zM377 1262q0 54 82 231q13 25 37 25q19 0 35 -12t16 -31q0 -5 -4 -17l-41 -106q28 -10 44.5 -34.5 t16.5 -53.5q0 -40 -26.5 -68.5t-67.5 -28.5q-37 0 -64.5 28.5t-27.5 66.5z" />
<glyph unicode="&#x201d;" horiz-adv-x="632" d="M76 1423q0 39 27.5 67t66.5 28q38 0 66 -28.5t28 -66.5q0 -46 -84 -231q-9 -25 -37 -25q-19 0 -34 12t-15 31q0 13 4 19l39 106q-27 9 -44 33.5t-17 54.5zM385 1423q0 39 27 67t67 28q37 0 64.5 -28.5t27.5 -66.5q0 -51 -82 -231q-13 -25 -36 -25q-19 0 -35.5 12 t-16.5 31q0 4 5 19l40 106q-27 9 -44 33.5t-17 54.5z" />
<glyph unicode="&#x201e;" horiz-adv-x="659" d="M82 82q0 40 26.5 68t67.5 28q37 0 64.5 -28t27.5 -66q0 -54 -82 -231q-12 -25 -36 -25q-19 0 -35.5 12t-16.5 31q0 4 4 16l41 107q-28 10 -44.5 34.5t-16.5 53.5zM389 82q0 40 27 68t67 28q38 0 66.5 -28t28.5 -66q0 -49 -84 -231q-9 -25 -37 -25q-19 0 -34 12t-15 31 q0 10 4 16l39 107q-28 11 -45 35t-17 53z" />
<glyph unicode="&#x2026;" horiz-adv-x="1091" d="M82 82q0 40 26.5 68t67.5 28q37 0 64.5 -28.5t27.5 -67.5q0 -37 -27.5 -65.5t-64.5 -28.5q-40 0 -67 28t-27 66zM455 82q0 40 26.5 68t67.5 28q37 0 64.5 -28.5t27.5 -67.5q0 -37 -27.5 -65.5t-64.5 -28.5q-40 0 -67 28t-27 66zM825 82q0 40 27 68t68 28q37 0 64.5 -28.5 t27.5 -67.5q0 -37 -27.5 -65.5t-64.5 -28.5q-40 0 -67.5 28t-27.5 66z" />
<glyph unicode="&#x202f;" horiz-adv-x="418" />
<glyph unicode="&#x2039;" horiz-adv-x="481" d="M72 567q0 19 20 58l182 336q12 24 48 24q30 0 52.5 -21t22.5 -44q0 -11 -6 -23l-178 -330l178 -327q6 -12 6 -23q0 -24 -24 -44.5t-54 -20.5q-32 0 -45 24l-182 336q-20 42 -20 55z" />
<glyph unicode="&#x203a;" horiz-adv-x="481" d="M84 217q0 11 6 23l176 327l-176 330q-6 12 -6 23q0 23 22.5 44t51.5 21q38 0 47 -24l182 -336q3 -6 8.5 -16.5t8 -15.5t4.5 -12.5t2 -13.5t-2 -13t-4.5 -12t-8 -15t-8.5 -15l-182 -336q-11 -24 -43 -24q-30 0 -54 20.5t-24 44.5z" />
<glyph unicode="&#x205f;" horiz-adv-x="523" />
<glyph unicode="&#x20ac;" horiz-adv-x="1191" d="M66 569q0 24 14 40t37 16h127v196h-127q-23 0 -37 15t-14 38q0 24 14 40t37 16h127v131q0 115 32.5 201t91 136.5t133.5 74.5t167 24q193 0 310.5 -99t117.5 -255q0 -37 -17 -52.5t-51 -15.5q-67 0 -67 49q0 114 -78.5 181t-212.5 67q-140 0 -215.5 -77.5t-75.5 -233.5 v-131h346q21 0 37 -16.5t16 -39.5t-16 -38t-37 -15h-346v-196h346q21 0 37 -16.5t16 -39.5t-16 -38t-37 -15h-346v-100q0 -142 74 -222.5t219 -80.5q132 0 210.5 67.5t78.5 184.5q3 51 67 51q34 0 51 -15.5t17 -52.5q0 -158 -117.5 -259t-310.5 -101q-195 0 -309.5 107.5 t-114.5 320.5v100h-127q-23 0 -37 15t-14 38z" />
<glyph unicode="&#x2122;" horiz-adv-x="1282" d="M86 1528q0 19 8.5 32t24.5 13h403q31 0 31 -45q0 -20 -8.5 -33.5t-22.5 -13.5h-153v-477q0 -17 -13.5 -26t-33.5 -9q-22 0 -37 9.5t-15 25.5v477h-151q-15 0 -24 14t-9 33zM608 1004v520q0 49 49 49q47 0 74 -62l143 -325l146 325q26 62 74 62q49 0 49 -49v-520 q0 -16 -14.5 -25.5t-34.5 -9.5t-33.5 9t-13.5 26v364l-138 -309q-13 -27 -35 -27q-24 0 -32 27l-137 313v-368q0 -16 -14.5 -25.5t-33.5 -9.5q-20 0 -34.5 9.5t-14.5 25.5z" />
<glyph unicode="&#x25fc;" horiz-adv-x="983" d="M0 0v983h983v-983h-983z" />
</font>
</defs>
</svg>
