<?xml version="1.0" encoding="utf-8"?>
<!-- Generator: Adobe Illustrator 16.0.0, SVG Export Plug-In . SVG Version: 6.00 Build 0)  -->
<!DOCTYPE svg PUBLIC "-//W3C//DTD SVG 1.1 Tiny//EN" "http://www.w3.org/Graphics/SVG/1.1/DTD/svg11-tiny.dtd">
<svg version="1.1" baseProfile="tiny" id="Réteg_1"
	 xmlns="http://www.w3.org/2000/svg" xmlns:xlink="http://www.w3.org/1999/xlink" x="0px" y="0px" width="55px" height="684.4px"
	 viewBox="0 0 55 684.4" xml:space="preserve">
<g>
	<path fill="#A684AD" d="M51.8,6.2c-4.1-5.5-11.5-7.8-17.9-5.6c-2.7,0.9-5,2.6-6.6,4.8c-1.6-2-3.7-3.5-6.3-4.4
		C14.6-1.2,7.2,1.1,3.1,6.6c-4,5.3-3.5,10.3-2.3,13.6C2,23.7,4.9,27.2,7,27.8c1.7,0.4,3.4-0.6,3.8-2.3c0.4-1.5-0.4-3-1.7-3.6
		c-0.5-0.5-2.4-2.5-2.8-5.3c-0.3-2.1,0.3-4.1,1.8-6.2c2.5-3.3,7.1-4.7,10.9-3.5c3.4,1.1,5.3,4.2,5.3,8.6v25.5v0.4
		c0,1.7,1.4,3.2,3.2,3.2s3.2-1.4,3.2-3.2v-0.4V15.6v-0.4c0-4.4,1.9-7.5,5.3-8.7c3.8-1.3,8.4,0.2,10.9,3.5c1.5,2,2.1,4,1.8,6.2
		c-0.4,2.8-2.3,4.9-2.8,5.3c-1.3,0.6-2,2.1-1.7,3.6c0.4,1.7,2.1,2.7,3.8,2.3c2.1-0.5,5-4,6.2-7.6C55.3,16.5,55.8,11.5,51.8,6.2z"/>
</g>
<g>
	<g>
		<path fill="#A684AD" d="M2.7,67.4c2.9,0,4.8-2.3,6.3-4.1c1.5-1.8,2.5-2.9,3.7-2.9c0.7,0,1.2,0.7,2.3,2.7c1.3,2.3,3.3,5.8,7.7,5.8
			c4.5,0,6.4-3.5,7.6-5.9c0.5-1,1.2-2.3,1.6-2.3c0.7,0,1.8,1.7,2.6,3c1.5,2.4,3.3,5.3,6.9,5.3c3.4,0,6-2.9,8.2-5.4
			c0.8-0.9,2-2.3,2.6-2.6c1.4-0.1,2.6-1.3,2.6-2.8c0-1.5-1.3-2.8-2.8-2.8c-2.6,0-4.5,2.1-6.6,4.4c-1.1,1.2-3.1,3.5-4.1,3.5
			c-0.5-0.1-1.6-1.9-2.1-2.7c-1.5-2.4-3.5-5.6-7.3-5.6c-3.8,0-5.5,3.2-6.6,5.3c-1.2,2.4-1.7,2.9-2.6,2.9c-1,0-1.6-0.8-2.9-3
			c-1.3-2.3-3.2-5.5-7.2-5.5c-4,0-6.3,2.9-8.1,5c-0.6,0.7-1.6,1.9-2,2c-1.5,0-2.8,1.3-2.8,2.8C-0.1,66.1,1.2,67.4,2.7,67.4z"/>
		<path fill="#A684AD" d="M52.1,73.6c-2.6,0-4.5,2.1-6.6,4.4c-1.1,1.2-3.1,3.5-4.1,3.5c-0.5-0.1-1.6-1.9-2.1-2.7
			c-1.5-2.4-3.5-5.6-7.3-5.6c-3.8,0-5.5,3.2-6.6,5.3c-1.2,2.4-1.7,2.9-2.6,2.9c-1,0-1.6-0.8-2.9-3c-1.3-2.3-3.2-5.5-7.2-5.5
			c-4,0-6.3,2.9-8.1,5c-0.6,0.7-1.6,1.9-2,2c-1.5,0-2.8,1.3-2.8,2.8c0,1.5,1.3,2.8,2.8,2.8c2.9,0,4.8-2.3,6.3-4.1
			c1.5-1.8,2.5-2.9,3.7-2.9c0.7,0,1.2,0.7,2.3,2.7c1.3,2.3,3.3,5.8,7.7,5.8c4.5,0,6.4-3.5,7.6-5.9c0.5-1,1.2-2.3,1.6-2.3
			c0.7,0,1.8,1.7,2.6,3c1.5,2.4,3.3,5.3,6.9,5.3c3.4,0,6-2.9,8.2-5.4c0.8-0.9,2-2.3,2.6-2.6c1.4-0.1,2.6-1.3,2.6-2.8
			C54.9,74.9,53.7,73.6,52.1,73.6z"/>
	</g>
</g>
<g>
	<path fill="#A684AD" d="M54.7,125.5c0.9-5.1-1-9.9-5-12.9c-2.1-1.5-4.5-2.3-6.7-2.3v-2.6c0-6.9-5.7-8-9.2-8c-2.4,0-4.6,0.9-6.3,2.5
		c0,0,0,0,0,0c-1.8-1.7-4.1-2.6-6.3-2.6c-2.4,0-4.6,0.9-6.3,2.5c0,0,0,0,0,0c-1.7-1.4-3.8-2.2-5.9-2.2c-2.4,0-4.6,0.9-6.3,2.5
		c-1.3,1.3-2.8,3.5-2.8,7.2c0,1.7,1.4,3,3,3c1.7,0,3-1.4,3-3c0-3.4,2.3-3.7,2.9-3.7c1.4,0,3.1,1,3.1,3.7v25.8c0,1.7,1.4,3,3,3
		c1.7,0,3-1.4,3-3v-26.2c0-3.4,2.7-3.7,3.4-3.7s3.2,0.2,3.2,4.1c0,4.9-0.1,25.7-0.1,25.7c0,1.7,1.4,3,3,3s3-1.4,3-3v-26.2
		c0-3.4,2.3-3.7,2.9-3.7c1.4,0,3.1,1,3.1,3.7c0,0,0.1,27.8,0.1,29.6c-2.5,1.5-4.9,2.4-6.7,2.7c-1.7,0.3-2.7,1.9-2.4,3.6
		c0.3,1.5,1.6,2.5,3,2.5c0.2,0,0.4,0,0.6-0.1c2.4-0.5,5.8-1.8,9.3-3.9c3.3,1.7,7.7,2.5,10,2.8c1.6,0.2,3.2-0.9,3.4-2.6
		c0.2-1.7-0.9-3.2-2.6-3.4c-1.7-0.3-3.5-0.6-5.1-1.1C50.5,136,53.8,131.2,54.7,125.5z M43.1,134.5c0-1.3,0-2.8,0-4.4
		c0-4.9,0-10.4,0-13.7c0.7,0,2,0.4,3.2,1.4c1.1,0.9,3,3.1,2.3,6.7C48.1,128.3,45.9,131.7,43.1,134.5z"/>
</g>
<g>
	<path fill="#A684AD" d="M54.8,206.2c-0.5-2.2-2.6-3.7-4.9-3.2c-2.2,0.5-3.7,2.6-3.2,4.9c0.1,0.5-4.3,6.5-7.5,5.1
		c-3.2-1.4-3.4-7.2-1.4-9.8c4.5-5.8,14.6-20.4,11.8-31.5c-1.1-4.4-4.1-7.8-8.8-9.8c-7-2.8-13-2.7-17.7,0.5
		c-6.6,4.5-8.3,13.5-8.7,18.5c0,0,0,0-0.1,0c-8,0-14.5,6.5-14.5,14.5c0,8,6.5,14.5,14.5,14.5c8,0,14.5-6.5,14.5-14.5
		c0-4.9-2.5-9.3-6.3-11.9c0.1-3.5,1.1-11.4,5.2-14.2c2.3-1.5,5.6-1.4,9.8,0.3c2.9,1.3,3.7,3,4,4.2c1.3,5.1-2.7,14.7-10.3,24.4
		c-5.7,7.3-4.7,15.2,2.6,21.3c4.3,2.7,10.9,1.2,13.5-0.3C51.5,216.4,55.9,211.6,54.8,206.2z M14.4,201.4c-3.4,0-6.2-2.8-6.2-6.2
		c0-3.4,2.8-6.2,6.2-6.2c3.4,0,6.2,2.8,6.2,6.2C20.6,198.7,17.8,201.4,14.4,201.4z"/>
</g>
<g>
	<g>
		<path fill="#A684AD" d="M3,251.7h12c1.7,0,3.1-1.4,3.1-3.1l0-0.6c0-2.3-0.1-7.2,2.6-9.9c1.5-1.5,3.6-2.2,6.6-2.2
			c4.3,0,7,1.5,8.5,4.8c1.3,2.9,1.3,6.3,1.3,8c0,1.7,1.4,3.1,3.1,3.1h11.8c1.7,0,3.1-1.4,3.1-3.1c0-1.7-1.4-3.1-3.1-3.1H43
			c-0.2-2.1-0.6-4.9-1.8-7.5c-1.8-3.8-5.6-8.3-14-8.3c-4.6,0-8.3,1.4-10.9,4c-3.5,3.5-4.2,8.4-4.4,11.8H3c-1.7,0-3.1,1.4-3.1,3.1
			C-0.1,250.3,1.3,251.7,3,251.7z"/>
		<path fill="#A684AD" d="M51.9,256.3H3c-1.7,0-3.1,1.4-3.1,3.1c0,1.7,1.4,3.1,3.1,3.1h48.9c1.7,0,3.1-1.4,3.1-3.1
			C54.9,257.6,53.6,256.3,51.9,256.3z"/>
	</g>
</g>
<g>
	<path fill="#A684AD" d="M51.2,293.4h-13c1.2-12,7.9-16.5,8.3-16.8c1.7-1.1,2.3-3.4,1.2-5.1c-1.1-1.8-3.4-2.3-5.1-1.3
		c-0.5,0.3-10.6,6.6-11.9,23.1h-8.4c-1.4-16.5-11.5-22.9-11.9-23.1c-1.8-1.1-4-0.5-5.1,1.2c-1.1,1.7-0.5,4,1.2,5.1
		c0.3,0.2,7.1,4.7,8.3,16.8h-11c-2.1,0-3.7,1.7-3.7,3.7c0,2.1,1.7,3.7,3.7,3.7h11c-1.3,10.7-7.7,12.7-8,12.7c-2,0.5-3.2,2.5-2.8,4.5
		c0.4,1.7,1.9,2.9,3.6,2.9c0.3,0,0.6,0,0.9-0.1c0.5-0.1,12.2-3.1,13.8-20h8.4c1.5,16.9,13.2,19.9,13.8,20c0.3,0.1,0.6,0.1,0.9,0.1
		c1.7,0,3.2-1.1,3.6-2.8c0.5-2-0.7-4-2.7-4.5c-0.3-0.1-6.8-2-8-12.7h13c2.1,0,3.7-1.7,3.7-3.7C54.9,295.1,53.3,293.4,51.2,293.4z"/>
</g>
<g>
	<path fill="#A684AD" d="M51.5,329.8L51.5,329.8c-0.5,0-11.1,0.2-18.9,13.5c-1.6-0.4-3.2-0.6-4.9-0.6c-1.9,0-3.7,0.3-5.4,0.7
		c-7.8-13.4-18.5-13.6-19-13.6c0,0,0,0,0,0c-1.9,0-3.4,1.5-3.4,3.4c0,1.9,1.5,3.5,3.4,3.5c0.3,0,7.1,0.4,12.7,9.7
		c-5.2,3.7-8.6,9.7-8.6,16.5c0,11.2,9.1,20.2,20.2,20.2c11.2,0,20.2-9.1,20.2-20.2c0-7-3.6-13.2-9-16.8c5.6-9,12.1-9.4,12.6-9.4
		c1.9,0,3.4-1.6,3.4-3.5C54.9,331.3,53.4,329.8,51.5,329.8z M27.7,376.2c-7.3,0-13.3-6-13.3-13.3c0-7.3,6-13.3,13.3-13.3
		c7.3,0,13.3,6,13.3,13.3C41,370.2,35.1,376.2,27.7,376.2z"/>
</g>
<g>
	<g>
		<path fill="#A684AD" d="M48,420.6c-0.1,0.1-12.1,10.7-25.5,10.4c1.6-2.1,2.6-4.7,2.6-7.6c0-6.9-5.6-12.6-12.6-12.6
			c-6.9,0-12.6,5.6-12.6,12.6c0,6.2,4.5,11.3,10.4,12.4c4.3,2,8.6,2.8,12.8,2.8c15.9,0,29.2-11.7,29.9-12.4c1.5-1.4,1.7-3.7,0.3-5.3
			C51.9,419.3,49.5,419.2,48,420.6z M12.5,428.5c-2.8,0-5.1-2.3-5.1-5.1c0-2.8,2.3-5.1,5.1-5.1c2.8,0,5.1,2.3,5.1,5.1
			C17.6,426.2,15.3,428.5,12.5,428.5z"/>
		<path fill="#A684AD" d="M6.9,407.7C7,407.6,19,397,32.4,397.3c-1.6,2.1-2.6,4.7-2.6,7.6c0,6.9,5.6,12.6,12.6,12.6
			c6.9,0,12.6-5.6,12.6-12.6c0-6.2-4.5-11.3-10.4-12.4c-4.3-2-8.6-2.8-12.8-2.8c-15.9,0-29.2,11.7-29.9,12.4
			c-1.5,1.4-1.7,3.7-0.3,5.3C3,409,5.4,409.1,6.9,407.7z M42.4,399.8c2.8,0,5.1,2.3,5.1,5.1c0,2.8-2.3,5.1-5.1,5.1
			c-2.8,0-5.1-2.3-5.1-5.1C37.3,402.1,39.5,399.8,42.4,399.8z"/>
	</g>
</g>
<g>
	<path fill="#A684AD" d="M54,480.4l-7.7-5.5c-0.7-0.5-1.6-0.6-2.3-0.2c-0.7,0.4-1.2,1.2-1.2,2v3.4c-1.5-0.4-3.5-1.1-3.5-2.3v-20.7
		c0-5-5.2-7.3-8.4-7.3c-2.2,0-4.2,0.8-5.7,2.3c0,0,0,0,0,0c-1.6-1.5-3.7-2.3-5.8-2.3c-2.2,0-4.2,0.8-5.7,2.3c0,0,0,0,0,0
		c-1.5-1.3-3.5-2-5.4-2c-2.2,0-4.2,0.8-5.7,2.3c-1.2,1.1-2.5,3.2-2.5,6.6c0,1.5,1.2,2.8,2.8,2.8c1.5,0,2.8-1.2,2.8-2.8
		c0-3.1,2.1-3.3,2.7-3.3c1.3,0,2.9,0.9,2.9,3.3v23.5c0,1.5,1.2,2.8,2.8,2.8c1.5,0,2.8-1.2,2.8-2.8v-23.9c0-3.1,2.1-3.3,2.7-3.3
		c3.8,0,3.3,3.6,3.3,4.7s0,22.5,0,22.5c0,1.5,1.2,2.8,2.8,2.8c1.5,0,2.8-1.2,2.8-2.8v-23.9c0-3.1,2.1-3.3,2.7-3.3
		c1.3,0,2.9,0.9,2.9,3.3v19.1c0,5.3,5.4,7.4,9,7.9v3.3c0,0.9,0.5,1.7,1.3,2c0.3,0.1,0.6,0.2,0.9,0.2c0.5,0,1.1-0.2,1.5-0.6l7.7-6.8
		c0.5-0.4,0.8-1.1,0.8-1.8C54.9,481.4,54.6,480.8,54,480.4z"/>
</g>
<g>
	<path fill="#A684AD" d="M43.4,511.4c-3.8,0-7.2,1.9-9.3,4.7c-1.1-2.3-2.1-5.4-2.1-8.8c0-4.2-3.4-7.1-8.6-7.1
		c-2.6,0-5.3,0.8-7.2,2.3c-2.3-1.7-5.6-2.7-8.3-2.7c-2.1,0-4,0.6-5.4,1.7c-1.2,0.9-2.6,2.7-2.6,5.8c0,1.4,1.1,2.5,2.5,2.5
		s2.5-1.1,2.5-2.5c0-1.2,0.3-2.1,2.1-2.4c3-0.5,6.5,1.5,6.8,2.4v20.8c0,1.4,1.1,2.5,2.5,2.5c1.4,0,2.5-1.1,2.5-2.5v-20.8
		c0-0.9,2.1-2,4.5-2c1.1,0,2.1,0.2,2.8,0.7c0.5,0.3,0.7,0.7,0.7,1.3c0,7.4,3.6,13.2,4.9,15.2c0,0.2-0.1,0.3-0.1,0.5
		c0,1.8,0.5,3.5,1.2,5c-1.6,2.4-5.9,7.8-13.5,7.9c-1.4,0-2.5,1.2-2.5,2.6c0,1.4,1.2,2.5,2.5,2.5c0,0,0,0,0.1,0
		c8.7-0.2,14.1-5.5,16.7-8.9c2,1.5,4.4,2.5,7,2.5c6.4,0,11.6-5.2,11.6-11.6C54.9,516.6,49.7,511.4,43.4,511.4z M43.4,529.5
		c-3.6,0-6.5-2.9-6.5-6.5c0-3.6,2.9-6.5,6.5-6.5c3.6,0,6.5,2.9,6.5,6.5S46.9,529.5,43.4,529.5z"/>
</g>
<g>
	<path fill="#A583AC" d="M55,553.5c0-0.4-0.1-0.8-0.3-1.2c-0.2-0.4-0.4-0.8-0.8-1.1c0,0,0,0,0,0l0,0c-0.3-0.3-0.7-0.6-1.2-0.8
		c-0.4-0.2-0.9-0.3-1.4-0.3c0,0,0,0,0,0H32.2c-2,0-3.6,1.6-3.6,3.6c0,2,1.6,3.6,3.6,3.6h10.5l-17.2,17.1l-6.2-6.4
		c-1.4-1.4-3.7-1.5-5.1-0.1c-1.4,1.4-1.5,3.7-0.1,5.1l6.3,6.5L1.1,598.7c-1.4,1.4-1.4,3.7,0,5.1c0.7,0.7,1.6,1.1,2.5,1.1
		c0.9,0,1.8-0.4,2.5-1.1l19.3-19.2l7.1,7.3c0.7,0.7,1.6,1.1,2.6,1.1c0.9,0,1.8-0.3,2.5-1c1.4-1.4,1.5-3.7,0.1-5.1l-7.1-7.4
		l17.3-17.2v10.2c0,2,1.6,3.6,3.6,3.6c2,0,3.6-1.6,3.6-3.6v-18.9C55,553.5,55,553.5,55,553.5z"/>
</g>
<g>
	<path fill="#A583AC" d="M39.8,665v-34.1c4.9-1.1,8.7-3,11.3-5.7c3.7-3.7,3.8-7.6,3.8-8.3c0-2.2-1.8-3.9-4-4
		c-2.2-0.1-4.1,1.7-4.2,3.9c-0.2,2.4-4.2,6.9-18,6.9c-14.1,0-18.7-4.8-19.2-7.3c-0.3-2.2-2.2-3.8-4.5-3.6c-2.3,0.2-3.9,2.2-3.7,4.5
		c0,0.5,1.1,8.8,13.1,12.7v35.1C1.1,668.7,0.1,677.7,0,678.2c-0.2,2.2,1.4,4.1,3.5,4.4c2.2,0.3,4.2-1.3,4.6-3.4
		c0.5-2.5,5.1-7.3,19.2-7.3c13.8,0,17.8,4.5,18,6.8c0,2.3,1.8,4.1,4.1,4.2c0,0,0,0,0,0c2.2,0,4.1-1.8,4.1-4.1c0-0.7-0.1-4.6-3.8-8.3
		C47.3,667.9,44,666.1,39.8,665z M22.8,663.7v-32.1c1.9,0.2,3.8,0.3,6,0.3c1,0,1.9,0,2.8-0.1v31.8c-1.4-0.1-2.8-0.2-4.3-0.2
		C25.7,663.6,24.2,663.6,22.8,663.7z"/>
</g>
</svg>
